<svg enable-background="new 0 0 140 140" height="512" viewBox="0 0 140 140" width="512" xmlns="http://www.w3.org/2000/svg"><circle cx="70" cy="70" fill="#dbd8dd" r="64"/><path d="m97.8249588 31.777029-.0499878-.040039c-.6600342-.6099854-1.5300293-.9899902-2.4900513-.9899902h-46.339962c-2.0200195 0-3.6600342 1.6400166-3.6600342 3.6600361v10.2799072l-5.5599975 10.0700683v2.2299805c0 1.2199707.4800415 2.3200684 1.25 3.1500244h-.0099487l.0899658.0899658c.0200195.0200195.039978.0400391.0599976.0700684l4.1699829 4.1300049v44.9799805c0 .9799805.3900146 1.8599854 1.0100098 2.5200195l.0300293.0299072c.0199585.0200195.0499878.0500488.0700073.0700684l21.9306602 21.9306564c.5581055.0144043 1.112793.0422363 1.6743774.0422363 35.3463135 0 64.0000076-28.653801 64.0000076-63.9999924 0-.7045898-.0305176-1.4017334-.0531006-2.1008301l-36.03199-36.0319843c-.0299682-.0300293-.0599975-.0600586-.0899658-.0900879z" opacity=".1"/><path d="m95.2875137 30.7459564h-46.3411293c-2.0205421 0-3.6585121 1.63797-3.6585121 3.6585121v74.9995117c0 2.020546 1.63797 3.6585159 3.6585121 3.6585159h46.3411293c2.0205383 0 3.6585083-1.63797 3.6585083-3.6585159v-74.9995117c0-2.0205421-1.6379699-3.6585121-3.6585083-3.6585121z" fill="#3a556a"/><path d="m48.032036 39.587326h48.169827v61.127693h-48.169827z" fill="#27a2db"/><path d="m75.5449295 39.5870895 1.2000122 15.1699219v2.2299805c0 1.2800293-.5200195 2.4400635-1.3599854 3.2700195-.8300171.8400879-1.9899902 1.3601074-3.2700195 1.3601074-2.5499878 0-4.6300049-2.0700684-4.6300049-4.630127v-2.2299805l1.2000122-15.1699219h6.8599854z" fill="#e1e6e9"/><path d="m54.9649773 39.5870895h6.8599854l-3.5900269 15.1699219v2.2299805c0 1.2800293-.5199585 2.4400635-1.3499756 3.2700195-.8400269.8400879-2 1.3601074-3.2800293 1.3601074-2.5499878 0-4.6300049-2.0700684-4.6300049-4.630127v-2.2299805z" fill="#e1e6e9"/><path d="m95.2549515 54.7570114v2.2299805c0 1.2800293-.5200195 2.4400635-1.3499756 3.2700195-.8400269.8400879-2 1.3601074-3.2800293 1.3601074-2.5499878 0-4.6300049-2.0700684-4.6300049-4.630127v-2.2299805l-3.5899658-15.1699219h6.8599854z" fill="#e1e6e9"/><path d="m58.2341881 54.7549477h-9.2551727v2.2321358c0 2.5557404 2.0718384 4.6275826 4.6275826 4.6275826h.0000076c2.5557442 0 4.6275826-2.0718422 4.6275826-4.6275826v-2.2321358z" fill="#dbd8dd"/><path d="m76.7445374 54.7549477h-9.2551727v2.2321358c0 2.5557404 2.0718384 4.6275826 4.6275787 4.6275826h.0000076c2.555748 0 4.6275864-2.0718422 4.6275864-4.6275826z" fill="#dbd8dd"/><path d="m95.2548828 54.7549477h-9.2551727v2.2321358c0 2.5557404 2.0718384 4.6275826 4.6275787 4.6275826h.0000076c2.555748 0 4.6275864-2.0718422 4.6275864-4.6275826z" fill="#dbd8dd"/><g fill="#e56353"><path d="m61.8249626 39.5870895h6.8599815l-1.2000122 15.1699219v2.2299805c0 1.2800293-.5199585 2.4400635-1.3499756 3.2700195-.8400269.8400879-1.9899902 1.3601074-3.2700157 1.3601074-2.5599976 0-4.6300049-2.0700684-4.6300049-4.630127v-2.2299805z"/><path d="m48.1049309 39.5870895h6.8600464l-5.9900513 15.1699219v2.2299805c0 1.2800293-.5199585 2.4400635-1.3499756 3.2700195-.8400269.8400879-2 1.3601074-3.2700195 1.3601074-2.5599976 0-4.6300049-2.0700684-4.6300049-4.630127v-2.2299805z"/><path d="m104.5149612 54.7570114v2.2299805c0 1.2800293-.5200195 2.4400635-1.3599854 3.2700195-.8400269.8400879-1.9900513 1.3601074-3.2700195 1.3601074-2.5599976 0-4.6300049-2.0700684-4.6300049-4.630127v-2.2299805l-5.9899902-15.1699219h6.8599854z"/><path d="m82.4049759 39.5870895 3.5899658 15.1699219v2.2299805c0 1.2800293-.5200195 2.4400635-1.3499756 3.2700195-.8400269.8400879-2 1.3601074-3.2700195 1.3601074-2.5599976 0-4.6300049-2.0700684-4.6300049-4.630127v-2.2299805l-1.2000122-15.1699219h6.8600464z"/></g><g fill="#cd5248"><path d="m48.9790154 54.7549477h-9.2551727v2.2321358c0 2.5557404 2.0718384 4.6275826 4.6275787 4.6275826h.0000114c2.5557442 0 4.6275826-2.0718422 4.6275826-4.6275826z"/><path d="m67.4893646 54.7549477h-9.2551765v2.2321358c0 2.5557404 2.0718384 4.6275826 4.6275826 4.6275826h.0000076c2.5557404 0 4.6275864-2.0718422 4.6275864-4.6275826v-2.2321358z"/><path d="m85.9997101 54.7549477h-9.2551727v2.2321358c0 2.5557404 2.0718384 4.6275826 4.6275787 4.6275826h.0000076c2.555748 0 4.6275864-2.0718422 4.6275864-4.6275826z"/><path d="m104.5100555 54.7549477h-9.2551727v2.2321358c0 2.5557404 2.0718384 4.6275826 4.6275787 4.6275826h.0000153c2.5557404 0 4.6275787-2.0718422 4.6275787-4.6275826z"/></g><circle cx="72.117" cy="106.889" fill="#64798a" r="3.201"/><path d="m64.669762 34.090065h9.227952v2.172242h-9.227952z" fill="#64798a"/><path d="m76.459549 34.0900688c-.562439 0-1.0184097.4559746-1.0184097 1.0184059v.1353722c0 .5624886.4559708 1.0184631 1.0184097 1.0184631.5624847 0 1.0184555-.4559746 1.0184555-1.0184631v-.1353722c0-.5624313-.4559708-1.0184059-1.0184555-1.0184059z" fill="#64798a"/></svg>