<svg enable-background="new 0 0 140 140" height="512" viewBox="0 0 140 140" width="512" xmlns="http://www.w3.org/2000/svg"><circle cx="70" cy="70" fill="#4abba4" r="64"/><path d="m81.8027649 29.4968719c-.7600098 0-1.5100098.0300293-2.25.0900879 0 0-.9400024-.0200195-2.2800293.1999512-3.5300293-4.3800049-9.7000122-7.2900391-16.7500038-7.2900391-10.9699707 0-19.8699951 7.0300293-19.8699951 15.7000732 0 3.9000244 1.8099976 7.4799805 4.7999878 10.2199707-1.5700073 1.4899902-3.6300049 2.4200439-5.8800049 2.5599365.4800415.6201172 1.0400391 1.1800537 1.6699829 1.6700439l12.1300049 12.1300049h-7.7299805v.0300293c-.0800171 0-.1799927 0-.2700195.0100098-9.8199463.5999756-17.7099609 8.75-18.0299683 18.5799561-.1799927 5.5699463 2.0100098 10.6400146 5.6400146 14.2600098.6599731.6600342 1.3699951 1.2900391 2.1399536 1.8499756 1.6700439 1.25 2.9700317 2.8701172 3.8600464 4.7000732.8899536 1.8299561 1.3499756 3.8699951 1.3499756 5.9599609l23.5336914 23.5338135c2.019474.1918945 4.0638466.2993164 6.1336098.2993164 34.6677856 0 62.8777466-27.5693359 63.9488525-61.9769287l-36.486145-36.486206c-3.6199951-3.6799316-9.289978-6.0400391-15.6599731-6.0400391z" opacity=".1"/><path d="m69.56884 97.7368774h-2.3864975c-.7305603 0-1.3149796.5941696-1.3149796 1.3149796v3.6820374c0 .7208099-.5844269 1.3149796-1.3149796 1.3149796h-1.324791c-.8181915 0-1.4318657.7305603-1.2954788 1.5293655l.7889977 4.5878677h-22.3843192c0-2.0845413-.4675369-4.1300812-1.35392-5.9613495-.8864441-1.8312683-2.1916733-3.4482651-3.8573647-4.6949921-.7694969-.5650406-1.4806137-1.1884689-2.1429787-1.8508911-3.6332874-3.6235352-5.8152103-8.6886826-5.639883-14.260376.3214626-9.8285141 8.2114582-17.9814148 18.0301647-18.5854568.087635-.0097504.1850777-.0097504.2727127-.0097504v-.0292511h14.6988411c1.4026718 0 2.5423241 1.1398315 2.5423241 2.54245 0 .7013016-.2824593 1.3344727-.7403069 1.8020172-.4675369.4577866-1.1007118.740303-1.8020172.740303h-.7111168c3.8378639 3.5164032 6.2341156 8.5718002 6.2341156 14.1824951v2.4254379c0 1.1689682.2630157 2.3281784.7792511 3.3801346l3.4579544 7.023056c.2045823.3994065-.0876311.8669434-.5357284.8669434z" fill="#fcd462"/><path d="m72.7642899 97.7368774h2.3864975c.7305603 0 1.3149796.5941696 1.3149796 1.3149796v3.6820374c0 .7208099.5844193 1.3149796 1.3149796 1.3149796h1.324791c.8181915 0 1.4318619.7305603 1.2954788 1.5293655l-.7890015 4.5878677h22.3843231c0-2.0845413.4675369-4.1300812 1.35392-5.9613495.8864441-1.8312683 2.1916733-3.4482651 3.8573608-4.6949921.7695007-.5650406 1.4806137-1.1884689 2.1429825-1.8508911 3.6332855-3.6235352 5.8152084-8.6886826 5.6398773-14.260376-.3214569-9.8285141-8.2114563-17.9814148-18.0301666-18.5854568-.0876312-.0097504-.1850739-.0097504-.2727051-.0097504v-.0292511h-14.698845c-1.4026718 0-2.5423203 1.1398315-2.5423203 2.54245 0 .7013016.2824554 1.3344727.740303 1.8020172.4675369.4577866 1.1007156.740303 1.8020172.740303h.7111206c-3.8378677 3.5164032-6.2341156 8.5718002-6.2341156 14.1824951v2.4254379c0 1.1689682-.2630234 2.3281784-.7792511 3.3801346l-3.457962 7.023056c-.2045745.3994065.0876389.8669434.5357362.8669434z" fill="#fcd462"/><path d="m96.8819656 55.413353c2.9903564-2.7470703 4.7924805-6.3217773 4.7924805-10.2277832 0-8.6694336-8.8933716-15.692625-19.8712158-15.692625-.7597656 0-1.5098267.0292969-2.2501221.0975342 0 0-4.852417-.1473389-8.3161011 2.8215313s-11.0159301 16.8988036-4.765747 22.7576903c3.6430664 3.4873047 9.1661377 5.7177734 15.3319702 5.7177734 2.727417 0 5.3282471-.4382324 7.6952515-1.2175293 1.7825317 1.3637695 4.0423584 2.1040039 6.4483643 1.9287109 2.7858276-.2045898 5.2210083-1.5877686 6.8185425-3.6236572-2.2501222-.145996-4.3151857-1.0811767-5.883423-2.5616454z" fill="#dbd8dd"/><path d="m80.385704 38.1938477c0 8.675869-8.8946915 15.702507-19.8606606 15.702507-2.7278023 0-5.3227425-.4376984-7.6909866-1.2193069-1.7820892 1.3599892-4.0409431 2.1025276-6.4482574 1.9305496-2.7903442-.2031784-5.2211304-1.5866394-6.8156395-3.6266212 2.2510338-.1406822 4.3144875-1.0786209 5.8777008-2.563694-2.9857445-2.7434464-4.791256-6.3153992-4.791256-10.2234344 0-8.6679935 8.8946915-15.6946316 19.8684387-15.6946316 10.9659692-.0000001 19.8606606 7.0266379 19.8606606 15.6946315z" fill="#e1e6e9"/><g fill="#d6683d"><path d="m51.5278435 37.6112518c.4201775 1.7620239-1.1378021 3.2938309-2.8805389 2.8647499-.8185005-.2015266-1.4897804-.8725967-1.6915932-1.6910248-.4297752-1.7428894 1.1020508-3.3016434 2.8643379-2.8814659.8295059.1977768 1.5099945.8782425 1.7077942 1.7077408z"/><circle cx="60.52" cy="38.192" r="2.357"/><path d="m74.1567612 38.1915741c0 1.3052292-1.0520172 2.3573074-2.3572464 2.3573074-1.2955399 0-2.3475571-1.0520782-2.3475571-2.3573074 0-1.2954788 1.0520172-2.3573074 2.3475571-2.3573074 1.3052292 0 2.3572464 1.0618286 2.3572464 2.3573074z"/></g></svg>