<svg enable-background="new 0 0 140 140" height="512" viewBox="0 0 140 140" width="512" xmlns="http://www.w3.org/2000/svg"><circle cx="70" cy="70" fill="#4abba4" r="64"/><path d="m113.5118637 69.4706268c-7.1401367-7.0397949-29.1900635-20.0100098-35.3601074-22.8400879-.8000488-.369873-1.7399902.1101074-1.9199219.9802246l-.3100586 1.5500488-2.6699219-2.670166c-.2900391-.2900391-.670166-.4599609-1.0700684-.5l-15.6000977-1.5400391-19.0299071-14.6398925c-.4700928-.3701172-1.1600342-.0600586-1.2000732.5400391-.2199707 3.4599609-.039917 12.7199707 7.3100586 18.75 1.5700684 1.2900391 2.8200684 2.7199707 3.8200684 4.1999512-.0224609 0-5.8803711-.6428223-12.6455078-5.8330078l-7.01367-7.0136719c-.0036621-.0046387-.0073242-.0087891-.0108643-.0134277-.0919189-.1186523-.2010498-.2211914-.3166504-.3139648l-.0345459-.034668v.0002441c-.3950195-.3012695-.9002686-.439209-1.3887939-.3115234-1.0200195.25-1.5200195 1.3300781-1.1300049 2.2600098.9833984 2.3076172 3.4248047 6.8288574 8.7575665 11.25l-.0114746-.0021973 19.5848388 19.5849609c-.2174072.4929199-.144165 1.1022949.2990723 1.5270996 3.2199707 3.1000977 10.0899658 9.8400879 12.5599365 13.2700195 3.2800293 4.5500488 5.2900391 10.3601074 7.5 14.6901855 2.2199707 4.329834 5.8200684 6.0197754 7.1900635 11.829834 1.0511475 4.4655762.1210938 9.2905273 1.4412842 9.5805664l-.0080566.0192871 7.1917725 7.1916504c20.3150635-6.4729004 36.2120361-22.8139648 42.0846024-43.3894043l-16.932869-17.0292969c-.3476564-.3569335-.7092287-.7209472-1.0866701-1.0927734z" opacity=".1"/><path d="m78.765274 57.0192757c-1.7683868-.2510452-3.1997299.2557335-3.4083786 1.1564941-.0565109.2448502-.0179443.4946671.0948486.7440758-.2213821.160881-.3778763.3588753-.4490814.5989532-.0714645.240284-.0482254.489418.0500793.7454643-.2309494.1466064-.39888.3335152-.4840469.5678329-.085289.2350922-.0774918.4856491.0053787.7448273-.2394257.1312027-.4166336.3074188-.5167923.5353241-.100174.2285042-.1057816.4783821-.0391693.7425919-.2467346.1160507-.4352951.280262-.5479202.5017738-.1125717.2210541-.1356659.4705887-.0836411.7377319-.2532043.1003418-.4505997.2531662-.5769348.4670029-.1253815.2144394-.1629486.4611664-.1279984.7307739-.2583771.0850677-.4654312.2255096-.6039581.4311829-.1377258.2063065-.1905518.4506912-.1721725.7219849-.2629166.0693588-.4777222.1959381-.6292038.3940659-.1514511.1969223-.2177734.4388657-.2158127.7106094-.2675018.0527725-.4902267.1680603-.6527863.3560486-.1626358.1883087-.2448578.425087-.2597351.6973801-.2695312.0379105-.499649.1383591-.6743164.3169022-.1746674.1789093-.2708359.4112625-.303093.6817017-.2720108.0214386-.5084305.1091843-.6940613.276825-.1864853.1684341-.2966614.3941498-.3461075.6635742-.2742767.0052185-.5150452.079071-.7120285.2356796-.7210693.57724-.5616226 2.0868378.4284439 3.573822.9876099 1.4843369 2.5141602 2.0856094 3.477623 1.3181763.2510605-.2008743.4200134-.4671631.5094833-.770668.313118-.0385818.6038208-.1624603.8409271-.376976.2382736-.2142563.3881226-.4906387.4585953-.7978668.3096771-.0583344.5912781-.197403.8142776-.4255219.2231522-.2277832.3563538-.5119934.4068222-.8221207.3058243-.0762787.5766602-.2313538.7851181-.4723892.2081146-.2402878.3239594-.5308228.3546906-.8436813.2996979-.0931168.5614777-.26577.7538071-.5175781.1932755-.2525406.2900696-.5490112.3021622-.8627014.2935867-.1115189.5436096-.2986069.7206421-.5617447.1771164-.2634583.255394-.5647964.2490387-.8788376.2850723-.1293716.5245895-.3305969.6850815-.6040344.1612167-.2738266.2215271-.5789795.1954269-.8924789.2779541-.1459732.5042114-.3623428.647644-.6450729.1444244-.2825928.1867218-.5930176.1413422-.9036331.2686081-.1628952.4817581-.3930969.6080017-.6843491.1271133-.2916794.1504059-.6038971.086937-.9119606.2583466-.1785736.4567871-.4231377.5657578-.7220001.1094666-.2992744.1142807-.6129494.0322113-.9180565.2473679-.1961632.4303131-.4519386.5215607-.7580872.0906143-.3063011.0768814-.6217155-.0231247-.9216347.2349625-.2111282.4035339-.4791107.4752426-.7923546.2770768-1.1999399-.9264907-2.317013-2.6907806-2.5670511zm-.4294586 2.1588211c.8210754.1980972 1.4547119.569603 1.8246689.9841652-.5265274.1775665-1.2610626.1879692-2.0724792-.0449066-.8120956-.2325706-1.4336319-.6117363-1.8158493-.9810333.5143203-.132393 1.2424469-.157261 2.0636596.0417747zm2.1710968 1.9746284c-.0415115.1372986-.1337357.2625313-.2662048.3690796-.1422043-.2200432-.3295364-.4265633-.55896-.6140099.2941437-.0317421.565155-.1027946.8035431-.2100334.0524369.1617928.0627137.3171654.0216217.4549637zm-2.5919113-.4523811c.8068924.248333 1.4171677.6565323 1.7616119 1.0917625-.5354767.143074-1.2682419.1075478-2.0650711-.1734924-.7962646-.2817688-1.3935928-.6978188-1.7529831-1.0881462.5209504-.0992317 1.2487641-.078949 2.0564423.1698761zm2.0480652 2.0985222c-.0492706.1342278-.149765.2525558-.2875748.350647-.1282425-.227375-.3035812-.4452515-.520874-.6457901.2948761-.0134621.5692062-.0659256.8141785-.1589622.0422973.1640204.0429153.320095-.0057297.4541053zm-2.5590973-.6109162c.791275.297184 1.3743057.7413254 1.6925735 1.195591-.5427551.1103592-1.2727051.0295601-2.0503082-.3001099-.7777786-.3301468-1.3494949-.7814713-1.6841888-1.1917648.5262527-.0670357 1.2515564-.0008049 2.0419235.2962837zm1.9180527 2.2155991c-.0569992.1303253-.1640091.2428513-.308136.3315125-.1142883-.2337494-.2762756-.461647-.4810028-.6750031.2953568.005394.5734482-.0318527.8219528-.1079865.0331192.1658783.0238724.3210755-.032814.4514771zm-2.5169068-.7658501c.7702484.3448029 1.3270111.8233223 1.6171036 1.295002-.5479584.0766449-1.2722855-.0488663-2.0277481-.4248505-.756813-.3776855-1.2983322-.8611565-1.608963-1.2909698.5280075-.0344086 1.2485886.0758896 2.0196075.4208183zm1.7810288 2.3253365c-.0643845.1266479-.1783295.2309189-.32724.3115921-.1001053-.2410507-.2477264-.4771194-.4396744-.7023087.2947769.0234604.5729752.0037384.8267899-.0575333.022438.1676408.0045166.3219758-.0598755.4482499zm-2.4656143-.917717c.748642.3908463 1.275032.9014053 1.5359573 1.3901138-.5513306.0427551-1.2660904-.1264496-1.997757-.5477066-.7316589-.4218521-1.244873-.9379349-1.5281296-1.3854218.5300904-.0022964 1.2403184.1521607 1.9899293.5430146zm1.6376266 2.4276657c-.0718918.122406-.1922073.2202377-.3451614.2909698-.0860367-.246254-.2172318-.4918594-.3964157-.7276764.2931824.0410004.570755.0388336.828392-.0065689.012291.1681519-.0145264.3219758-.0868149.4432755zm-2.4051208-1.0657272c.7235565.4356766 1.2186127.9778976 1.4490738 1.4805145-.5531311.009613-1.2555161-.202713-1.9610519-.6677704-.7058792-.465271-1.1856689-1.0117035-1.4415665-1.4756699.5293884.0309678 1.2297134.2276917 1.9535446.6629258zm1.4877395 2.5220337c-.0794144.1177902-.2039642.208107-.3622818.2696381-.0698547-.2513428-.1878433-.5036621-.3516769-.7501831.2900848.0591888.568428.0735016.8273544.0435791.00177.1686858-.034172.3196716-.1133957.4369659zm-2.3363113-1.2092209c.6956329.4784622 1.1570969 1.048996 1.3566589 1.5656204-.553299-.0245743-1.2418976-.2784119-1.9171753-.7851486-.6763-.5070267-1.1224976-1.0817719-1.349205-1.560318.5250702.0620727 1.21418.3004684 1.9097214.7798462zm1.3318787 2.6081543c-.0860367.1134872-.2170181.1951447-.3782501.2474442-.054306-.2552414-.1573257-.5143814-.3052368-.7703934.2855988.0761185.5624924.106987.8233414.0930634-.0081941.1687163-.0527574.3164519-.1398545.4298858zm-2.2589264-1.3484192c.6649857.5194092 1.0915222 1.1176605 1.2589264 1.6453094-.5510559-.0575867-1.2223434-.3531494-1.8662262-.8995209-.6440506-.5464859-1.0548096-1.1486206-1.2517242-1.6398087.521675.0936433 1.1932372.3733751 1.859024.8940202zm1.1702652 2.6853104c-.0930481.1074905-.2292099.1827393-.3930435.2245483-.0385132-.2577896-.1251602-.5240707-.2574768-.7880859.2806549.0930176.5554886.1410141.8166504.1425705-.018036.1689376-.0730057.3127899-.1661301.4209671zm-2.1733628-1.4827042c.632637.5597916 1.0212936 1.181221 1.1560516 1.7197037-.547287-.0901337-1.1993408-.4254761-1.8091812-1.0102997-.6092606-.5845871-.9823685-1.210289-1.1489487-1.7136459.5150529.1247482 1.1687699.4451293 1.8020783 1.0042419zm1.0028534 2.7539673c-.0996857.10186-.2406616.1689835-.4070511.2011795-.02211-.2605515-.0923615-.5312958-.2081757-.8032227.274559.1103897.5471191.1739273.8072891.1911087-.0281905.1667862-.0926131.3083191-.1920623.4109345zm-2.0799179-1.6114044c.5980759.5969467.9466095 1.2428055 1.048172 1.7877808-.5413666-.1230164-1.1727295-.4969711-1.7453766-1.1175461-.5722885-.6209488-.9060669-1.2686691-1.0413742-1.7814331.5074005.1549758 1.1409302.513565 1.7385788 1.1111984zm.8298187 2.8128967c-.1068497.0958939-.2506256.1539764-.4193573.1768112-.0060043-.261673-.0596161-.5364914-.157402-.8154907.2675934.125885.5355606.2059326.7948074.2390213-.038681.1651459-.1113815.3036499-.2180481.3996582zm-1.978096-1.7349548c.560257.632164.8691101 1.2978973.9354782 1.8500443-.5333176-.1554184-1.1418457-.5663986-1.6756363-1.220932-.5336609-.6549377-.8258896-1.3228149-.9289551-1.8432693.4976197.184944 1.1085282.5821455 1.6691132 1.214157zm-2.6072311-1.219719c.091774-.0735092.2185593-.1080933.3682709-.1095734.0593643.6808624.3935547 1.5296402 1.0212555 2.3396072.6268387.8084488 1.3884277 1.3313675 2.1130905 1.4652176-.0504074.1629715-.1313095.2967911-.2434387.3864517-.5290298.4253998-1.7635803-.0076981-2.6511002-1.2661514-.8863449-1.2578277-1.0214462-2.4819488-.608078-2.8155517zm1.0823975-.9198608c.0864563-.0775833.2101898-.1203995.3598328-.1310196.0359726.2420044.1075897.499794.217453.7690582-.2568512-.1352463-.5072708-.2343063-.7438965-.2932816.0256729-.1483611.0806198-.2667693.1666107-.344757zm1.0199203-.9804383c.0825424-.0836792.2017059-.1315689.3502655-.1518326.0512924.238678.1388245.4912109.2648773.75383-.2639771-.1204605-.5207138-.2041092-.7593002-.2484283.0162811-.1484604.0631714-.2702408.1441574-.3535691zm.9554825-1.0375213c.0763626-.0883026.1927185-.1432877.3396149-.171875.0657806.2333755.1696472.481163.3108826.7352753-.2709579-.1039963-.5317764-.1715393-.7724609-.2025146.0073012-.1490251.046173-.2727052.1219634-.3608857zm.8884354-1.0910263c.0705872-.0924225.1841431-.1545105.3283691-.1919403.080162.2292175.198555.4708862.3550339.7148361-.2772903-.0870132-.5396881-.1385727-.7826385-.1559448-.0026627-.1489945.0287093-.2742462.0992355-.366951zm.8197555-1.1415711c.0645905-.0965652.1743851-.1653824.3158875-.2111969.0938644.2243958.2262115.4573898.3979874.6916885-.2813797-.0712738-.5473862-.1059494-.7906647-.1083679-.0109787-.1482925.0119628-.2759475.0767898-.3721237zm.7486954-1.1885147c.0587158-.1001434.1642303-.1760254.3026199-.2299805.1072464.2177811.2536697.4426727.4391937.6661148-.2861557-.0533066-.5534058-.072525-.7958832-.0602493-.0206451-.1479568-.0042724-.2763519.0540696-.375885zm.6756592-1.2323417c.0525284-.102829.1528473-.1858597.2882843-.2482262.1195374.2119484.2801971.4261627.4785385.6388893-.2886581-.0358543-.5564728-.0391731-.7980957-.011692-.028801-.1452141-.0213166-.2760544.0312729-.3789711zm.6004943-1.2727738c.0472107-.1072769.1418915-.194828.2728653-.2657051.1322174.2039337.3056412.4094505.5162506.6090508-.2893906-.0187302-.5581055-.0044327-.7974548.0373344-.0382461-.1438866-.0385055-.2747536.0083389-.3806801zm.5231247-1.3095169c.0396042-.1096382.1295624-.2035599.2567062-.2827873.144455.1958771.3300705.3908844.5518951.577301-.2903976-.0005722-.5572815.0296707-.7943039.0866089-.0460967-.1414375-.0547026-.2717438-.0142974-.3811226zm.4438935-1.343296c.0340042-.1123161.1171799-.2112389.2391663-.2994156.1560516.187664.3522339.3708992.585907.5442886-.2902756.0173264-.5548477.0643044-.7877884.1359367-.054123-.1390953-.0699464-.269104-.0372849-.3808097zm3.1643905-2.0410805c1.5191803.2572632 2.4417725 1.1832695 2.2869263 1.8442612-.0324936.1403084-.1183701.2712402-.2436371.38657-.4330978-.5953484-1.2338181-1.0573158-2.233902-1.273243-1.0007401-.2168198-1.9115906-.1520996-2.5513763.0891914-.0634155-.1364632-.0870819-.265583-.060051-.379509.1211548-.516468 1.2855378-.9232101 2.8020401-.6672706z" fill="#344d5b"/><path d="m64.4660873 50.5253181-26.9114914-20.719471c-.4759521-.3665009-1.1670914-.0579185-1.2050705.5414658-.2187271 3.4607849-.0329704 12.726368 7.3109436 18.7522278 9.1767654 7.5296669 7.4118462 19.6474152 8.9413795 21.6475449 1.5293579 1.9999619 8.0000954 6.3530045 8.0000954 6.3530045l6.0002213-6.0002213c5.3096009-6.2048798 4.3349152-15.5923462-2.1360779-20.5745507z" fill="#dbd8dd"/><path d="m72.180191 45.9862747-15.8734283-1.5589104c-.5589104-.0548973-1.1100922.1614799-1.4822311.5819931l-7.3420258 8.2950554s-10.5298958-1.1346855-19.6699886-12.866909c-.412384-.5294037-1.0943394-.8219566-1.7452812-.6581688-1.0150528.2555199-1.5164585 1.3330002-1.1244469 2.2581291 1.2360477 2.917099 4.7824116 9.3396111 13.5392246 14.6580505 0 0 6.2235985 4.0997543 10.8807602 4.5654335 4.6571617.4656754 9.3143196 2.3285789 13.5057068-3.7257118l4.793148 1.730732c.5025101.1815529 1.0605164.1235428 1.5150528-.1573677l6.1885757-3.8244629.9594193-5.6670113-3.0776443-3.1264381c-.2866364-.2866287-.6635895-.4648704-1.0668412-.5044136z" fill="#ededed"/><path d="m78.1520844 46.6301918c-.8049011-.368927-1.7397614.1131058-1.915596.9808311l-1.5685425 7.7405548c-.0988541.4878578.0734634.991169.4508209 1.315937l5.5036087 4.7384529c.3327942.2866325.7834167.4016457 1.2100525.2973709 1.7975693-.439682 7.0289001-1.196106 11.8026733 3.2007217 5.2645493 4.8488464 10.5290985 6.7201843 11.5714493 7.058197.131073.0425568.248291.1013641.3607941.180954 1.3153381.9299469 9.6675949 6.9463959 12.4417801 11.6964951.4261322.7296219 1.3951187.9127808 2.0524826.3816757l1.8952255-1.5307159c.4779205-.3859863.6452179-1.0382309.4046555-1.603363-.7472916-1.755722-2.929245-5.7903442-8.847641-11.6196213-7.1408005-7.0332107-29.1911545-20.0097121-35.361763-22.83749z" fill="#de594e"/><path d="m63.761795 69.2075424-9.6273499 2.8880997c-1.0083275.3025894-1.3188438 1.5771713-.5604172 2.3073044 3.2181816 3.0985489 10.0870018 9.8407135 12.5597 13.2706528 3.275589 4.5435562 5.2831192 10.3549728 7.5020981 14.6871643 2.2188873 4.3320847 5.8114166 6.0227737 7.1850586 11.8341904 1.3735428 5.8113098-.634079 12.2567062 3.3811722 8.4530182 4.015152-3.8039932 2.8528671-10.8833694.1055756-17.4343414-2.5458603-6.0711517-12.3515472-22.8503418-13.7746735-25.276474-.114006-.1942978-.1776352-.4120789-.1870728-.6370926l-.1746216-4.192482c-.0143585-.3447418-.1577682-.6714172-.4017487-.9153976l-4.6397018-4.6396942c-.3578871-.3578951-.8833769-.4903719-1.368019-.344948z" fill="#de594e"/><path d="m55.2124062 51.7471123c-.951725.951725-.951725 2.4946785 0 3.4464035.951622.9516258 2.4945755.9516258 3.4463005-.0000992.9516258-.9516258.9516258-2.4945793 0-3.4462051-.951725-.951725-2.4946785-.951725-3.4463005-.0000992z" fill="#467082"/><path d="m56.097084 52.6318436c-.4630852.463089-.4630852 1.2138519 0 1.6769371.4630394.4630394 1.2138023.4630394 1.6768913-.0000458.4630356-.4630394.4630356-1.2138023 0-1.6768417-.4630889-.4630852-1.2138519-.4630852-1.6768913-.0000496z" fill="#344d5b"/></svg>