<svg enable-background="new 0 0 140 140" height="512" viewBox="0 0 140 140" width="512" xmlns="http://www.w3.org/2000/svg"><circle cx="70" cy="70" fill="#e56353" r="64"/><path d="m32.6777649 86.4188461c.4000244 1.2399902 1.1300049 2.2999878 2.0600586 3.1299438-.0300293.1100464-.0400391.2200317-.0400391.3300171v6.1500244c0 .6400146.3400879 1.1900024.8400879 1.4899902l36.4389648 36.4440994c10.972168-.3286743 22.0046387-3.4698486 31.9807129-9.7145462 14.9929199-9.3851318 24.7572021-23.9634399 28.421875-39.9415283l-39.1015625-39.118042c-.25-.2699585-.4899902-.5199585-.75-.7399902l-.0300293-.0299683c-.5-.4200439-1.0100098-.7400513-1.5500488-.9100342-3.5300293-.4199829-7.0500488-.7299805-10.5500488-.9400024l-5.0200195-5.1199951c-.1699219-.1500244-.3898926-.2399902-.6298828-.2399902h-11.5400391c-.4499512 0-.8400879.3099976-.9299316.75l-.9899902 4.4299927c0 .0200195.0100098.039978 0 .0599976-4.0900879.210022-8.170166.5499878-12.2301025 1.0599976-4.6800537 1.5100098-7.5499268 13.4299927-8.1500244 14.789978-.6098633 1.3500366-4.9799805 3.6200562-7.25 6.7900391-2.2600098 3.1699829-2.4099121 15.3900146-1.1999512 20.5199585.0600585.2800292.1400145.5600585.2199706.8100585z" opacity=".1"/><path d="m76.6645126 42.3877945-.9820633-4.4283485c-.0967407-.4362564-.4835892-.7466774-.9304581-.7466774h-11.5481147c-.4467583 0-.8336067.310421-.9303436.7466774l-.9820671 4.4283485c-.1320648.595047.3209305 1.1593246.9303474 1.1593246h13.5123558c.6095276 0 1.062294-.5642776.9303436-1.1593246z" fill="#fcd462"/><path d="m104.7711563 65.3616486c-1.4260559.2390594-6.2517776 1.376152-10.7038574 1.5136795-.6055908.0187073-1.1866074.2580795-1.6530991.679306-.9521332.859726-2.3704529 2.3687363-1.9409332 3.4071045.6317673 1.527298 2.9678497 2.0363846 6.0047531 1.9091187 3.036972-.1272888 8.0755081-.0730286 8.9939499-2.9815826.9184494-2.9085771.8176346-4.782158-.7008133-4.5276261z" fill="#d9dde6"/><path d="m95.5357742 83.5084305h8.6662445l-.6593856 3.4853363h-5.1809082z" fill="none"/><path d="m87.8660812 67.4994354h-12.4136276c-.370697 0-.7110367.205162-.8839874.5330124l-2.2400131 4.2438812c-.2312469.4382553.1316223.9540634.6222916.8844223l13.5522537-1.9240875c.2398529-.0340576.459259-.1541138.6172485-.3377914l1.5036697-1.7479324c.5574799-.6480713.0970078-1.6515046-.7578354-1.6515046z" fill="#4e5366"/><circle cx="94.266" cy="69.897" fill="#c6cbd4" r="2.182"/><circle cx="99.869" cy="69.114" fill="#c6cbd4" r="1.452"/><path d="m103.5420532 88.1220627h-7.3463516c-.9709854 0-1.7581406.7871399-1.7581406 1.7580948v6.1533737c0 .9709625.7871552 1.7580948 1.7581406 1.7580948h7.3463516c.9709854 0 1.7581406-.7871323 1.7581406-1.7580948v-7.1533737c0-.9709549-.7871552-.7580948-1.7581406-.7580948z" fill="#3a556a"/><path d="m36.4579468 88.1220627h7.3463554c.9709816 0 1.7581367.7871399 1.7581367 1.7580948v6.1533737c0 .9709625-.7871552 1.7580948-1.7581367 1.7580948h-7.3463554c-.9709816 0-1.7581367-.7871323-1.7581367-1.7580948v-7.1533737c-.0000001-.9709549.7871551-.7580948 1.7581367-.7580948z" fill="#3a556a"/><path d="m106.3376236 65.0849838c-2.263504-3.1689568-6.6396713-5.4325104-7.2433472-6.7906532-.6035919-1.3581238-3.4707489-13.2794838-8.1486816-14.7885094-14.1644821-1.6845284-28.1342201-1.7346306-41.8911972 0-4.6778183 1.5090256-7.5450897 13.4303856-8.1486778 14.7885094-.6035919 1.3581429-4.9797554 3.6216965-7.2432632 6.7906532-2.2636814 3.1689606-2.4145355 15.392128-1.2073555 20.5228424.0671616.2850494.1430244.556572.2267151.8152161.9872513 3.0556641 3.9084625 5.070015 7.1197281 5.070015h60.3996048c3.1927338 0 6.104805-1.9904022 7.1019745-5.0234528.0896072-.272583.1706924-.5595627.2417679-.8617783 1.2071837-5.1307144 1.0563277-17.3538818-1.2072679-20.5228424z" fill="#f7be56"/><path d="m88.6285629 45.8194771c-12.8195877-1.2834244-25.5487862-1.3214607-38.1793938-.0019035-.5795212.0311127-1.106842.3384743-1.4212875.8262825-1.062645 1.6485138-3.4405632 5.6743813-4.1697121 9.7143173-.1983681 1.0990868.6637383 2.105587 1.7805824 2.105587h45.8028679c1.1168289 0 1.9789352-1.006485 1.7805786-2.1055641-.7287979-4.0382881-3.1050568-8.0625229-4.1683426-9.7123108-.3151855-.4890328-.8442763-.796566-1.4252929-.8264084z" fill="#27a2db"/><path d="m92.4085388 87.2843857-3.1500092-4.5736237c-.1497269-.2173843-.3967972-.3472137-.6607513-.3472137h-37.1955566c-.2639503 0-.5110245.1298294-.6607475.3472137l-3.1500168 4.5736237c-.3666077.5322952.0144424 1.2574234.6607475 1.2574234h43.4955902c.6463089 0 1.027359-.7251282.6607437-1.2574234z" fill="#3a556a"/><path d="m44.4642715 83.5084305h-8.6662483l.6593857 3.4853363h5.180912z" fill="none"/><path d="m53.2624435 67.4994354h12.4136276c.370697 0 .7110291.205162.8839798.5330124l2.2400208 4.2438812c.2312393.4382553-.1316299.9540634-.6222916.8844223l-13.5522575-1.9240875c-.2398529-.0340576-.459259-.1541138-.6172485-.3377914l-1.5036697-1.7479324c-.5574799-.6480713-.097004-1.6515046.7578391-1.6515046z" fill="#3a556a"/><path d="m86.7375565 67.4994354h-12.4136277c-.370697 0-.7110291.205162-.8839798.5330124l-2.2400208 4.2438812c-.2312393.4382553.1316299.9540634.6222916.8844223l13.5522537-1.9240875c.2398529-.0340576.4592667-.1541138.6172485-.3377914l1.5036697-1.7479324c.5574876-.6480713.0970079-1.6515046-.7578352-1.6515046z" fill="#3a556a"/><path d="m36.1182327 65.3616486c1.4260521.2390594 6.2517738 1.376152 10.7038574 1.5136795.605587.0187073 1.1866035.2580795 1.6530991.679306.9521332.859726 2.3704529 2.3687363 1.9409332 3.4071045-.6317711 1.527298-2.9678535 2.0363846-6.0047493 1.9091187-3.0369759-.1272888-8.0755081-.0730286-8.9939575-2.9815826-.9184494-2.9085771-.8176346-4.782158.7008171-4.5276261z" fill="#ebf0f3"/><circle cx="46.623" cy="69.897" fill="#d5d6db" r="2.182"/><circle cx="41.02" cy="69.114" fill="#d5d6db" r="1.452"/><path d="m103.8817673 65.3616486c-1.4260559.2390594-6.2517776 1.376152-10.7038574 1.5136795-.6055908.0187073-1.1866074.2580795-1.6530991.679306-.9521332.859726-2.3704529 2.3687363-1.9409332 3.4071045.6317673 1.527298 2.9678497 2.0363846 6.0047531 1.9091187 3.036972-.1272888 8.0755081-.0730286 8.9939575-2.9815826.9184494-2.9085771.8176269-4.782158-.7008209-4.5276261z" fill="#ebf0f3"/><circle cx="93.377" cy="69.897" fill="#d5d6db" r="2.182"/><circle cx="98.98" cy="69.114" fill="#d5d6db" r="1.452"/><path d="m63.863697 47.426041h11.352976v2.606032h-11.352976z" fill="#2d93ba"/><circle cx="99.869" cy="84.612" fill="#ebf0f3" r="3.93"/><circle cx="41.02" cy="84.612" fill="#ebf0f3" r="3.93"/><g fill="#4e5366"><path d="m66.6679993 38.3954544h-.9883118-.4670105-.9930801v.4669952h.9930801v2.2882462h.4670105v-2.2882462h.9883118z"/><path d="m71.593376 39.539581h2.755239v.46699h-2.755239z" transform="matrix(0 1 -1 0 112.744 -33.198)"/><path d="m66.8101425 41.1506958.3603134-.8316689h1.2901764l.3695602.8316689h.481926l-1.2232437-2.7552414h-.5630493l-1.1954269 2.7552414zm.9972077-2.3017426.4584732 1.0317268h-.9054489z"/><path d="m69.5256348 41.1506958h.5345611l.7884751-1.0399475.788475 1.0399475h.5345612l-1.0557175-1.3925056 1.0331268-1.3627358h-.534584l-.7658615 1.0101738-.765915-1.0101738h-.534584l1.0331802 1.3627358z"/></g></svg>