<svg enable-background="new 0 0 140 140" height="512" viewBox="0 0 140 140" width="512" xmlns="http://www.w3.org/2000/svg"><circle cx="70" cy="70" fill="#dbd8dd" r="63.991"/><path d="m47.2873268 31.2365665 12.2000122 12.1999531v9.4700317l-6.5800171 6.5700073-9.4699707.0100098-12.2000122-12.2000122c-1.8800049 7.3499756.0599976 15.4799805 5.8200073 21.2399864l59.6231041 59.6231155c2.4720459-1.137825 4.9046631-2.4262772 7.272522-3.9084549 11.0043335-6.8883057 19.1793213-16.579834 24.2052612-27.5637207l-38.8709106-38.8709067c-26.5199547-26.5100117-34.6499596-28.4600239-41.9999962-26.5700093z" opacity=".1"/><path d="m71.8816605 57.2487259 34.5546951 34.5546875c2.0170135 2.0170212 3.0216522 4.6686859 3.0216522 7.3127975.0075607 2.6516647-1.0046387 5.2957764-3.0216522 7.3127899-4.0417862 4.0417786-10.599205 4.041687-14.6332397.0076523l-34.5546914-34.5546875c4.0868759-.1435852 7.7357979-1.4958878 10.440403-4.2004929 2.6893845-2.6893844 4.0567169-6.3533401 4.192833-10.4327468z" fill="#3a556a"/><path d="m102.061409 95.2224808c-1.8874512-1.8875732-4.947998-1.8875732-6.8354492 0-1.8876953 1.8876953-1.8876953 4.947998 0 6.8356934 1.8874512 1.8874512 4.947998 1.8874512 6.8354492 0 1.8876953-1.8876954 1.8876953-4.9479981 0-6.8356934z" fill="#64798a"/><path d="m71.8816605 57.2487259 4.6006317 4.6006279c-1.2388763 3.3392525-3.1502075 6.4140282-5.6808853 8.9446983-2.5308609 2.5308685-5.6131897 4.4497604-8.9523544 5.6885376l-4.6006279-4.6006241c4.0868759-.1435852 7.7357979-1.4958878 10.440403-4.2004929 2.6893844-2.6893844 4.0567168-6.3533401 4.1928329-10.4327468z" fill="#2f4859"/><path d="m68.5343933 37.05867c2.032074 2.032074 3.6607437 4.4671745 4.7775116 7.1195526 3.4281311 8.1591606 1.4580688 18.1174011-4.77742 24.35289-6.2355804 6.2355804-16.1937256 8.2055511-24.3528862 4.77742-2.6523781-1.1167679-5.0875702-2.7453461-7.1196442-4.77742-5.7624054-5.7624054-7.7090836-13.8980865-5.8245106-21.2426758l12.1996403 12.1996422 9.4696312-.0079536 6.576786-6.576786.0077629-9.4694405-12.1996383-12.1996422c7.3446808-1.8846683 15.4803619.0620118 21.2427673 5.8244133z" fill="#64798a"/><path d="m66.20784 66.2045517c-.9996567 1.6438141-2.459713 3.0016251-4.1130905 4.037735-1.6559372 1.0397949-3.5168419 1.7752228-5.4480896 2.1515503-1.9298248.3847504-3.9312248.4044418-5.8574524.0683517-1.9225388-.3340988-3.7876091-1.0407486-5.3334389-2.1870499 1.8942299.2987823 3.6974754.4787598 5.4888916.4823608 1.7889519.0026474 3.5496902-.1830978 5.2800407-.515686 1.7287407-.3415833 3.4290771-.8365402 5.0852966-1.5134583 1.6578293-.6796569 3.2592316-1.5289763 4.8978425-2.5238036z" fill="#3a556a"/></svg>