<?xml version="1.0"?>
<svg xmlns="http://www.w3.org/2000/svg" xmlns:xlink="http://www.w3.org/1999/xlink" xmlns:svgjs="http://svgjs.com/svgjs" version="1.1" width="512" height="512" x="0" y="0" viewBox="0 0 140 140" style="enable-background:new 0 0 512 512" xml:space="preserve" class=""><g><circle xmlns="http://www.w3.org/2000/svg" cx="70" cy="70" fill="#4abba4" r="64" data-original="#4abba4" class=""/><path xmlns="http://www.w3.org/2000/svg" d="m105.9584656 57.1550217-.0599976-.0599365h-.0100098c-.8800049-.8100586-2.0300293-1.3100586-3.3200073-1.3100586h-3.1000366l-14.2199707-14.209961c-.8900146-1.2600098-2.3400269-2.0800781-3.9899902-2.0800781h-43.8300209c-2.7000122 0-4.8900146 2.1899414-4.8900146 4.8900146v28.1300049c0 1.5700684.75 2.9499512 1.9100342 3.8500977l-.0200195.0098877 6.5100098 6.5v3.0599365c0 .2900391.1300049.5200195.3200073.6801758l45.4931068 45.1550217c22.8821411-6.1911545 40.6708984-24.7470627 45.7610474-48.0610275l-26.4141846-26.4140625c-.0499879-.0500489-.0899659-.090088-.1399537-.1400147z" opacity=".1" fill="#000000" data-original="#000000"/><path xmlns="http://www.w3.org/2000/svg" d="m58.7409821 55.7866592h43.830307c2.7024765 0 4.8932571 2.1908302 4.8932571 4.8933067v28.1261711c0 2.7024765-2.1907806 4.8933029-4.8932571 4.8933029h-3.506752v8.5255432c0 .7743912-.9362411 1.162178-1.4838257.6146469l-9.1401902-9.14019h-29.6995391c-2.7024765 0-4.8932533-2.1908264-4.8932533-4.8933029v-28.1261711c-.0000001-2.7024765 2.1907768-4.8933068 4.8932533-4.8933068z" fill="#e56353" data-original="#e56353"/><path xmlns="http://www.w3.org/2000/svg" d="m81.2590179 39.4956474h-43.830307c-2.7024803 0-4.8932533 2.1908302-4.8932533 4.8933105v28.1261635c0 2.7024841 2.190773 4.8933105 4.8932533 4.8933105h3.506752v8.5255432c0 .7743912.9362411 1.162178 1.4838257.6146469l9.1401901-9.1401901h29.6995392c2.7024765 0 4.8932495-2.1908264 4.8932495-4.8933105v-28.1261634c.0000001-2.7024803-2.190773-4.8933106-4.8932495-4.8933106z" fill="#ededed" data-original="#ededed" class=""/><g xmlns="http://www.w3.org/2000/svg" fill="#4da0dc"><path d="m45.745388 65.7303619 5.5903091-14.5566444h2.075264l5.9576989 14.5566444h-2.194416l-1.6979446-4.4086952h-6.0867844l-1.5986519 4.4086952zm4.2001763-5.9775581h4.9349632l-1.5192146-4.0313759c-.4633751-1.2246399-.8075981-2.2308273-1.0326653-3.0185699-.1853523.9333763-.4468307 1.8601265-.7844315 2.780262z" fill="#ededed" data-original="#4da0dc" class=""/><path d="m60.9077339 65.7303619v-14.5566444h5.0144005c1.131958 0 1.9958267.0695038 2.5915985.208519.8340759.1919708 1.5456924.5395012 2.1348419 1.0425987.7678833.6487274 1.3421402 1.4778404 1.7227707 2.487339s.5709457 2.1629753.5709457 3.4604301c0 1.105484-.1290894 2.0851936-.3872528 2.9391327-.2581711.8539352-.5891495 1.560585-.9929504 2.1199493-.403801.5593605-.845665.9995651-1.3255844 1.3206253-.4799271.3210526-1.0591507.5643234-1.7376633.7298126-.6785202.1654968-1.4579849.2482376-2.3384018.2482376h-5.2527046zm1.926323-1.7178039h3.1079369c.9598465 0 1.7128372-.0893631 2.2589569-.2680931.5461273-.17873.981369-.4302788 1.3057327-.7546425.4567566-.4567566.812561-1.0707321 1.067421-1.8419228.2548523-.7711906.3822861-1.7062187.3822861-2.8050842 0-1.522522-.2498932-2.6925507-.7496796-3.5100784s-1.1071396-1.3653069-1.8220596-1.6433334c-.5163345-.1985893-1.3471069-.2978821-2.4923096-.2978821h-3.0582848z" fill="#ededed" data-original="#4da0dc" class=""/></g></g></svg>
