<?xml version="1.0" encoding="UTF-8" standalone="no"?>
<svg
   height="749"
   viewBox="0 0 1920 749"
   width="1920"
   version="1.1"
   id="svg14"
   sodipodi:docname="banner_heroes_default.svg"
   inkscape:version="1.1.1 (3bf5ae0d25, 2021-09-20)"
   xmlns:inkscape="http://www.inkscape.org/namespaces/inkscape"
   xmlns:sodipodi="http://sodipodi.sourceforge.net/DTD/sodipodi-0.dtd"
   xmlns:xlink="http://www.w3.org/1999/xlink"
   xmlns="http://www.w3.org/2000/svg"
   xmlns:svg="http://www.w3.org/2000/svg">
  <sodipodi:namedview
     id="namedview16"
     pagecolor="#ffffff"
     bordercolor="#666666"
     borderopacity="1.0"
     inkscape:pageshadow="2"
     inkscape:pageopacity="0.0"
     inkscape:pagecheckerboard="0"
     showgrid="false"
     inkscape:zoom="0.590625"
     inkscape:cx="960"
     inkscape:cy="375.02646"
     inkscape:window-width="1366"
     inkscape:window-height="715"
     inkscape:window-x="-8"
     inkscape:window-y="-8"
     inkscape:window-maximized="1"
     inkscape:current-layer="svg14" />
  <defs
     id="defs6">
    <path
       id="a"
       d="m0 0h1920v749h-1920z" />
    <mask
       id="b"
       fill="#fff">
      <use
         fill="#fff"
         fill-rule="evenodd"
         xlink:href="#a"
         id="use3" />
    </mask>
  </defs>
  <g
     fill="none"
     fill-rule="evenodd"
     id="g12">
    <use
       fill="#36576b"
       fill-rule="nonzero"
       xlink:href="#a"
       id="use8"
       style="fill:#0874aa;fill-opacity:1" />
    <path
       d="m3341 938.466-1537.519 41.694 1516.347-263.036-27.493-142.331-1507.085 346.379 1442.362-564.899-54.347-134.029-1404.837 639.492 1302.345-835.712-78.722-120.744-1262.595 909.092 1120.945-1085.68-100.459-102.581-1058.316 1139.946 890.125-1281.175-117.982-80.781-825.865 1333.387 628.834-1441.164-131.231-55.518-550.657 1466.828 342.352-1531.557-139.269-28.519-263.413 1554.707 41.001-1577.265h-142.042l40.832 1570.374-257.534-1548.753-139.351 28.08 339.119 1539.321-553.052-1473.216-131.227 55.518 626.107 1434.912-818.215-1330.23-118.218 80.418 890.052 1289.592-1062.949-1144.916-100.44 102.588 1116.053 1080.944-1254.306-909.138-79.103 120.495 1305.438 843.526-1410.953-642.275-54.355 134.033 1436.113 562.432-1499.485-349.672-27.928 142.252 1522.219 269.069-1544.296-41.888v145.061l1537.537-41.694-1516.372 263.046 27.497 142.318 1507.106-346.373-1442.391 564.896 54.355 134.033 1404.855-639.493-1302.36 835.709 78.722 120.758 1262.602-909.096-1120.948 1085.674 100.433 102.584 1058.334-1139.935-890.128 1281.157 117.978 80.795 825.897-1333.43-628.866 1441.2 131.231 55.525 550.668-1466.845-342.356 1531.564 139.266 28.519 263.427-1554.697-41.008 1577.258h142.042l-40.825-1570.407 257.53 1548.783 139.348-28.081-339.116-1539.317 553.049 1473.223 131.231-55.525-626.097-1434.887 818.204 1330.202 118.233-80.415-890.031-1289.567 1062.906 1144.88 100.448-102.584-1116.064-1080.941 1254.323 909.139 79.093-120.499-1305.478-843.548 1411.001 642.297 54.336-134.033-1436.084-562.443 1499.471 349.683 27.91-142.26-1522.072-269.043 1544.163 41.87z"
       fill="#fff"
       mask="url(#b)"
       opacity=".043"
       id="path10" />
  </g>
</svg>
