<svg enable-background="new 0 0 140 140" height="512" viewBox="0 0 140 140" width="512" xmlns="http://www.w3.org/2000/svg"><circle cx="70" cy="70" fill="#344d5b" r="64"/><path d="m105.3566971 57.3735085h-18.1500244l-34.1300049-14.4902344-9.5599976-9.5598145-.0100098.0100098c-.6400146-.8400879-1.6400146-1.3901367-2.7799683-1.3901367-1.9400024 0-3.5100098 1.5700684-3.5100098 3.5100098v65.4401855c0 1.0998535.5199585 2.0698242 1.3099976 2.7197266l-.0100098.0102539 30.6189575 30.3544846c.2890015.0039062.5744629.0219727.8643799.0219727 30.8936768 0 56.6724243-21.8903732 62.6775589-51.0056076l-24.4209061-24.4209023c-.7499998-.7399865-1.7700194-1.1999474-2.8999632-1.1999474z" opacity=".1"/><path d="m94.7450485 75.1265945v25.9842682c-.8224258 0-1.4891891.6667633-1.4891891 1.4892349v2.2389984c0 .7679596.6225052 1.390419 1.3904266 1.390419h6.2780914c.767868 0 1.3903732-.6224594 1.3903732-1.390419v-29.7125015z" fill="#ededed"/><path d="m105.3569641 57.3704109h-18.1484375l-43.5939026-18.5051193-.6522408-2.0342979v24.6351318 13.4143143 24.6351318l.6522408-2.0343018 43.5939026-18.5052032h18.1484375c2.2619781 0 4.0956192-1.8337402 4.0956192-4.0956268v-13.4143143-.0000916c0-2.2619781-1.833641-4.095623-4.0956192-4.095623z" fill="#4abba4"/><path d="m105.3569641 57.3704109h-17.7497482v21.6056557h17.7497482c2.2619781 0 4.0956192-1.8337402 4.0956192-4.0956268v-13.4144059c0-2.2619781-1.833641-4.095623-4.0956192-4.095623z" fill="#dd584d"/><path d="m40.7274017 31.9437656c-1.9406357 0-3.5138817 1.5732441-3.5138817 3.5139713v65.4310455c0 1.9407272 1.573246 3.5139694 3.5138817 3.5139694 1.9406815 0 3.5139275-1.5732422 3.5139275-3.5139694v-65.4310454c0-1.9407273-1.573246-3.5139714-3.5139275-3.5139714z" fill="#dbd8dd"/></svg>