<svg enable-background="new 0 0 140 140" height="512" viewBox="0 0 140 140" width="512" xmlns="http://www.w3.org/2000/svg"><circle cx="70" cy="70" fill="#de594e" r="64"/><path d="m133.9823761 70.6979675-31.1209106-31.1208496c-.0599976-.0700684-.1400146-.1398926-.210022-.2099609l-.1099854-.1101074-.0100098.0100098c-.8399658-.7399902-1.9400024-1.2099609-3.1499634-1.2099609h-1.0499878l-5.210022-5.2099609c-.1300049-.2399902-.3300171-.4399414-.5700073-.5700684-.2000122-.1098633-.4099731-.1699219-.6500244-.1699219-.7599487 0-1.3899536.6201172-1.3899536 1.3901367v4.5598145h-6.6900024l-5.5100098-5.5100098c-.0200195-.0200195-.039978-.0400391-.0599976-.0600586-.2399902-.2299805-.5800171-.3798828-.9500122-.3798828-.7700195 0-1.3900146.6201172-1.3900146 1.3901367v4.5598145h-6.6900024l-5.510006-5.5100098c-.2599487-.2700195-.6199951-.4399414-1.0099487-.4399414-.7700195 0-1.3900146.6201172-1.3900146 1.3901367v4.5598145h-6.7000122l-5.5100098-5.5200195c-.0199585-.0100098-.039978-.0300293-.0499878-.0500488h-.0100098c-.2399902-.2299805-.5800171-.3798828-.9500122-.3798828-.7599487 0-1.3899536.6201172-1.3899536 1.3901367v4.5598145h-6.0800171c-1.3300171 0-2.5200195.5400391-3.3900146 1.4099121-.3200073.3100586-.5700073.6801758-.789978 1.0800781-.2399902.4399414-.4299927.9199219-.5300293 1.4399414-.0499878.2800293-.0799561.5700684-.0799561.8601074v28.3498534l-2.710022 23.0600586c-.210022 1.7402344.9199829 3.25 2.710022 3.9101562v1.3798828c0 1.2700195.5 2.4101562 1.2999878 3.2700195l-.1400146.0400391 31.0945396 31.0944824c.6373901.0187988 1.2720947.0483398 1.9140015.0483398 35.1121826.0000001 63.6062622-28.2788085 63.9823608-63.3020019z" opacity=".1"/><path d="m99.3797607 38.0584793h-58.7596435c-2.6473389 0-4.793335 2.1464844-4.793335 4.793457v56.6967773c0 2.6469727 2.1459961 4.7929688 4.793335 4.7929688h58.7596436c2.6474609 0 4.793457-2.1459961 4.793457-4.7929688v-56.6967773c0-2.6469726-2.1459961-4.793457-4.7934571-4.793457z" fill="#dbd8dd"/><path d="m104.1731644 42.8519897c0-2.6469727-2.1459961-4.793457-4.793457-4.793457h-58.7595177c-2.6474609 0-4.793457 2.1464844-4.793457 4.793457v28.3481445h68.3464355v-28.3481445z" fill="#dbd8dd"/><path d="m35.8267288 71.2001343-2.7087021 23.0527878c-.2749977 2.3404236 1.8465767 4.2636642 4.7426987 4.2636642h64.27845c2.8961182 0 5.0177002-1.9232407 4.7426987-4.2636642l-2.7087021-23.0527878z" fill="#ededed"/><path d="m58.2633781 54.7196655c-.6700439 1.3500977-1.8099365 2.75-3.4200439 4.1801758-1.6099854 1.4399414-3.4899902 2.6699219-5.6398926 3.6801758v3.7099609c1.1999512-.4399414 2.5499268-1.1000977 4.0499268-1.9799805 1.5-.8803711 2.7200928-1.7700195 3.6400146-2.6499023v24.5h3.8499756v-31.4404297z" fill="#4288b9"/><path d="m75.4334183 82.4696655c.4299316-.699707.9699707-1.3999023 1.6298828-2.0898438.6501465-.6899414 2.130127-2 4.4400635-3.9399414 2.5799561-2.1801758 4.4799805-3.9301758 5.6900635-5.2402344.0799561-.0898438.1599121-.1796875.2399902-.2700195 1.1899414-1.3398438 2.0400391-2.6098633 2.5499268-3.8198242.5100098-1.2099609.7700195-2.449707.7700195-3.699707 0-2.4604492-.8800049-4.5302734-2.6300049-6.1904297-1.75-1.6699219-4.1300049-2.5-7.1300049-2.5-2.9799805 0-5.3499756.7700195-7.1199951 2.3100586-1.7600098 1.550293-2.7800293 3.800293-3.0500488 6.7402344l3.9500732.409668c.0198975-1.9697266.5799561-3.5 1.6900635-4.6098633 1.1098633-1.1201172 2.5898438-1.6699219 4.4399414-1.6699219 1.75 0 3.1699219.5200195 4.2600098 1.5698242 1.0899658 1.050293 1.6398926 2.3300781 1.6398926 3.8603516 0 1.449707-.5998535 2.9897461-1.7999268 4.6196289-.6600342.9101562-1.6600342 1.9902344-3.0100098 3.25-1.0799561 1.0102539-2.3800049 2.1401367-3.8900146 3.3803711-2.1899414 1.7998047-3.8699951 3.3798828-5.0300293 4.75-1.1599121 1.3598633-2 2.75-2.5300293 4.159668-.329834.8603516-.4799805 1.75-.4499512 2.6704102h20.6999512v-3.6904297h-15.3598633z" fill="#4288b9"/><g fill="#b1b2b6"><circle cx="48.095" cy="42.881" r="2.913"/><circle cx="62.698" cy="42.881" r="2.913"/><circle cx="77.302" cy="42.881" r="2.913"/><circle cx="91.905" cy="42.881" r="2.913"/></g><g fill="#344d5b"><path d="m48.0948219 32.1095047c-.7675781 0-1.3898926.6220703-1.3898926 1.3896484v9.1186523c0 .7675781.6223145 1.3896484 1.3898926 1.3896484s1.3896484-.6220703 1.3896484-1.3896484v-9.1186523c.0000001-.7675781-.6220702-1.3896484-1.3896484-1.3896484z"/><path d="m62.6983223 32.1095047c-.7675781 0-1.3898926.6220703-1.3898926 1.3896484v9.1186523c0 .7675781.6223145 1.3896484 1.3898926 1.3896484s1.3896446-.6220703 1.3896446-1.3896484v-9.1186523c0-.7675781-.6220665-1.3896484-1.3896446-1.3896484z"/><path d="m77.3018188 32.1095047c-.7675781 0-1.3898926.6220703-1.3898926 1.3896484v9.1186523c0 .7675781.6223145 1.3896484 1.3898926 1.3896484s1.3896484-.6220703 1.3896484-1.3896484v-9.1186523c.0000001-.7675781-.6220702-1.3896484-1.3896484-1.3896484z"/><path d="m91.9053192 32.1095047c-.7675781 0-1.3898926.6220703-1.3898926 1.3896484v9.1186523c0 .7675781.6223145 1.3896484 1.3898926 1.3896484s1.3896484-.6220703 1.3896484-1.3896484v-9.1186523c.0000001-.7675781-.6220703-1.3896484-1.3896484-1.3896484z"/></g><path d="m58.2633781 54.7196655h2.4799805v16.4799805h-3.8499756v-9.5395508c-.9199219.8798828-2.1400146 1.7695312-3.6400146 2.6499023-1.5.8798828-2.8499756 1.5400391-4.0499268 1.9799805v-3.7099609c2.1499023-1.0102539 4.0299072-2.2402344 5.6398926-3.6801758 1.6101074-1.4301758 2.75-2.8300781 3.4200439-4.1801758z" fill="#4da0dc"/><path d="m90.7533646 63.4100952c0 1.25-.2600098 2.4897461-.7700195 3.699707-.5098877 1.2099609-1.3599854 2.4799805-2.5499268 3.8198242-.0800781.090332-.1600342.1801758-.2399902.2700195h-5.2000732c1.3499756-1.2597656 2.3499756-2.3398438 3.0100098-3.25 1.2000732-1.6298828 1.7999268-3.1699219 1.7999268-4.6196289 0-1.5302734-.5499268-2.8100586-1.6398926-3.8603516-1.0900879-1.0498047-2.5100098-1.5698242-4.2600098-1.5698242-1.8500977 0-3.3300781.5498047-4.4399414 1.6699219-1.1101074 1.1098633-1.670166 2.6401367-1.6900635 4.6098633l-3.9500732-.409668c.2700195-2.9399414 1.2900391-5.1899414 3.0500488-6.7402344 1.7700195-1.5400391 4.1400146-2.3100586 7.1199951-2.3100586 3 0 5.3800049.8300781 7.1300049 2.5 1.7499999 1.6601564 2.6300048 3.7299806 2.6300048 6.1904298z" fill="#4da0dc"/></svg>