<svg enable-background="new 0 0 140 140" height="512" viewBox="0 0 140 140" width="512" xmlns="http://www.w3.org/2000/svg"><circle cx="70" cy="70" fill="#4abba4" r="64"/><path d="m97.2906952 40.1405869c-.1199951-.1300049-.25-.2299805-.3900146-.3200684l-7.25-4.4399414c-.4500122-.2700195-.9599609-.3800049-1.4500122-.3200684l-11.0599976-11.0599365c-1.3599854-1.5499268-3.3499756-2.5300293-5.5799561-2.5300293-4.1100464 0-7.4400024 3.3299561-7.4400024 7.4400635 0 2.25 1 4.2600098 2.5700073 5.619873l1.75 1.75v3.5600586c-2.3500366.1999512-4.6400185.6300049-6.8400307 1.2700195l-4.960022-4.9599609c-.6699829-1.0900879-2.0899658-1.4300537-3.1799927-.7700195l-7.25 4.4399414c-1.0800171.6700439-1.4299927 2.0900879-.7600098 3.1800537.1400146.2299805.3200073.4300537.5200195.5799561l3.6300049 3.6300049c-8.4700317 6.5699463-13.9299927 16.8299561-13.9299927 28.3699951 0 9.4200439 3.6300049 18 9.5700073 24.4000244l-.0200195.0200195.960022.9599609 32.4444618 32.4444656c29.1506958-3.9294434 52.0812378-27.4665604 55.0482788-56.9116287l-36.3727415-36.3728027z" opacity=".1"/><path d="m68.445168 35.042591h6.227381v6.055438h-6.227381z" fill="#64798a"/><path d="m71.5588531 21.4680233c-4.1070099 0-7.435524 3.3374691-7.435524 7.4444809 0 4.1069584 3.3285141 7.4355259 7.435524 7.4355259 4.1070175 0 7.4355316-3.3285675 7.4355316-7.4355259.0000001-4.1070118-3.328514-7.4444809-7.4355316-7.4444809zm0 11.6701565c-2.3304596 0-4.2257233-1.8952179-4.2257233-4.2256813s1.8952637-4.2257252 4.2257233-4.2257252c2.3304672 0 4.2257309 1.8952618 4.2257309 4.2257252s-1.8952636 4.2256813-4.2257309 4.2256813z" fill="#3a556a"/><path d="m53.4627037 35.3831711-7.2478867 4.4406471c-1.0876656.6663933-1.4292259 2.0883369-.7627945 3.1760597.6663933 1.0876694 2.0883904 1.4291916 3.1760597.7627983l1.6025734-.9818687 2.6070023 4.2550697 4.0427399-2.4769096-2.6070023-4.2550697 1.6025734-.9818687c1.0876656-.6663933 1.4291916-2.0883904.7627983-3.1760597-.6664276-1.0877229-2.0883941-1.4291917-3.1760635-.7627984z" fill="#344d5b"/><path d="m89.6550064 35.3831711 7.2478867 4.4406471c1.0876694.6663933 1.4292297 2.0883369.7628021 3.1760597-.6663971 1.0876694-2.0883942 1.4291916-3.1760635.7627983l-1.6025696-.9818687-2.6070023 4.2550697-4.0427399-2.4769096 2.6069946-4.2550697-1.6025696-.9818687c-1.0876694-.6663933-1.4291916-2.0883904-.7627945-3.1760597.6664277-1.0877229 2.0883943-1.4291917 3.176056-.7627984z" fill="#344d5b"/><circle cx="71.559" cy="75.582" fill="#64798a" r="35.886"/><path d="m103.6288605 75.5780106c0 17.6900024-14.3900146 32.0700073-32.0700073 32.0700073s-32.0700036-14.3800049-32.0700036-32.0700073c0-17.2399902 13.6799927-31.3400269 30.7399864-32.039978.4400024-.0200195.8900146-.0300293 1.3300171-.0300293s.8900146.0100098 1.3300171.0300293c17.0599976.6999511 30.7399903 14.7999877 30.7399903 32.039978z" fill="#ebf0f3"/><g fill="#d5d6db"><path d="m72.8888702 43.5380325v3.3083076c0 .7345505-.5954666 1.3300171-1.3300095 1.3300171h-.0000076c-.7345428 0-1.3300171-.5954666-1.3300171-1.3300171v-3.3083076c.4400024-.0200195.8900146-.0300293 1.3300171-.0300293s.8900147.0100098 1.3300171.0300293z"/><path d="m56.6888428 47.1660614 1.6541557 2.8650818c.3672752.6361351.1493187 1.4495621-.4868202 1.8168335v.0000038c-.6361389.3672714-1.4495621.1493149-1.8168373-.4868202l-1.6541557-2.8650818c.3710442-.237339.7557602-.4710121 1.1368141-.6910133s.7757797-.4363404 1.1668434-.6390038z"/><path d="m44.4732208 58.4080429 2.8650818 1.6541557c.6361351.3672752.8540916 1.1806984.4868202 1.8168373h-.0000038c-.3672714.6361389-1.1806984.8540955-1.8168335.4868202l-2.8650818-1.6541557c.2026634-.3910637.4190025-.7857895.6390038-1.1668434s.4536743-.7657699.6910133-1.1368141z"/><path d="m39.5151749 74.2516937h3.3083076c.7345505 0 1.3300171.5954742 1.3300171 1.3300171v.0000076c0 .7345428-.5954666 1.3300095-1.3300171 1.3300095h-3.3083076c-.0200195-.4400024-.0300293-.8900146-.0300293-1.3300171s.0100097-.8900146.0300293-1.3300171z"/><path d="m43.1432037 90.4517288 2.8650818-1.6541595c.6361351-.3672714 1.4495621-.1493149 1.8168335.486824h.0000038c.3672714.6361389.1493149 1.4495621-.4868202 1.8168335l-2.8650818 1.6541595c-.237339-.371048-.4710121-.7557602-.6910133-1.1368179-.2200012-.3810501-.4363403-.7757797-.6390038-1.1668396z"/><path d="m54.3851852 102.6673508 1.6541557-2.8650818c.3672752-.6361389 1.1806984-.8540955 1.8168373-.4868164.6361389.3672714.8540955 1.1806946.4868202 1.8168335l-1.6541557 2.8650818c-.3910637-.2026672-.7857895-.4189987-1.1668434-.6389999s-.7657699-.453682-1.1368141-.6910172z"/><path d="m70.2288361 107.6253967v-3.3083115c0-.7345428.5954742-1.3300171 1.3300171-1.3300171h.0000076c.7345428 0 1.3300095.5954742 1.3300095 1.3300171v3.3083115c-.4400024.0200195-.8900146.0300293-1.3300171.0300293s-.8900147-.0100097-1.3300171-.0300293z"/><path d="m86.4288712 103.9973679-1.6541595-2.8650818c-.3672714-.6361389-.1493149-1.4495621.486824-1.8168335.6361389-.3672791 1.4495621-.1493225 1.8168335.4868164l1.6541595 2.8650818c-.371048.2373352-.7557602.4710159-1.1368179.6910172-.3810502.2200011-.7757798.4363326-1.1668396.6389999z"/><path d="m98.6444931 92.7553864-2.8650818-1.6541595c-.6361389-.3672714-.8540955-1.1806946-.4868164-1.8168335.3672714-.6361389 1.1806946-.8540955 1.8168335-.486824l2.8650818 1.6541595c-.2026672.3910599-.4189987.7857895-.6389999 1.1668396-.2200013.3810577-.453682.7657699-.6910172 1.1368179z"/><path d="m103.6025391 76.9117279h-3.3083115c-.7345428 0-1.3300171-.5954666-1.3300171-1.3300095v-.0000076c0-.7345428.5954742-1.3300171 1.3300171-1.3300171h3.3083115c.0200195.4400024.0300293.8900146.0300293 1.3300171s-.0100098.8900147-.0300293 1.3300171z"/><path d="m99.9745102 60.7117004-2.8650818 1.6541557c-.6361389.3672752-1.4495621.1493187-1.8168335-.4868202-.3672791-.6361389-.1493225-1.4495621.4868164-1.8168373l2.8650818-1.6541557c.2373352.3710442.4710159.7557602.6910172 1.1368141s.4363327.7757797.6389999 1.1668434z"/><path d="m88.7325287 48.4960785-1.6541595 2.8650818c-.3672714.6361351-1.1806946.8540916-1.8168335.4868202v-.0000038c-.6361389-.3672714-.8540955-1.1806984-.486824-1.8168335l1.6541595-2.8650818c.3910599.2026634.7857895.4190025 1.1668396.6390038.3810577.2200012.7657699.4536743 1.1368179.6910133z"/></g><circle cx="71.559" cy="75.41" fill="#feda6f" r="14.298"/><ellipse cx="71.559" cy="75.41" fill="#f2c144" rx="11.15" ry="11.15" transform="matrix(.987 -.16 .16 .987 -11.155 12.436)"/><path d="m71.122467 83.6472855v-1.636467c-.8182297-.103035-1.4834213-.286377-1.995575-.5500259-.512146-.2636566-.9545975-.6894379-1.3273468-1.2773514s-.5894318-1.3061371-.6500397-2.1546707l1.6455536-.3091125c.1272812.8788452.351532 1.5243378.6727676 1.9364777.4606323.5818558 1.0121765.9061127 1.6546402.9727859v-5.2093964c-.6727676-.1272812-1.3606873-.3879013-2.0637589-.781868-.5212402-.2909241-.9227829-.6939774-1.2046127-1.2091599-.2818375-.5151825-.4227524-1.1000671-.4227524-1.7546463 0-1.1637039.4121399-2.1061859 1.2364349-2.8274384.5515442-.4848785 1.3697739-.781868 2.454689-.8909683v-.7818603h.9636917v.7818604c.9515762.0909195 1.7061615.3697205 2.2637711.8364182.7151947.5939713 1.1455231 1.4091721 1.2909851 2.4455948l-1.6910095.2545624c-.0969772-.6424637-.2985001-1.1349182-.6045761-1.477356-.3060837-.3424454-.7258072-.568222-1.2591705-.6773148v4.7184601c.824295.2060699 1.3697815.366684 1.6364594.481842.5091248.2242584.9243011.4970016 1.2455292.8182297.3212357.3212357.5682144.7030716.7409515 1.1455231s.2591095.9212723.2591095 1.4364471c0 1.1334-.3606262 2.0789108-1.0818863 2.8365326-.7212524.7576218-1.6546402 1.1637039-2.8001633 1.2182541v1.6546478zm0-14.3281174c-.6363983.0969696-1.1379471.351532-1.504631.7636795-.3666916.4121475-.5500336.9000549-.5500336 1.4637222 0 .5576096.1560669 1.0242996.4682083 1.4000778.3121414.3757858.8409576.6758041 1.5864563.9000549zm.9636918 11.3097534c.6364059-.0787888 1.1621933-.3545685 1.5773697-.8273239s.6227646-1.0576324.6227646-1.7546463c0-.5939713-.1469803-1.0712738-.4409409-1.4319-.2939529-.3606262-.8803482-.6833725-1.7591934-.9682388z" fill="#fed35b"/></svg>