<svg enable-background="new 0 0 140 140" height="512" viewBox="0 0 140 140" width="512" xmlns="http://www.w3.org/2000/svg"><circle cx="70" cy="70" fill="#dad7dc" r="64"/><path d="m32.7800293 96.8398438v-2.0800781c-1.3400269-1.699707-2.4700317-3.5795898-2.5800171-5.1699219l-.6199951-.6298828c-.4800415-.459961-.8200073-1.4399415-.8200073-2.5800782 0-.699707.1300049-1.4199219.3300171-2.0297852-.1400147-1.5600585-.0700074-3.3500976.5099487-5.090332 0 0 1-4.5996094 6.4000244-5.3696289 0 0 2.9899902-.550293 5.6599731 2.3896484l1.960022 1.9702149c.2399902.1699219.4899902.3999023.75.6801758l5.5599976 5.5698242v-.7402344c0-.6396484.5100098-1.1499023 1.1500244-1.1499023h2.0599976c.2799683-1.3100586.7399902-2.5400391 1.3599854-3.6899414l-1.5900269-1.5898438h.0200195c-.3999634-.4199219-.4299927-1.0800781-.0499878-1.5302734l2.3399658-2.7197266c.4200439-.4799805 1.1500244-.5302734 1.6300049-.1201172l1.5700073 1.3598633c1.2700195-.9599609 2.7000122-1.7099609 4.25-2.2099609l-12.6699829-12.6699219.0499878-.6499023c.2600098-3.4501953 3.1400146-6.1499023 6.6199951-6.1499023h.0499878c.1000366-.4902344.2400513-1 .460022-1.5800781 0 0 2.4500122-3.2700195-.6599731-10.5200195 0 0-1.7900391-5.4902344 1.8200073-9.9399414 2.8099976-3.4501953 7.5699463-4.7602539 11.6699829-3.0302734 1.1799927.5 2.3599854 1.2802734 3.3999634 2.4702148l58 58c-7.7899781 26.5600585-32.3299561 45.9599608-61.4099732 45.9599608-9.3400269 0-18.210022-2.0200195-26.210022-5.6201172l-22.0099487-22 .039978-.0097656c-1.1400146-1.1899414-2.1500244-2.5-2.9899902-3.9301758 2.3999634-2.25 10.8899536-4.1401367 11.1799927-4.2099609h.0100098l2.7399902-1.3999023z" opacity=".1"/><path d="m67.2812347 58.3891411c4.0581055 0 7.7969666-2.7856369 10.1021881-5.7643776-.3390274-.0332222-1.1718063-.2137222-1.4940338-.2960243-2.1479797 2.5611877-4.9379578 3.0146294-8.5420761 3.0146294-3.604126 0-6.8911324-.3478622-9.0391083-2.90905-.3222237.0823021-.6512451.1472397-.9902687.1804619 2.3052178 2.9787406 5.9051896 5.7743606 9.9632988 5.7743606z" fill="#e6e7e8"/><path d="m84.5558701 59.4471703c-2.0888367 2.0146027-4.5244675 3.657608-7.2077866 4.8383141-.1734009.0825424-.3550186.1568222-.5366821.2312012-2.9309998 1.2219238-6.1509933 1.8906326-9.5278168 1.8906326-3.376873 0-6.5968208-.6687088-9.5360832-1.8906326-.1816673-.074379-.3632812-.1486588-.5366821-.2312012-2.6833153-1.180706-5.1189537-2.8319778-7.2077827-4.8464775l.0495338-.6440201c.2559471-3.4594688 3.1374054-6.1510468 6.6133499-6.1510468.2228889 0 .437561-.0082664.6522331-.032959 2.3035088 2.9805336 5.9033165 4.9125938 9.9654312 4.9125938 4.0538483 0 7.6536102-1.9320602 9.9571609-4.9125938.2146759.0246925.437561.032959.6522369.032959 3.4759445 0 6.3656693 2.6915779 6.6133499 6.1510468z" fill="#d5693c"/><path d="m71.2670441 46.0187035v-2.038681h-7.9716225v2.038681c0 3.0933228-2.1217384 5.6841469-4.9872169 6.4156151 2.1479759 2.5611877 5.3689041 4.1921349 8.9730301 4.1921349 3.6041183 0 6.8250504-1.6309471 8.9730225-4.1921349-2.8652879-.7314683-4.9872132-3.3222924-4.9872132-6.4156151z" fill="#ffd25a"/><path d="m61.2381325 58.3891411s-6.8277702-.071125-4.0539894-7.3256302c0 0 2.4436607-3.2716408-.6629181-10.5261459 0 0-1.7880478-5.4854126 1.8210449-9.9343662 2.8037682-3.4562244 7.5702057-4.7676144 11.6674728-3.0300903 1.9211884.8147163 3.8605576 2.3582993 5.1483078 5.2120914 0 0 4.0638123 9.0126076-2.6979294 17.0191879l-1.5435944-2.3475494-7.8088989.1276512s.9662094 3.8311386-1.3808365 5.6803284c-2.3470458 1.8491859-.9153937 4.057682-.4886588 5.1245231z" fill="#304651"/><path d="m75.1580505 38.510231c-1.4194412 8.3908653-6.0916443 10.5431519-7.6800156 11.0389481-.3472366.108387-.7208023.1083908-1.0680389.0000076-1.5884323-.4957809-6.2611923-2.6480446-7.6836319-11.0389557l1.6398888-6.3129578h13.1518822z" fill="#fdd96f"/><path d="m60.5269051 44.3779869s.1144447.1373291.3154564.3516045c.5913124.6303139 1.9317513 1.9264221 3.3117981 2.3510551 0 0-4.2673569-2.4892921-3.6272545-9.1748161 0 0 3.6272545 0 6.1165428-2.0625572 0 0-.8534698 1.9914322-4.3384781 2.9160271 0 0 4.5518494.8534698 7.1122589-3.2005157 0 0-.6115723 2.2759209-2.4750214 3.0582695 0 0 2.5972824-.2259254 5.177681-3.4850082 0 0 3.2716446 2.6998634.9957199 7.4664764 0 0 .8686142-.8674774 1.4040527-1.7162056.0579605-.0918694.1120148-.1835213.1606445-.2738304.4978561-.9245911 0 3.3427658 0 3.3427658l1.2090836-5.5475655-2.2808151-6.5970478-8.1030884-.2307224h-5.7307167l-1.7371521 4.836338.6887474 4.5287895z" fill="#304651"/><path d="m91.171608 98.9796829c.4216843 2.6224365 2.693985 4.6343155 5.4334793 4.6343155 2.7395248 0 5.0118637-2.011879 5.4335098-4.6343765-.9671631-.6730423-.9235992-1.5986252-.9235992-1.5986252v-2.8665085h-9.0197525l-.0224533 2.9494629s.0660476.842659-.9011841 1.5157318z" fill="#d6b24e"/><path d="m103.7131729 83.2592392c-.0015488 0-.0030365.491684-.0045242.491684-.095993-3.9095306-3.2539749-7.5690384-7.103508-7.5690384s-7.007576 3.6595078-7.103508 7.5690384c-.0014877 0-.0029755-.491684-.0045242-.491684-.7848663 0-1.4210663 1.7734909-1.4210663 3.3554916s.6362 2.8642883 1.4210663 2.8642883v.1022568c0 1.9541702 1.7023621 4.4267426 3.440834 6.4421692 1.9383774 2.2472153 5.3959579 2.2472153 7.334343 0 1.7385254-2.0154266 3.4408875-4.487999 3.4408875-6.4421692v-.1022568c.7848053 0 1.4210587-1.2822876 1.4210587-2.8642883s-.6362535-3.3554916-1.4210588-3.3554916z" fill="#ffd25a"/><path d="m102.2578964 101.6310501-1.2848816 3.7836304-2.6336288 7.7163849c-.0213165.0071106-.0425873.0142136-.0639038.0071106-.0496979.007103-.0993958.0142136-.1561584.007103l-.3336639-.7596207-.7311554-1.6752167-.0781174-7.1130142-.0283813-2.3994827.9441528-.9653397.4969254-.5040741 1.9450684.9583206h.007103l.8660355.4260025.6672821.3265152z" fill="#e6e7e8"/><path d="m115.049942 102.6816559c-2.9886093 5.0614471-8.0003586 8.7812119-13.9278336 10.0447311-.6886063.1491318-1.3842773.2698441-2.0941544.3408203l.9086609-3.0737534 1.0363998-4.5787735.007103-.0496597.894455-3.9256516.2342758-1.0009537 1.7604904-1.966301h.007103c.2910309.0637819 8.7883149 1.9663011 11.1735001 4.2095415z" fill="#344e5c"/><path d="m101.1280212 97.0660782-4.5276107 2.3578186 3.5316848 2.2056808z" fill="#dad7dc"/><path d="m96.2523422 101.1979446-.0284271 2.3994827-.0780716 7.1130142-.7311554 1.6752167-.3336639.7596207c-.0496979.0071106-.1065063 0-.1561584-.007103-.0213165.007103-.0425873 0-.0639038-.0071106l-2.6620483-7.8086777v-.007103l-1.2565079-3.6842346.3762589-.1845779.6815033-.3336182.8660278-.4260025 1.9450684-.9583206.4969254.5040741z" fill="#e6e7e8"/><path d="m94.1865616 113.0672073c-.71698-.0709763-1.419754-.1916885-2.1083221-.3408203-5.9275208-1.2706223-10.93927-4.990387-13.9278336-10.0447311 2.3993912-2.250351 10.8824234-4.1457596 11.1735001-4.2095413h.007103l1.7604904 1.966301.2271652 1.0009537v.007103l.880249 3.8688126v.007103l1.0648193 4.6710663z" fill="#344e5c"/><path d="m92.0727921 97.0660782 4.5276184 2.3578186-3.5316849 2.2056808z" fill="#dad7dc"/><path d="m98.2754822 113.138176c-.0496979.007103-.0993958.0142136-.1561584.007103-.1632996.0213165-.3336639.0355301-.5111313.0355301-.3336258.0213165-.6672897.0283356-1.0080185.0283356s-.6743927-.007019-1.0080185-.0283356c-.1704025 0-.3407669-.0142136-.5111313-.0355301-.0496979.0071106-.1065063 0-.1561584-.007103l.1703644-2.2148209.5821075-7.3969803.1135635-1.4410782-.8447571-1.6255646.3620453-.2271271 1.2919846-.8022537 1.2919846.8022537.3620453.2271271-.8447571 1.6255646.1135635 1.4481812.5821075 7.3898773z" fill="#f37735"/><path d="m95.5921555 113.180809c-.1704025 0-.3407669-.0142136-.5111313-.0355301-.0496979.0071106-.1065063 0-.1561584-.007103-.0213165.007103-.0425873 0-.0639038-.0071106-.2271652-.007103-.4472275-.0284195-.6744003-.063858-.71698-.0709763-1.419754-.1916885-2.1083221-.3408203l-3.4500046-6.6585922 2.0302505-1.185524-2.3142166-1.2777328.9796371-5.1324234h.007103l2.7401276-1.405632h.007103v.007103l.0141678.0567627.7737885 3.5565033.2058563.9441986.1774673.8233948v.0071106l1.8457108 8.4617996.319458 1.4623032z" fill="#293b44"/><path d="m102.5418625 104.8822708 2.0302505 1.185524-3.4500046 6.6585922c-.6886063.1491318-1.3842773.2698441-2.0941544.3408203-.2271729.0283356-.4543381.0567551-.6885681.063858-.0213165.0071106-.0425873.0142136-.0639038.0071106-.0496979.007103-.0993958.0142136-.1561584.007103-.1632996.0213165-.3336639.0355301-.5111313.0355301l.1774673-.7951508.319458-1.4623032 1.838562-8.4475937.1845779-.8518143.2058945-.9370956.7808456-3.5848389.0071106-.0284271v-.007103h.007103l2.7401276 1.405632h.007103l.9867477 5.1324234z" fill="#293b44"/><path d="m88.2546844 85.4239044c.268074 1.0186768.8300858 1.7997208.9034348 3.5348587h.4564896c-.1238785-.7431564-.303772-2.6072311.3037643-5.4280167 0 0 1.3768463-.1147614 2.868454-1.6636353 0 0-.4016037 1.2045822-1.3768463 1.8357162 0 0 2.2947693-.7457733 4.9910812-3.3847046 0 0-.2294693 1.6061935-2.868454 3.2126236 0 0 3.671669-.5736923 5.5074387-2.9832153 0 0-.7457733 1.6637497-2.5242233 2.6963654 0 0 3.499527-.5736847 5.0484543-3.5569077 0 0 1.4916077-.172081 1.6637497 2.4095306.1720886 2.581604.1147079 3.3273849.631012 3.7289886l-.256813 3.133255h.3245087c.1672516-.873291.622963-3.043045 1.079689-3.3627777 0 0 1.4916077-7.2284622-1.6636887-8.6053619 0 0-1.090004-4.7616119-8.4332275-2.9831009-7.343277 1.7783966-7.0564346 6.8268509-7.0564346 6.8268509s.1147612 3.4995882.4016111 4.5895311z" fill="#344e5c"/><path d="m31.8557148 98.7405548c.4216824 2.6224289 2.6939831 4.6343079 5.4334774 4.6343079 2.7395287 0 5.0118599-2.011879 5.4335136-4.6343765-.9671631-.6730347-.9236031-1.5986176-.9236031-1.5986176v-2.8665161h-9.0197563l-.0224457 3.0726318c.0000001 0 .0660401.7194977-.9011859 1.3925705z" fill="#d6b24e"/><path d="m44.3972816 83.0201035c-.0015488 0-.0030403.4916916-.004528.4916916-.095993-3.9095383-3.2539749-7.5690384-7.103508-7.5690384s-7.0075741 3.6595001-7.103508 7.5690384c-.0014896 0-.0029793-.4916916-.004528-.4916916-.7848625 0-1.4210587 1.7734985-1.4210587 3.3554993s.6361961 2.8642807 1.4210587 2.8642807v.1022644c0 1.9541702 1.7023621 4.4267426 3.440834 6.4421692 1.9383812 2.2472076 5.3959618 2.2472076 7.334343 0 1.7385292-2.0154266 3.4408951-4.487999 3.4408951-6.4421692v-.1022644c.7848015 0 1.4210587-1.28228 1.4210587-2.8642807s-.6362573-3.3554993-1.4210588-3.3554993z" fill="#ffd25a"/><path d="m42.9420013 101.391922-1.2848816 3.7836227-2.633625 7.7163925c-.0213203.0071106-.0425911.0142136-.0639114.0071106-.0496941.007103-.0993919.0142059-.1561508.007103l-.3336678-.7596207-.7311516-1.6752167-.0781212-7.1130142-.0283775-2.3994827.944149-.9653397.4969254-.5040741 1.9450645.9583206h.0071068l.8660316.4259949.6672897.3265228z" fill="#e6e7e8"/><path d="m55.7340508 102.4425278c-2.9886093 5.0614471-8.0003624 8.7812119-13.9278412 10.0447311-.6886063.1491318-1.3842735.2698441-2.0941544.3408127l.9086685-3.0737457 1.036396-4.5787811.0071068-.0496521.894455-3.9256516.234272-1.0009613 1.7604866-1.9662933h.0071068c.2910309.0637817 8.7883186 1.9662933 11.1735039 4.2095413z" fill="#4388b9"/><path d="m41.8121262 96.8269501-4.5276146 2.3578186 3.5316848 2.2056732z" fill="#dad7dc"/><path d="m36.9364433 100.9588165-.0284233 2.3994827-.0780754 7.1130142-.7311516 1.6752167-.3336678.7596207c-.0496979.007103-.1064987 0-.1561546-.007103-.0213165.007103-.0425911 0-.0639076-.0071106l-2.6620483-7.8086777v-.007103l-1.2565022-3.6842346.3762569-.1845779.6814995-.3336258.8660355-.4259949 1.9450645-.9583206.4969215.5040741z" fill="#e6e7e8"/><path d="m34.8706703 112.8280716c-.7169876-.0709686-1.4197617-.1916809-2.1083221-.3408127-5.9275246-1.2706223-10.9392738-4.990387-13.9278412-10.0447311 2.3993969-2.250351 10.8824272-4.1457596 11.173502-4.2095413h.0071068l1.7604885 1.9662933.2271652 1.0009613v.007103l.8802452 3.8688126v.007103l1.0648193 4.6710663z" fill="#4388b9"/><path d="m32.7569008 96.8269501 4.5276108 2.3578186-3.5316849 2.2056732z" fill="#dad7dc"/><path d="m38.9595833 112.8990479c-.0496941.007103-.0993919.0142059-.1561508.007103-.1633034.0213165-.3336678.0355301-.5111351.0355301-.3336258.0213165-.6672897.0283356-1.0080185.0283356s-.6743965-.007019-1.0080185-.0283356c-.1704063 0-.3407707-.0142136-.5111351-.0355301-.0496979.007103-.1064987 0-.1561546-.007103l.1703644-2.2148285.5821075-7.3969727.1135635-1.4410782-.8447609-1.6255646.3620453-.2271271 1.2919884-.8022537 1.2919846.8022537.3620491.2271271-.8447609 1.6255646.1135635 1.4481812.5821037 7.3898697z" fill="#db584d"/><path d="m36.2762604 112.9416809c-.1704063 0-.3407707-.0142136-.5111351-.0355301-.0496979.007103-.1064987 0-.1561546-.007103-.0213165.007103-.0425911 0-.0639076-.0071106-.2271652-.007103-.4472275-.0284195-.6743927-.0638657-.7169876-.0709686-1.4197617-.1916809-2.1083221-.3408127l-3.4500065-6.6585922 2.0302448-1.1855316-2.3142147-1.2777252.9796371-5.1324234h.0071068l2.7401257-1.405632h.0071068v.007103l.0141678.0567627.7737885 3.5565033.2058487.9441986.1774712.8233948v.0071106l1.8457108 8.461792.319458 1.4623108z" fill="#509fd7"/><path d="m43.2259712 104.6431351 2.0302429 1.1855316-3.4500046 6.6585922c-.6886063.1491318-1.3842735.2698441-2.0941544.3408127-.2271652.0283356-.4543343.0567627-.6885605.0638657-.0213203.0071106-.0425911.0142136-.0639114.0071106-.0496941.007103-.0993919.0142059-.1561508.007103-.1633034.0213165-.3336678.0355301-.5111351.0355301l.1774673-.7951508.3194542-1.4623108 1.8385658-8.4475861.1845779-.8518219.2058907-.937088.7808495-3.5848389.0071068-.0284271v-.007103h.0071068l2.7401237 1.405632h.0071068l.9867439 5.1324234z" fill="#509fd7"/><path d="m30.2365551 89.1612167s-2.2252769-5.1000366-.6357937-9.902977c0 0 .9991055-4.5965958 6.403347-5.3682251 0 0 3.9055901-.7221069 6.7666588 3.8827744 0 0 5.5404854 1.8320541 1.7711411 11.3884277 0 0 .5002174-2.3863602-.4534721-4.2679291-.9536896-1.8815613-1.1373711-3.3882523-1.1373711-3.3882523s-.8615036-1.306015-3.4955063-.7613525c-2.6339989.5446701-5.0863457-.1485443-5.0863457-.1485443s-2.6340008-.8912659-2.8156567 2.3767166c0 0-.4541378 2.1291428-.9991035 2.8718643s-.3178978 3.3174973-.3178978 3.3174973z" fill="#344e5c"/><path d="m82.8066254 82.6056061h-2.0662308c-.3141708-1.4791412-.8670807-2.8666-1.6049271-4.1347656l1.5382996-1.3943558c.4716568-.4275436.5074768-1.1564331.0800171-1.6276855l-2.4057007-2.6546326c-.4275436-.4712524-1.1564331-.5074005-1.6280975-.0795288l-1.5395279 1.39534c-1.5585098-1.1245575-3.348938-1.9454575-5.294487-2.3585434v-2.0663986c0-.6365433-.5161057-1.1524887-1.1526566-1.1524887h-3.5821762c-.6365509 0-1.1526566.5159454-1.1526566 1.1524887v2.0663986c-2.0640144.4380569-3.9531212 1.3358612-5.5753822 2.5682068l-1.575264-1.3578796c-.4821777-.4153824-1.2099991-.3614883-1.6256294.1206055l-2.3387451 2.7131348c-.4157104.4820938-.3617363 1.2099991.1204414 1.6257095l1.5638466 1.3480225c-.6510086 1.1856842-1.1344986 2.4748764-1.423687 3.8363724h-2.0662346c-.636631 0-1.1526527.5162735-1.1526527 1.1528244v3.582016c0 .636879.5160217 1.1528168 1.1526527 1.1528168h2.0662346c.3141632 1.4791412.8670769 2.8669281 1.6049232 4.1347656l-1.5382957 1.3943634c-.4716606.427536-.5074806 1.1564331-.0800209 1.628006l2.4057045 2.6543121c.4275398.4715729 1.1564331.5073929 1.6280937.0798569l1.5395279-1.3953476c1.558506 1.1245575 3.3489418 1.9454651 5.294487 2.3585434v2.0660706c0 .6365509.5161057 1.1528168 1.1526566 1.1528168h3.5821762c.6365509 0 1.1526566-.5162659 1.1526566-1.1528168v-2.0660706c2.0639343-.438385 3.9530411-1.3358612 5.5752182-2.5685349l1.5753479 1.3578796c.4821777.4160385 1.2099991.3618164 1.6256256-.1202774l2.338913-2.7131271c.4156265-.4824219.3616486-1.2099991-.1205215-1.6260452l-1.5638504-1.3480225c.6510086-1.1853485 1.1344986-2.4745483 1.4236908-3.8363724h2.0662308c.6366272 0 1.1526566-.5159378 1.1526566-1.1528168v-3.582016c-.0000002-.636551-.5160295-1.1528245-1.1526567-1.1528245zm-15.8644028 8.0575714c-2.8242035 0-5.1136551-2.2895355-5.1136551-5.113739 0-2.8242111 2.2894516-5.1134186 5.1136551-5.1134186 2.8242111 0 5.1136627 2.2892075 5.1136627 5.1134186 0 2.8242035-2.2894516 5.113739-5.1136627 5.113739z" fill="#328270"/><path d="m66.9422226 75.3811035c-5.6158791 0-10.1684914 4.5524521-10.1684914 10.168663 0 5.6155548 4.5526123 10.1683273 10.1684914 10.1683273s10.1685028-4.5527725 10.1685028-10.1683273c0-5.6162109-4.5526199-10.168663-10.1685028-10.168663zm0 17.5637207c-4.0843201 0-7.3954697-3.3108978-7.3954697-7.3953857 0-4.0841599 3.3111496-7.3953934 7.3954697-7.3953934 4.0844116 0 7.3954773 3.3112335 7.3954773 7.3953934 0 4.0844879-3.3110657 7.3953857-7.3954773 7.3953857z" fill="#48b19a"/></svg>