<svg enable-background="new 0 0 140 140" height="512" viewBox="0 0 140 140" width="512" xmlns="http://www.w3.org/2000/svg"><circle cx="70" cy="70" fill="#4da0dc" r="64"/><path d="m133.8497467 65.8485489c.0900269 1.3701172.1500244 2.75.1500244 4.1401367v.0200195c-.0100098 35.3198242-28.6199951 63.9599686-63.9400024 63.9897537h-.1199951c-1.0599976 0-2.1199951-.0297852-3.1699829-.0795898l-30.960022-30.9604568c-.7999878-.659668-1.3399658-1.6396484-1.3399658-2.7700195v-61.1997033c0-1.9599609 1.5899658-3.5400391 3.5499878-3.5400391h10.6799927v-1.6601562c0-.9499512.7700195-1.7099609 1.710022-1.7099609.3899536 0 .75.1401367 1.0499878.3701172l.0100098.0100098c.0999756.079834.1900024.1699219.2699585.2700195l2.7200317 2.7199707h7.2999878v-1.6601562c0-.9499512.7700195-1.7099609 1.710022-1.7099609.3899536 0 .75.1401367 1.039978.3601074l.0100098.0100098c.1099854.0898438.2099609.1799316.289978.2900391l2.710022 2.7099609h7.2999878v-1.6601562c0-.9499512.7700195-1.7099609 1.710022-1.7099609.4799805 0 .9099731.2001953 1.2199707.5100098l2.8599854 2.8601074h7.2700195v-1.6601562c0-.9499512.7700195-1.7099609 1.710022-1.7099609.539978 0 1.0199585.2600098 1.3399658.6501465l2.710022 2.7199707h8.3399658c.9300537 0 1.7700195.3701172 2.4100342.9499512l.0499878.0400391c.0300293.0300293.0599976.0700684.0900269.0998535z" opacity=".1"/><path d="m101.9813919 38.89505h-63.9627685c-1.9592896 0-3.5475464 1.5883789-3.5475464 3.5476074v57.7451172c0 1.9592285 1.5882568 3.5476074 3.5475464 3.5476074h63.9627686c1.9592896 0 3.5475464-1.5883789 3.5475464-3.5476074v-57.7451171c-.0000001-1.9592285-1.5882569-3.5476075-3.5475465-3.5476075z" fill="#dbd8dd"/><path d="m101.9813919 35.4440727h-63.9627685c-1.9592896 0-3.5475464 1.5883789-3.5475464 3.5476074v57.745121c0 1.9592285 1.5882568 3.5476074 3.5475464 3.5476074h63.9627686c1.9592896 0 3.5475464-1.5883789 3.5475464-3.5476074v-57.745121c-.0000001-1.9592285-1.5882569-3.5476074-3.5475465-3.5476074z" fill="#ededed"/><path d="m105.5289383 50.2028618v-11.2111817c0-1.9592285-1.5882568-3.5476074-3.5475464-3.5476074h-63.9627685c-1.9592896 0-3.5475464 1.5883789-3.5475464 3.5476074v11.2111816h71.0578613z" fill="#344d5b"/><g fill="#dbd8dd"><path d="m58.030411 56.885552h9.114451v9.114451h-9.114451z"/><path d="m72.855156 56.885552h9.114451v9.114451h-9.114451z"/><path d="m87.679901 56.885552h9.114451v9.114451h-9.114451z"/><path d="m43.205669 70.491821h9.114451v9.114451h-9.114451z"/><path d="m58.030411 70.491821h9.114451v9.114451h-9.114451z"/></g><path d="m72.855156 70.491821h9.114451v9.114451h-9.114451z" fill="#de594e"/><path d="m87.679901 70.491821h9.114451v9.114451h-9.114451z" fill="#dbd8dd"/><path d="m43.205669 84.098091h9.114451v9.114451h-9.114451z" fill="#4abba4"/><g fill="#dbd8dd"><path d="m58.030411 84.098091h9.114451v9.114451h-9.114451z"/><path d="m72.855156 84.098091h9.114451v9.114451h-9.114451z"/><path d="m50.4104424 32.0785942c-.9431152 0-1.7077026.7646484-1.7077026 1.7075195v7.8710938c0 .9431152.7645874 1.7077637 1.7077026 1.7077637s1.7076416-.7646484 1.7076416-1.7077637v-7.8710938c0-.9428711-.7645264-1.7075195-1.7076416-1.7075195z"/><path d="m63.4701729 32.0785942c-.9431152 0-1.7077026.7646484-1.7077026 1.7075195v7.8710938c0 .9431152.7645874 1.7077637 1.7077026 1.7077637.943119 0 1.7076454-.7646484 1.7076454-1.7077637v-7.8710938c0-.9428711-.7645264-1.7075195-1.7076454-1.7075195z"/><path d="m76.5299072 32.0785942c-.9431152 0-1.7077026.7646484-1.7077026 1.7075195v7.8710938c0 .9431152.7645874 1.7077637 1.7077026 1.7077637s1.7076416-.7646484 1.7076416-1.7077637v-7.8710938c0-.9428711-.7645263-1.7075195-1.7076416-1.7075195z"/><path d="m89.5896378 32.0785942c-.9431152 0-1.7077026.7646484-1.7077026 1.7075195v7.8710938c0 .9431152.7645874 1.7077637 1.7077026 1.7077637s1.7076416-.7646484 1.7076416-1.7077637v-7.8710938c0-.9428711-.7645264-1.7075195-1.7076416-1.7075195z"/></g></svg>