<svg id="Layer_1" height="512" viewBox="0 0 150 150" width="512" xmlns="http://www.w3.org/2000/svg" data-name="Layer 1"><circle cx="75" cy="75" fill="#2f4859" r="64"/><path d="m48.976 45.042a3.934 3.934 0 0 0 -3.934 3.934v26.024h29.958v-29.958z" fill="#fe7058"/><path d="m45.042 75v26.024a3.934 3.934 0 0 0 3.934 3.934h26.024v-29.958z" fill="#029bc5"/><path d="m101.024 45.042h-26.024v29.958h29.958v-26.024a3.934 3.934 0 0 0 -3.934-3.934z" fill="#fcd462"/><path d="m91.6 75v-2.943c1.6-.517 2.715-1.629 2.715-2.921 0-1.785-2.117-3.232-4.729-3.232s-4.729 1.447-4.729 3.232c0 1.292 1.111 2.4 2.714 2.921v2.943h-12.571v12.965h-3.084c-.516-1.603-1.629-2.715-2.916-2.715-1.785 0-3.231 2.117-3.231 4.729s1.441 4.729 3.231 4.729c1.292 0 2.4-1.111 2.921-2.714h3.079v12.964h26.024a3.934 3.934 0 0 0 3.934-3.934v-26.024z" fill="#ebf0f3"/><path d="m63.814 68.544c0-1.785-2.117-3.232-4.729-3.232s-4.73 1.447-4.73 3.232c0 1.292 1.112 2.4 2.715 2.921v5.081h4.03v-5.081c1.6-.518 2.714-1.629 2.714-2.921z" fill="#029bc5"/><path d="m80.942 64.75c1.785 0 3.231-2.117 3.231-4.729s-1.446-4.729-3.231-4.729c-1.292 0-2.4 1.111-2.921 2.714h-5.081v4.029h5.081c.517 1.603 1.629 2.715 2.921 2.715z" fill="#fe7058"/></svg>