<svg enable-background="new 0 0 140 140" height="512" viewBox="0 0 140 140" width="512" xmlns="http://www.w3.org/2000/svg"><circle cx="70" cy="70" fill="#4abba4" r="64"/><path d="m134 69.9997482c0-2.3857422-.1411743-4.7373047-.3955078-7.0556602l-18.7686157-18.7646484-18.8999634-18.9096699-9.5400391 2.5600586.710022 2.6396484 2.7000122 2.7001972-1.789978 3.0898438-10.920044-10.9199238-6.9799805-6.9799805-6.9799843 6.9799805 5.6099892 5.6103516v5.6997089l9.8900146 9.8901367-8.5200195-4.9199219-1.5800171.9199219-14.7099647-14.7099628-9.5300293-2.5600586-2.5599976 9.540041 14.7000122 14.699707-8.6300049 4.9902344-12.8800048-12.8798829-9.539978 2.5595703 2.5599976 9.5302734 17.5899658 17.5898399v6.1103516l-8.7699585-8.7700195h-5.7000122l-5.6199951-5.6201134-6.9800415 6.9799767 17.9100342 17.9101562-3.1000366 1.7797852-2.6999512-2.699707-2.6300049-.7001953-2.5599976 9.5297852 18.9099731 18.9101562 18.9078369 18.9077225c2.2337685.2358398 4.5000039.3623047 6.7962685.3623047 35.3463135 0 64-28.653328 64-64.0000077z" opacity=".1"/><g fill="#ededed"><path d="m63.1322289 25.3367481 1.9289207 1.9289189 3.6882095-3.6882115v13.0708142h2.7281952v-13.0708142l3.6882096 3.6882115 1.9289169-1.9289189-6.9812241-6.981224z"/><path d="m71.4775543 116.4221497v-13.0708161h-2.7281952v13.0708161l-3.6882095-3.6882172-1.9289207 1.9289169 6.9812278 6.9812241 6.9812241-6.9812241-1.9289169-1.9289169z"/><path d="m53.1219749 30.4649868.706028-2.634943-9.5366859-2.5554619-2.5552406 9.536686 2.6349449.7060279 1.3501091-5.0380993 6.535408 11.3195134 2.3625221-1.3640976-6.5354042-11.3195114z"/><path d="m94.5059967 109.5208511-6.5354004-11.3195114-2.3625259 1.36409 6.535408 11.319519-5.0383225-1.3498916-.7060241 2.6349487 9.5364609 2.5550156 2.555458-9.5362473-2.6349411-.7060242z"/><path d="m30.5784187 53.0085411-1.3498859-5.0385399 11.3197346 6.535408 1.3640937-2.3627472-11.3197326-6.535408 5.0380974-1.3498878-.706028-2.6349411-9.5364609 2.555458 2.5552387 9.536686z"/><path d="m109.6484909 86.9915009 1.349884 5.0385437-11.3195114-6.5354081-1.3640976 2.3623047 11.3195114 6.535408-5.0380935 1.3498841.7060241 2.6349411 9.5366898-2.5550156-2.5554657-9.5366821z"/><path d="m27.3793201 75.0521088-3.6882114-3.6882096h13.0708122v-2.7281952h-13.0708122l3.6882114-3.6882095-1.9289169-1.9289169-6.981224 6.981224 6.981224 6.9812241z"/><path d="m114.7765045 76.9810257 6.9812241-6.9812241-6.9812241-6.981224-1.9289169 1.9289169 3.6882095 3.6882095h-13.0708084v2.7281952h13.0708084l-3.6882095 3.6882096z"/><path d="m41.9123611 87.8569412-1.3640937-2.3623047-11.3197346 6.5354081 1.3498859-5.0385437-2.634943-.7060242-2.5552387 9.5366821 9.5364609 2.5550156.706028-2.6349411-5.0380974-1.3498841z"/><path d="m98.3147659 52.142662 1.3640976 2.3627472 11.3195114-6.535408-1.349884 5.0385399 2.6349411.706028 2.5554657-9.536686-9.5366898-2.555458-.7060241 2.6349411 5.0380935 1.3498878z"/><path d="m52.2565384 98.2013397-6.535408 11.3195114-1.3501091-5.0381012-2.6349449.7060242 2.5552406 9.5362473 9.5366859-2.5550156-.706028-2.6349487-5.0383186 1.3498916 6.5354042-11.319519z"/><path d="m87.9705963 41.7987099 6.5354004-11.3195134 1.3501129 5.0380993 2.6349411-.7060279-2.555458-9.536686-9.5364609 2.5554619.7060241 2.634943 5.0383225-1.3498859-6.535408 11.3195114z"/></g><path d="m94.6859131 55.8098106v28.379879l-24.5700073 14.1899414-24.5800209-14.1899414v-28.379879l24.5800209-14.1899414z" fill="#39617a"/><path d="m70.1135483 41.6224251v56.7551536l24.5756454-14.1887893v-28.3775788z" fill="#344d5b"/><path d="m70.1134949 41.6224251-24.5757561 14.1887855 24.5757561 14.1887894 24.5758743-14.1887894z" fill="#cd5248"/></svg>