<svg enable-background="new 0 0 140 140" height="512" viewBox="0 0 140 140" width="512" xmlns="http://www.w3.org/2000/svg"><circle cx="70" cy="70" fill="#344d5b" r="64"/><path d="m133.9550323 68.2226562-27.3122482-27.312252-7.5499268-7.5600586c-.8900146-.8798828-2.2900391-.9799805-3.3000488-.2299805l-6.1999512 4.6501465-11.6900634-11.6901874-.0599365-.3999023c-.1800537-1.2399902-1.25-2.1599121-2.5-2.1599121h-10.6900635c-1.2500038 0-2.3099403.9199219-2.489994 2.1599121l-1.2099609 8.3901386c-3.5500488.8898926-6.9000244 2.2900391-9.9599609 4.1298828l-6.7900391-5.0800781c-1-.75-2.4100342-.6499023-3.2900391.2299805l-7.5600586 7.5600586c-.8898926.8901367-.9899902 2.2900391-.2299805 3.2900391l5.0800781 6.7900391c-1.8400879 3.0600586-3.2399902 6.4099121-4.1400146 9.9699707l-8.380003 1.1999512c-1.2399902.1801758-2.1699219 1.2399902-2.1699219 2.4999962v10.6801758c0 .6098633.2199707 1.1799316.5998535 1.619873.0800781.1000977.1800537.1999512.2800293.2900391l12.9300518 12.9299314-4.2000732 5.6201172c-.7600098 1-.6599121 2.3999023.2299805 3.2900391l7.5600586 7.5598145c.2099609.2102051.4399414.3701172.6999512.4899902l26.8200722 26.8200684c.5224608.0124511 1.0415038.0395507 1.5671386.0395507 35.3455811 0 63.9986496-28.6523438 63.9999924-63.9975586v-.0048828c-.0000001-.5952148-.0286866-1.1833496-.044922-1.7749024z" opacity=".1"/><path d="m70.1300354 58.9914703c-10.8996887 0-19.7356453 11.0052109-19.7356453 11.0052109s8.8359566 11.0052109 19.7356453 11.0052109c10.8997421 0 19.7356415-11.0052109 19.7356415-11.0052109s-8.8358994-11.0052109-19.7356415-11.0052109z" fill="#ededed"/><path d="m70.1297989 78.0222549c-4.4254532 0-8.0254288-3.6003342-8.0254288-8.0254288 0-4.4254532 3.5999756-8.0257912 8.0254288-8.0257912 4.4254608 0 8.0261612 3.600338 8.0261612 8.0257912 0 4.4250947-3.6007004 8.0254288-8.0261612 8.0254288z" fill="#4da0dc"/><path d="m70.129982 66.8758698c-1.7235565 0-3.1207047 1.3973694-3.1207047 3.1209259 0 1.7235489 1.3971481 3.120697 3.1207047 3.120697 1.7235489 0 3.1208038-1.3971481 3.1208038-3.120697 0-1.7235566-1.3972549-3.1209259-3.1208038-3.1209259z" fill="#344d5b"/><path d="m67.8216934 66.1029434c-.7054443 0-1.2773743.5719299-1.2773743 1.2774811 0 .7055588.5719299 1.2772675 1.2773743 1.2772675.7054367 0 1.2773743-.5717087 1.2773743-1.2772675 0-.7055511-.5719376-1.2774811-1.2773743-1.2774811z" fill="#ededed"/><path d="m69.5191116 68.386528c-.3817291 0-.6912079.3094788-.6912079.6912689s.3094788.6911545.6912079.6911545.6912155-.3093643.6912155-.6911545-.3094863-.6912689-.6912155-.6912689z" fill="#ededed"/><path d="m114.3196411 62.1621933-8.384819-1.2041817c-.892128-3.5556679-2.2974319-6.9066124-4.1337738-9.9709473l5.0798721-6.7836113c.751564-1.0035706.6513443-2.4068222-.2352219-3.2933807l-7.5557251-7.5557327c-.8864822-.8863907-2.2898178-.9867821-3.2933884-.235218l-6.7842941 5.0803833c-3.0641632-1.8358231-6.4147644-3.2407913-9.9700089-4.1326637l-1.2044373-8.3864422c-.1781693-1.2410145-1.2414398-2.1625252-2.4952164-2.1625252h-10.685257c-1.2537766 0-2.3169632.9215107-2.4952202 2.1625252l-1.2045212 8.3869572c-3.5549011.8918724-6.905159 2.2970085-9.9689789 4.1328354l-6.7851524-5.0810699c-1.0035706-.751564-2.4069939-.6511726-3.2935562.235218l-7.5555573 7.5557327c-.8865623.8865585-.9868698 2.2898102-.2353897 3.2933807l5.0810661 6.7853241c-1.8357391 3.0638199-3.2407875 6.4139099-4.1326599 9.9688911l-8.3871288 1.204525c-1.2410164.1781693-2.1624393 1.2415314-2.1624393 2.495224v10.6853333c0 1.2536926.921423 2.3168793 2.1624393 2.495224l8.3866138 1.2043533c.8917885 3.5553284 2.2966652 6.9057541 4.1324921 9.9699173l-5.0803833 6.7844696c-.7514801 1.0035706-.6511726 2.4068222.2353897 3.2933807l7.5555573 7.5557327c.8865623.8863907 2.2899857.9867783 3.2935562.2352142l6.7836113-5.0798645c3.0643311 1.8363342 6.4151917 3.2416458 9.9707756 4.1336899l1.2042656 8.384903c.178257 1.2410126 1.2414436 2.1623535 2.4952202 2.1623535h10.685257c1.2537766 0 2.3170471-.9213409 2.4952164-2.1623535l1.2041855-8.3843918c3.5559235-.8918686 6.9071274-2.2971802 9.9718018-4.1335144l6.782753 5.0791779c1.0035706.751564 2.4069061.6511765 3.2933884-.2352142l7.5557251-7.5557327c.8865662-.8865585.9867859-2.2898102.2352219-3.2933807l-5.0791855-6.782753c1.8363419-3.0646744 3.2416458-6.4157944 4.133522-9.9718094l8.3843842-1.2041779c1.2411041-.1783447 2.162529-1.2415314 2.162529-2.495224v-10.6853333c0-1.2536926-.9214249-2.3170548-2.162529-2.495224zm-44.3186645 31.526001c-13.0854568 0-23.6870804-10.6095505-23.6870804-23.6870804 0-13.0854607 10.6016235-23.6870842 23.6870804-23.6870842 13.0775299 0 23.6871796 10.6016235 23.6871796 23.6870842-.0000001 13.0775299-10.6096497 23.6870804-23.6871796 23.6870804z" fill="#dd584d"/></svg>