<svg enable-background="new 0 0 140 140" height="512" viewBox="0 0 140 140" width="512" xmlns="http://www.w3.org/2000/svg"><circle cx="70" cy="70" fill="#4abba4" r="64"/><path d="m39.650795 30.417717v76.0100098l27.5003662 27.5002365c.9452515.0415039 1.8933716.0720215 2.8488159.0720215 32.1143799 0 58.6986618-23.6550217 63.292717-54.4904709l-49.0919113-49.0917969z" opacity=".1"/><path d="m84.201561 30.4173241h-44.549778v76.0091056h57.4291038v-63.1297836z" fill="#e1e6e9"/><g fill="#d5d6db"><path d="m84.201561 43.2966461h12.8793182l-12.8793182-12.879322z"/><path d="m44.440289 96.747971h47.852085v1.933939h-47.852085z"/><path d="m44.440289 38.161743h37.160008v1.934043h-37.160008z"/><path d="m44.440289 61.597881h47.852085v1.934043h-47.852085z"/><path d="m44.440289 85.034027h47.852085v1.934043h-47.852085z"/><path d="m44.440289 73.311829h47.852085v1.933939h-47.852085z"/><path d="m44.440289 49.875691h47.852085v1.933939h-47.852085z"/></g><path d="m98.0608139 63.6075935c6.2757721 6.2757683 6.8956985 16.0642204 1.8596039 23.0334892l3.6158295 3.6158295-4.0449219 4.0449219-3.6158295-3.6158295c-6.9727325 5.032547-16.7576752 4.409111-23.0299377-1.8631516-6.9622192-6.9622116-6.9657211-18.2495422 0-25.2152596 6.9622116-6.9622153 18.2530441-6.9622153 25.2152557.0000001z" fill="#3a556a"/><path d="m97.1556931 86.9044876c-.1604156.1773224-.3293839.3547516-.4982529.5236206-6.1820297 6.1736755-16.2322464 6.1736755-22.4142761 0-.1689682-.168869-.3378372-.3462982-.4982529-.5236206-5.6753235-6.2158432-5.5149078-15.885849.4982529-21.8906555 6.1820297-6.1820297 16.2322464-6.1820297 22.4142761 0 6.0131607 6.0048065 6.1735763 15.6748123.4982529 21.8906555z" fill="#ededed"/><path d="m101.8471909 88.313591-4.2991486 4.2991409c-.7131042.7131042-.7131042 1.8693848 0 2.5824966l10.6963577 10.6963578c.71315.7131424 1.8693924.7131042 2.5824966 0l4.2991486-4.2991409c.7131042-.7131119.7131424-1.8693542 0-2.5824966l-10.6963577-10.6963578c-.7131119-.7131119-1.8693924-.7131119-2.5824966 0z" fill="#3a556a"/><path d="m91.9026184 70.5083466c0 .6979523-.1054916 1.468811-.3083572 2.2640305-.8439102 3.4000092-3.3676147 7.2058487-6.3456955 7.2058487-2.9456329 0-5.4368515-3.6921234-6.3132019-7.051712-.2272339-.8519897-.3489227-1.6797028-.3489227-2.4181671 0-3.5541382 2.7833328-6.4511337 6.2969589-6.6458778.0973663-.0081215.2028656-.0081215.3002319-.0081215h.0649338c.1460571 0 .2840424.0081215.4301071.016243.1216888.0081253.2515488.0162468.3732376.0324898.0730591 0 .1379852.0081253.2109909.0242691 3.1971893.4949835 5.6397171 3.2458761 5.6397171 6.5809973z" fill="#fcd462"/><path d="m91.9026184 70.5083466c0 .6979523-.1054916 1.468811-.3083572 2.2640305-.0568085.0649796-.1136246.1136169-.170433.1622543-2.7508392-1.1116104-4.0167236-2.7102737-4.4873962-4.5684738-3.6840439.5111313-6.3456879 2.0286713-7.9929886 4.5684738l-.0080795-.0081177c-.2272339-.8519897-.3489227-1.6797028-.3489227-2.4181671 0-3.5541382 2.7833328-6.4511337 6.2969589-6.6458778.0973663-.0081215.2028656-.0081215.3002319-.0081215h.0649338c.1460571 0 .2840424.0081215.4301071.016243.1216888.0081253.2515488.0162468.3732376.0324898.0730591 0 .1379852.0081253.2109909.0242691 3.1971892.4949836 5.639717 3.2458762 5.639717 6.5809974z" fill="#3a556a"/><path d="m97.1556931 86.9044876c-.1604156.1773224.5214233.7710495.3525543.9399109-6.1820221 6.1736832-17.3844757 6.9292068-23.5665054.7555237-.1689682-.1688614-.0364151-1.5181122-.1968307-1.6954346.7178421-3.5048828 3.4119949-6.393158 7.0182266-7.0519333.1942291-.0422668.405365-.067627.6080475-.0929871h.3461914c1.0303192 1.0810394 2.2296066 1.7989883 3.5302429 1.7989883 1.2920761 0 2.4998245-.7179489 3.5133362-1.8074417h.7261963c.2027817.0253601.4139252.0507202.6081543.0845337 3.6314773.641861 6.3425445 3.5470506 7.0603866 7.0688401z" fill="#64798a"/><path d="m99.9204483 86.6411057c5.0360718-6.9692383 4.4161377-16.7578125-1.8596191-23.0334473-6.9622192-6.9621582-18.2530518-6.9621582-25.215271 0-6.9656982 6.9655762-6.9622192 18.2529297 0 25.2150879 6.2722778 6.2724609 16.0571899 6.895752 23.0299683 1.8632812l3.6157837 3.6157227 4.0449219-4.0449219zm-2.7647705.2634277c-.1604004.1772461-.3293457.3547363-.49823.5236816-6.1820068 6.173584-16.2322388 6.173584-22.4143066 0-.1689453-.1689453-.3378296-.3464355-.49823-.5236816-5.675293-6.2158203-5.5148926-15.8859863.49823-21.8908691 6.1820679-6.1818848 16.2322998-6.1818848 22.4143066 0 6.0131226 6.0048828 6.173584 15.6750488.49823 21.8908691z" fill="#3a556a"/><path d="m101.470993 90.123383h9.732107v13.958404h-9.732107z" fill="#e56353" transform="matrix(.707 -.707 .707 .707 -37.516 103.632)"/></svg>