<svg enable-background="new 0 0 140 140" height="512" viewBox="0 0 140 140" width="512" xmlns="http://www.w3.org/2000/svg"><circle cx="70" cy="70" fill="#fb7833" r="64"/><path d="m100.6967087 31.1325035h-58.5700035c-1.3599854 0-2.460022 1.1000366-2.460022 2.4500122v3.4500122h-3.1599731c-.7200317 0-1.3099976.5800171-1.3099976 1.2999878 0 .3900146.1799927.7299805.4500122.9700317h-.0100098l4.0299683 4.0299683v6.5200195h-3.1599731c-.7200317 0-1.3099976.5899658-1.3099976 1.3099976 0 .3900146.1799927.7299805.4500122.9699707h-.0100098l4.0299683 4.0300293v6.5100098h-3.1599731c-.7200317 0-1.3099976.5899658-1.3099976 1.3099976 0 .3899498.1799927.7299767.4500122.9699669h-.0100098l4.0299683 4.0300293v6.5199585h-3.1599731c-.7200317 0-1.3099976.5800171-1.3099976 1.3099976 0 .3500366.1400146.6700439.3699951.9100342h.0100098c0 .0100098.0100098.0199585.0199585.0199585l4.0700073 4.0800171v6.5h-3.1599731c-.7200317 0-1.3099976.5900269-1.3099976 1.3099976 0 .3500366.1400146.6700439.3699951.9100342h.0100098c0 .0100098.0100098.0199585.0199585.0199585l4.0700073 4.0800171v6.5100098h-3.1599731c-.7200317 0-1.3099976.5800171-1.3099976 1.3099976 0 .3499756.1400146.6699829.3699951.9000244l.0100098.0099487c0 .0100098.0100098.0100098.0100098.0200195l4.1099854 4.0999756c.0700073.6100464.3599854 1.1600342.7999878 1.5400391l24.7750816 24.7750931c1.5629882.1142575 3.1360473.1923825 4.7282104.1923825 35.3463134 0 64.0000076-28.6538162 64.0000076-64.0000076 0-2.3399048-.1338501-4.6479492-.3786011-6.9227867l-31.0147171-31.0147095c-.4500122-.5599976-1.1300049-.9299927-1.9099731-.9299927z" opacity=".1"/><path d="m103.1577606 33.5830307v73.6289597c0 1.3525543-1.099472 2.4520264-2.4607086 2.4520264h-49.0789604v-78.5330144h49.0789604c1.3612366 0 2.4607086 1.0994702 2.4607086 2.4520283z" fill="#ebf0f3"/><path d="m53.673214 31.1310024v78.5330124h-11.5443345c-1.3612404 0-2.4607086-1.099472-2.4607086-2.4520264v-73.6289577c0-1.3525581 1.0994682-2.4520283 2.4607086-2.4520283z" fill="#48b29b"/><circle cx="43.787" cy="38.336" fill="#293b44" r="2.884"/><path d="m42.4788475 39.6439018h-5.9702454c-.722435 0-1.3080826-.5856476-1.3080826-1.3080826v-.0000038c0-.722435.5856476-1.3080864 1.3080826-1.3080864h5.9702454c.722435 0 1.3080826.5856514 1.3080826 1.3080864v.0000038c0 .722435-.5856476 1.3080826-1.3080826 1.3080826z" fill="#3a556a"/><circle cx="43.787" cy="51.16" fill="#293b44" r="2.884"/><path d="m42.4788475 52.4685822h-5.9702454c-.722435 0-1.3080826-.5856514-1.3080826-1.3080864v-.0000038c0-.722435.5856476-1.3080826 1.3080826-1.3080826h5.9702454c.722435 0 1.3080826.5856476 1.3080826 1.3080826v.0000038c0 .722435-.5856476 1.3080864-1.3080826 1.3080864z" fill="#3a556a"/><circle cx="43.787" cy="63.985" fill="#293b44" r="2.884"/><path d="m42.4788475 65.2932587h-5.9702454c-.722435 0-1.3080826-.5856476-1.3080826-1.3080864 0-.722435.5856476-1.3080864 1.3080826-1.3080864h5.9702454c.722435 0 1.3080826.5856514 1.3080826 1.3080864 0 .7224388-.5856476 1.3080864-1.3080826 1.3080864z" fill="#3a556a"/><circle cx="43.787" cy="76.81" fill="#293b44" r="2.884"/><path d="m42.4788475 78.1179352h-5.9702454c-.722435 0-1.3080826-.5856476-1.3080826-1.3080826v-.0000076c0-.722435.5856476-1.3080826 1.3080826-1.3080826h5.9702454c.722435 0 1.3080826.5856476 1.3080826 1.3080826v.0000076c0 .722435-.5856476 1.3080826-1.3080826 1.3080826z" fill="#3a556a"/><circle cx="43.787" cy="89.635" fill="#293b44" r="2.884"/><path d="m42.4788475 90.9426117h-5.9702454c-.722435 0-1.3080826-.5856476-1.3080826-1.3080826s.5856476-1.3080902 1.3080826-1.3080902h5.9702454c.722435 0 1.3080826.5856552 1.3080826 1.3080902s-.5856476 1.3080826-1.3080826 1.3080826z" fill="#3a556a"/><circle cx="43.787" cy="102.459" fill="#293b44" r="2.884"/><path d="m42.4788475 103.7672958h-5.9702454c-.722435 0-1.3080826-.5856552-1.3080826-1.3080902s.5856476-1.3080826 1.3080826-1.3080826h5.9702454c.722435 0 1.3080826.5856476 1.3080826 1.3080826s-.5856476 1.3080902-1.3080826 1.3080902z" fill="#3a556a"/><g fill="#e1e6e9"><path d="m60.549274 47.265167h35.732479v2.024466h-35.732479z"/><path d="m60.549274 38.338596h35.732479v2.02436h-35.732479z"/><path d="m60.549274 56.183003h35.732479v2.033201h-35.732479z"/></g></svg>