<svg enable-background="new 0 0 140 140" height="512" viewBox="0 0 140 140" width="512" xmlns="http://www.w3.org/2000/svg"><circle cx="70" cy="70" fill="#4da0dc" r="64"/><path d="m77.9266434 23.4535465c-.2999878-.3601074-.7599487-.5800781-1.2699585-.5800781h-23.3600464c-.9399414 0-1.7099609.7700195-1.7099609 1.7099609v15.3500957h-2.7800293c-1.2699585 0-2.3699951.6799316-2.9799805 1.6999512-.1900024.0300293-.3699951.0500488-.5499878.0800781-2.7000122.4899902-4.710022 2.75-4.9500122 5.4799805-1.8499756 20.8898926-1.8499756 41.7799072 0 62.6699219.1500244 1.7299805 1.0200195 3.2800293 2.3200073 4.2900391l.0200195.0200195 19.303833 19.3072586c2.6313477.3295898 5.3063354.519043 8.0270386.519165h.0048828c32.3273315-.0012207 59.0403519-23.9753494 63.3690872-55.1110916l-55.4248733-55.4154033z" opacity=".1"/><path d="m99.099678 55.4440994h-11.3220825v33.0899506h11.3220825c1.081192 0 1.9576721-.8764801 1.9576721-1.9576721v-29.1746064c.0000001-1.081192-.87648-1.9576721-1.9576721-1.9576721z" fill="#feda6f"/><path d="m93.654587 55.444099h3.623143v33.089954h-3.623143z" fill="#344d5b"/><path d="m76.6598053 22.8763237h-23.3642693c-.9432144 0-1.7079124.7646446-1.7079124 1.7079144v17.4533405h26.780098v-17.4533405c0-.9432698-.7646409-1.7079144-1.7079163-1.7079144z" fill="#ebf0f3"/><g fill="#d5d6db"><path d="m75.7056198 26.5475788c0 .3622074-.352623.6640778-.7757339.6640778h-19.904377c-.4231033 0-.7757263-.3018703-.7757263-.6640778 0-.3622093.352623-.6565247.7757263-.6565247h19.904377c.4231109.0000001.7757339.2943154.7757339.6565247z"/><path d="m75.7056198 31.2942104c0 .3622074-.352623.6640778-.7757339.6640778h-19.904377c-.4231033 0-.7757263-.3018703-.7757263-.6640778 0-.3622093.352623-.6565247.7757263-.6565247h19.904377c.4231109.0000001.7757339.2943154.7757339.6565247z"/><path d="m75.7056198 36.0408401c0 .3622093-.352623.6640816-.7757339.6640816h-19.904377c-.4231033 0-.7757263-.3018723-.7757263-.6640816 0-.3622055.352623-.6565247.7757263-.6565247h19.904377c.4231109.0000001.7757339.2943192.7757339.6565247z"/></g><path d="m89.6293335 47.197773c-.2411423-2.7302742-2.2495422-4.9931107-4.9466782-5.4810486-13.1366882-2.3767891-26.2733841-2.3767891-39.4100227 0-2.6971321.4879379-4.7055855 2.7507744-4.9466782 5.4810486-1.8444099 20.8874092-1.8444099 41.774868 0 62.6622734.2410927 2.730278 2.2495461 4.9931107 4.9466782 5.481102 13.136692 2.3766861 26.2733345 2.3766861 39.4100227 0 2.6971359-.4879913 4.7055359-2.750824 4.9466782-5.481102 1.8444138-20.8874054 1.8444138-41.7748642 0-62.6622734z" fill="#293b44"/><path d="m81.1515579 39.9341202h-32.3478241c-1.927536 0-3.4901314 1.5625916-3.4901314 3.4901276v70.2092972c0 1.927536 1.5625954 3.4901276 3.4901314 3.4901276h32.3478241c1.927536 0 3.4901276-1.5625916 3.4901276-3.4901276v-70.2092973c0-1.927536-1.5625916-3.4901275-3.4901276-3.4901275z" fill="#344d5b"/><g fill="#ededed"><path d="m48.643745 46.480446h32.667801v19.725182h-32.667801z"/><path d="m54.3367577 71.4768295h-4.6980362c-.4990082 0-.9035072.4045029-.9035072.903511v2.5631714c0 .4990082.4044991.9035492.9035072.9035492h4.6980362c.499012 0 .9035492-.404541.9035492-.9035492v-2.5631714c0-.4990081-.4045372-.903511-.9035492-.903511z"/><path d="m63.0429535 71.4768295h-4.6980362c-.4990082 0-.9035072.4045029-.9035072.903511v2.5631714c0 .4990082.4044991.9035492.9035072.9035492h4.6980362c.4990082 0 .9035492-.404541.9035492-.9035492v-2.5631714c0-.4990081-.404541-.903511-.9035492-.903511z"/><path d="m71.7491455 71.4768295h-4.6980362c-.4990082 0-.9035034.4045029-.9035034.903511v2.5631714c0 .4990082.4044952.9035492.9035034.9035492h4.6980362c.4990158 0 .9035492-.404541.9035492-.9035492v-2.5631714c0-.4990081-.4045334-.903511-.9035492-.903511z"/><path d="m80.3165283 71.4768295h-4.6980362c-.4990082 0-.9035034.4045029-.9035034.903511v2.5631714c0 .4990082.4044952.9035492.9035034.9035492h4.6980362c.4990082 0 .9035492-.404541.9035492-.9035492v-2.5631714c0-.4990081-.404541-.903511-.9035492-.903511z"/><path d="m54.3367577 78.272316h-4.6980362c-.4990082 0-.9035072.4045029-.9035072.903511v2.5631714c0 .4990082.4044991.9035492.9035072.9035492h4.6980362c.499012 0 .9035492-.404541.9035492-.9035492v-2.5631714c0-.4990082-.4045372-.903511-.9035492-.903511z"/><path d="m63.0429535 78.272316h-4.6980362c-.4990082 0-.9035072.4045029-.9035072.903511v2.5631714c0 .4990082.4044991.9035492.9035072.9035492h4.6980362c.4990082 0 .9035492-.404541.9035492-.9035492v-2.5631714c0-.4990082-.404541-.903511-.9035492-.903511z"/><path d="m71.7491455 78.272316h-4.6980362c-.4990082 0-.9035034.4045029-.9035034.903511v2.5631714c0 .4990082.4044952.9035492.9035034.9035492h4.6980362c.4990158 0 .9035492-.404541.9035492-.9035492v-2.5631714c0-.4990082-.4045334-.903511-.9035492-.903511z"/><path d="m80.3165283 78.272316h-4.6980362c-.4990082 0-.9035034.4045029-.9035034.903511v2.5631714c0 .4990082.4044952.9035492.9035034.9035492h4.6980362c.4990082 0 .9035492-.404541.9035492-.9035492v-2.5631714c0-.4990082-.404541-.903511-.9035492-.903511z"/><path d="m54.3367577 85.0678101h-4.6980362c-.4990082 0-.9035072.4044952-.9035072.9035034v2.5631714c0 .4990158.4044991.9035492.9035072.9035492h4.6980362c.499012 0 .9035492-.4045334.9035492-.9035492v-2.5631714c0-.4990082-.4045372-.9035034-.9035492-.9035034z"/><path d="m63.0429535 85.0678101h-4.6980362c-.4990082 0-.9035072.4044952-.9035072.9035034v2.5631714c0 .4990158.4044991.9035492.9035072.9035492h4.6980362c.4990082 0 .9035492-.4045334.9035492-.9035492v-2.5631714c0-.4990082-.404541-.9035034-.9035492-.9035034z"/><path d="m71.7491455 85.0678101h-4.6980362c-.4990082 0-.9035034.4044952-.9035034.9035034v2.5631714c0 .4990158.4044952.9035492.9035034.9035492h4.6980362c.4990158 0 .9035492-.4045334.9035492-.9035492v-2.5631714c0-.4990082-.4045334-.9035034-.9035492-.9035034z"/><path d="m80.3165283 85.0678101h-4.6980362c-.4990082 0-.9035034.4044952-.9035034.9035034v2.5631714c0 .4990158.4044952.9035492.9035034.9035492h4.6980362c.4990082 0 .9035492-.4045334.9035492-.9035492v-2.5631714c0-.4990082-.404541-.9035034-.9035492-.9035034z"/><path d="m54.3367577 91.8632965h-4.6980362c-.4990082 0-.9035072.4044952-.9035072.9035034v2.563179c0 .4990082.4044991.9035416.9035072.9035416h4.6980362c.499012 0 .9035492-.4045334.9035492-.9035416v-2.563179c0-.4990082-.4045372-.9035034-.9035492-.9035034z"/><path d="m63.0429535 91.8632965h-4.6980362c-.4990082 0-.9035072.4044952-.9035072.9035034v2.563179c0 .4990082.4044991.9035416.9035072.9035416h4.6980362c.4990082 0 .9035492-.4045334.9035492-.9035416v-2.563179c0-.4990082-.404541-.9035034-.9035492-.9035034z"/><path d="m71.7491455 91.8632965h-4.6980362c-.4990082 0-.9035034.4044952-.9035034.9035034v2.563179c0 .4990082.4044952.9035416.9035034.9035416h4.6980362c.4990158 0 .9035492-.4045334.9035492-.9035416v-2.563179c0-.4990082-.4045334-.9035034-.9035492-.9035034z"/><path d="m80.3165283 91.8632965h-4.6980362c-.4990082 0-.9035034.4044952-.9035034.9035034v2.563179c0 .4990082.4044952.9035416.9035034.9035416h4.6980362c.4990082 0 .9035492-.4045334.9035492-.9035416v-2.563179c0-.4990082-.404541-.9035034-.9035492-.9035034z"/></g><path d="m54.9659653 108.6569977h-4.3977814c-.4093323 0-.7411346.3318558-.7411346.741188v1.1607437c0 .4093323.3318024.741188.7411346.741188h4.3977814c.4093323 0 .7411308-.3318558.7411308-.741188v-1.1607437c0-.4093322-.3317986-.741188-.7411308-.741188z" fill="#dd584d"/><path d="m63.1063461 108.6569977h-4.3977814c-.4093323 0-.7411346.3318558-.7411346.741188v1.1607437c0 .4093323.3318024.741188.7411346.741188h4.3977814c.4093323 0 .7411346-.3318558.7411346-.741188v-1.1607437c.0000001-.4093322-.3318023-.741188-.7411346-.741188z" fill="#feda6f"/><path d="m71.246727 108.6569977h-4.3977814c-.4093323 0-.7411346.3318558-.7411346.741188v1.1607437c0 .4093323.3318024.741188.7411346.741188h4.3977814c.4093323 0 .7411346-.3318558.7411346-.741188v-1.1607437c0-.4093322-.3318023-.741188-.7411346-.741188z" fill="#dd584d"/><path d="m79.3871078 108.6569977h-4.3977814c-.4093323 0-.7411346.3318558-.7411346.741188v1.1607437c0 .4093323.3318024.741188.7411346.741188h4.3977814c.4093323 0 .7411346-.3318558.7411346-.741188v-1.1607437c.0000001-.4093322-.3318023-.741188-.7411346-.741188z" fill="#4abba4"/><path d="m51.987759 51.117992h26.379963v1.567049h-26.379963z" fill="#dbd8dd"/><path d="m51.987759 55.559513h26.379963v1.567049h-26.379963z" fill="#dbd8dd"/><path d="m51.987759 60.001034h15.847957v1.567049h-15.847957z" fill="#dbd8dd"/></svg>