<?xml version="1.0" encoding="UTF-8" standalone="no"?>
<svg
   xmlns:dc="http://purl.org/dc/elements/1.1/"
   xmlns:cc="http://creativecommons.org/ns#"
   xmlns:rdf="http://www.w3.org/1999/02/22-rdf-syntax-ns#"
   xmlns:svg="http://www.w3.org/2000/svg"
   xmlns="http://www.w3.org/2000/svg"
   xmlns:sodipodi="http://sodipodi.sourceforge.net/DTD/sodipodi-0.dtd"
   xmlns:inkscape="http://www.inkscape.org/namespaces/inkscape"
   version="1.1"
   id="Layer_1"
   x="0px"
   y="0px"
   width="136"
   height="136"
   viewBox="0 0 136 136"
   enable-background="new 0 0 249 332"
   sodipodi:docname="smile.svg"
   inkscape:version="1.0.2-2 (e86c870879, 2021-01-15)">
  <metadata
     id="metadata40">
    <rdf:RDF>
      <cc:Work
         rdf:about="">
        <dc:format>image/svg+xml</dc:format>
        <dc:type
           rdf:resource="http://purl.org/dc/dcmitype/StillImage" />
        <dc:title></dc:title>
      </cc:Work>
    </rdf:RDF>
  </metadata>
  <defs
     id="defs38" />
  <sodipodi:namedview
     pagecolor="#ffffff"
     bordercolor="#666666"
     borderopacity="1"
     objecttolerance="10"
     gridtolerance="10"
     guidetolerance="10"
     inkscape:pageopacity="0"
     inkscape:pageshadow="2"
     inkscape:window-width="1366"
     inkscape:window-height="715"
     id="namedview36"
     showgrid="false"
     inkscape:zoom="3.1675293"
     inkscape:cx="62.597415"
     inkscape:cy="68.254958"
     inkscape:window-x="-8"
     inkscape:window-y="-8"
     inkscape:window-maximized="1"
     inkscape:current-layer="Layer_1" />
  <polygon
     style="fill:#fce121;stroke:#d8c11c;stroke-width:3px;stroke-linecap:round;stroke-linejoin:round;stroke-dashoffset:27px;stroke-opacity:0.31;paint-order:fill"
     points="160.754,245.833 97.699,262.154 96.594,167.199 10.534,187.971 11.576,33.051 11.646,32.969 148.514,0.7 148.885,107.894 207.118,93.058 206.748,193.946 248.29,182.077 164.092,330.773 "
     id="Cuerpo"
     class="Cuerpo"
     transform="matrix(0.42354331,0,0,0.40125587,15.180469,1.6390968)">
    <title
       id="title2">Cuerpo</title>
  </polygon>
  <path
     style="stroke:#000000;stroke-width:0.412248"
     d="m 43.172869,22.34069 -5.948242,-3.919468 -2.669169,-1.204169 -2.330337,-0.722661 -2.457397,-0.602285 h -1.864438 l -2.415044,0.321406 -1.906368,0.601883 -1.906792,0.802914 -1.609888,0.963415 -1.271477,1.324545 -1.228699,2.007083 -0.804732,1.485047 -0.762802,2.20771 -0.593808,2.433216 -0.159676,2.429605 -0.05337,2.670357 0.213042,1.203767 0.371871,1.511531 0.479028,1.712961 0.584913,1.56209 0.478604,1.511531 0.425238,1.712961 0.319351,0.453419 0.63828,-0.604693 -0.159676,-5.945006 0.265985,-4.786582 0.850899,-3.476882 1.435812,-2.6198 2.180401,-2.519084 3.138032,-1.864235 2.71237,-1.158827 3.350651,-0.403262 2.49933,0.45342 2.446386,0.554134 z"
     id="Ceja_Izq"
     class="Ceja_Izq">
    <title
       id="title5">Ceja_Izq</title>
  </path>
  <path
     style="stroke:#000000;stroke-width:0.412248"
     d="m 46.669642,20.624519 1.642501,-1.90717 1.589135,-1.405198 1.854273,-1.254727 1.906792,-1.003541 1.695443,-1.003942 2.17193,-0.903226 2.066044,-0.501972 2.118988,-0.250785 2.330759,-0.201029 2.066044,0.05015 3.072383,0.451814 1.748387,0.451815 2.118987,0.752755 1.800906,1.304884 1.960159,1.555669 1.960158,2.157955 1.536192,2.509454 1.112647,2.659924 0.3706,2.509455 0.159253,2.358582 v 2.559615 l -0.265138,2.659926 -0.3706,0.953785 -1.165591,-4.868438 -1.218535,-3.76378 -2.489586,-3.663868 -2.595899,-2.810395 -2.701781,-1.806856 -3.072383,-1.355041 -2.860612,-0.752756 -3.072806,-0.150471 h -2.80767 l -2.754725,0.351099 -2.489587,0.7026 z"
     id="Ceja_Der"
     class="Ceja_Der">
    <title
       id="title8">Ceja_Der</title>
  </path>
  <ellipse
     cx="62.616894"
     cy="45.150883"
     rx="14.915501"
     ry="23.155273"
     id="Ojo_Negro_Der"
     class="Ojo_Negro_Der"
     style="stroke-width:0.412248">
    <title
       id="title11">Ojo_Negro_Der</title>
  </ellipse>
  <ellipse
     cx="20.364458"
     cy="57.14175"
     rx="14.446482"
     ry="23.264053"
     transform="matrix(0.9472627,-0.32045808,0.33310011,0.94289147,0,0)"
     id="Ojo_Negro_izq"
     class="Ojo_Negro_izq"
     style="stroke-width:0.412267">
    <title
       id="title14">Ojo_Negro_izq</title>
  </ellipse>
  <ellipse
     style="fill:#ffffff;stroke-width:0.420707"
     cx="52.030537"
     cy="73.757835"
     rx="14.322641"
     ry="19.970438"
     transform="matrix(0.8776076,-0.4793797,0.21516347,0.97657805,0,0)"
     id="Ojo_Blanco_Der"
     class="Ojo_Blanco_Der">
    <title
       id="title17">Ojo_Blanco_Der</title>
  </ellipse>
  <ellipse
     style="fill:#ffffff;stroke-width:0.412751"
     cx="18.94047"
     cy="61.178131"
     rx="12.915123"
     ry="20.587849"
     transform="matrix(0.90482825,-0.42577675,0.36164701,0.9323151,0,0)"
     id="Ojo_Blanco_Izq"
     class="Ojo_Blanco_Izq">
    <title
       id="title20">Ojo_Blanco_Izq</title>
  </ellipse>
  <ellipse
     cx="62.929047"
     cy="56.9133"
     rx="5.8563333"
     ry="6.3619118"
     id="Iris_Derecho"
     class="Iris_Derecho"
     style="stroke-width:0.412248">
    <title
       id="title23">Iris_Derecho</title>
  </ellipse>
  <ellipse
     cx="23.31072"
     cy="65.093483"
     rx="5.5882168"
     ry="6.4211426"
     transform="matrix(0.97779893,-0.20954535,0.27348864,0.96187523,0,0)"
     id="Iris_Izquierdo"
     class="Iris_Izquierdo"
     style="stroke-width:0.412697">
    <title
       id="title26">Iris_Izquierdo</title>
  </ellipse>
  <path
     style="fill:#1f1e1e;stroke:#000000;stroke-width:0.412248"
     d="m 63.538948,95.239252 0.834381,-2.24944 1.86105,0.06099 6.866483,-3.465648 7.700865,-4.742042 5.198146,-3.526237 3.786478,-3.161493 3.144385,-3.526238 -0.641668,-1.519958 6.032104,-1.884698 0.256667,0.425732 -3.786053,1.641538 1.476048,2.371021 1.091047,3.343665 -0.128333,2.614584 -0.642092,2.431609 -1.026668,2.553594 -1.283337,1.823708 -1.604381,1.884698 -2.182096,2.188852 -3.786054,2.796753 -3.52981,1.398376 -2.759384,0.851064 c -0.684446,0.263625 -1.454447,0.486323 -2.310428,0.668894 -0.980927,0.209054 -1.986418,0.18899 -3.016053,-0.06099 C 74.331679,97.97341 73.5189,97.791239 72.651906,97.610273 71.415161,97.352265 70.195779,97.02805 68.993763,96.637628 67.969636,96.304987 67.028523,95.798603 66.169999,95.117671 q -0.910194,-0.721859 -2.631051,0.121581 z"
     id="Fondo_Boca"
     class="Fondo_Boca">
    <title
       id="title29">Fondo_Boca</title>
  </path>
  <path
     style="fill:#ef3233;stroke:#000000;stroke-width:0.412248"
     d="m 77.936033,96.9478 0.351964,-1.375907 1.583628,-1.749877 1.540004,-1.334176 1.671726,-1.000332 1.188039,-0.666886 1.055893,-0.541696 0.615832,-1.167253 0.967797,-1.125121 1.275712,-1.125523 1.495955,-0.91687 1.320184,-0.500365 1.319761,-0.499965 c 0,0 1.187615,-0.250383 1.231665,-0.250383 0.04404,0 0.747976,0.375174 0.747976,0.375174 l 0.04404,0.792077 -0.835651,1.292045 c 0,0 -1.14399,1.500697 -1.14399,1.542027 0,0.04133 -1.011845,1.250714 -1.011845,1.250714 l -1.055893,0.91687 -1.407858,1.166852 -2.376079,2.084122 c 0,0 -2.023689,1.333776 -2.067738,1.333776 -0.04404,0 -2.947861,1.042061 -2.947861,1.042061 L 78.94787,97.23911 Z"
     id="Boca"
     class="Boca">
    <title
       id="title32">Boca</title>
  </path>
</svg>
