<?xml version="1.0" encoding="UTF-8" standalone="no"?>
<svg
   xmlns:dc="http://purl.org/dc/elements/1.1/"
   xmlns:cc="http://creativecommons.org/ns#"
   xmlns:rdf="http://www.w3.org/1999/02/22-rdf-syntax-ns#"
   xmlns:svg="http://www.w3.org/2000/svg"
   xmlns="http://www.w3.org/2000/svg"
   xmlns:sodipodi="http://sodipodi.sourceforge.net/DTD/sodipodi-0.dtd"
   xmlns:inkscape="http://www.inkscape.org/namespaces/inkscape"
   version="1.1"
   id="Layer_1"
   x="0px"
   y="0px"
   width="120"
   height="140"
   viewBox="0 0 120 140"
   enable-background="new 0 0 249 332"
   sodipodi:docname="smiling_face.svg"
   inkscape:version="1.0.2-2 (e86c870879, 2021-01-15)">
  <metadata
     id="metadata44">
    <rdf:RDF>
      <cc:Work
         rdf:about="">
        <dc:format>image/svg+xml</dc:format>
        <dc:type
           rdf:resource="http://purl.org/dc/dcmitype/StillImage" />
        <dc:title></dc:title>
      </cc:Work>
    </rdf:RDF>
  </metadata>
  <defs
     id="defs42" />
  <sodipodi:namedview
     pagecolor="#ffffff"
     bordercolor="#666666"
     borderopacity="1"
     objecttolerance="10"
     gridtolerance="10"
     guidetolerance="10"
     inkscape:pageopacity="0"
     inkscape:pageshadow="2"
     inkscape:window-width="1366"
     inkscape:window-height="715"
     id="namedview40"
     showgrid="false"
     scale-x="1"
     inkscape:zoom="3.1675293"
     inkscape:cx="83.017217"
     inkscape:cy="64.693954"
     inkscape:window-x="-8"
     inkscape:window-y="-8"
     inkscape:window-maximized="1"
     inkscape:current-layer="Layer_1" />
  <ellipse
     style="fill:#0874aa;stroke-width:0.451871"
     cx="60.772411"
     cy="87.541183"
     id="circle4"
     rx="56.945179"
     ry="51.75256">
    <title
       id="title2">circulo</title>
  </ellipse>
  <polygon
     style="fill:#fce121;stroke:#d8c11c;stroke-width:3px;stroke-linecap:round;stroke-linejoin:round;stroke-dashoffset:27px;stroke-opacity:0.31;paint-order:fill"
     points="11.576,33.050999 11.646,32.969002 148.51401,0.69999999 148.88499,107.894 207.118,93.057999 206.748,193.946 248.28999,182.077 162.304,323.02399 160.754,245.83299 97.698997,262.15399 96.594002,167.19901 10.534,187.97099 "
     id="Cuerpo"
     class="Cuerpo"
     transform="matrix(0.4586991,0,0,0.41645608,3.8272354,1.0303885)">
    <title
       id="title6">Cuerpo</title>
  </polygon>
  <path
     style="stroke:#000000;stroke-width:0.437067"
     d="m 34.143123,22.516197 -6.44197,-4.067952 -2.890729,-1.249783 -2.523761,-0.750033 -2.661374,-0.625099 h -2.019184 l -2.615506,0.333581 -2.064606,0.624683 -2.065062,0.83333 -1.7435145,0.999912 -1.3770146,1.374718 -1.3306912,2.083111 -0.8715254,1.54131 -0.8261138,2.291334 -0.6431002,2.525396 -0.1729303,2.52164 -0.057801,2.771518 0.2307226,1.249367 0.4027411,1.568786 0.5187816,1.777856 0.6334636,1.621263 0.5183349,1.568786 0.4605333,1.777855 0.3458605,0.470592 0.6912559,-0.627601 -0.1729301,-6.170212 0.2880681,-4.967905 0.9215227,-3.608587 1.5549858,-2.71905 2.361389,-2.61451 3.398497,-1.934856 2.937507,-1.202724 3.628772,-0.41853 2.706786,0.470593 2.649448,0.575123 z"
     id="Ceja_Izq"
     class="Ceja_Izq">
    <title
       id="title9">Ceja_Izq</title>
  </path>
  <path
     style="stroke:#000000;stroke-width:0.437067"
     d="m 37.930138,20.735008 1.778835,-1.979412 1.721042,-1.458429 2.008182,-1.30226 2.06507,-1.041551 1.836171,-1.041976 2.3522,-0.937445 2.237536,-0.520984 2.294871,-0.260284 2.524228,-0.208646 2.237535,0.05203 3.327403,0.468921 1.893507,0.46893 2.294872,0.781277 1.950389,1.354313 2.122854,1.614597 2.122862,2.239706 1.663706,2.60451 1.205006,2.760688 0.401355,2.604521 0.172474,2.447926 v 2.656573 l -0.287147,2.760689 -0.401365,0.989914 -1.262333,-5.052863 -1.319686,-3.906355 -2.696228,-3.802665 -2.811365,-2.916857 -2.926048,-1.875297 -3.327403,-1.406375 -3.098047,-0.781268 -3.327867,-0.156168 h -3.040712 l -2.983383,0.36439 -2.696237,0.729224 z"
     id="Ceja_Der"
     class="Ceja_Der">
    <title
       id="title12">Ceja_Der</title>
  </path>
  <ellipse
     cx="55.201084"
     cy="46.190472"
     rx="16.153547"
     ry="24.032431"
     id="Ojo_Negro_Der"
     class="Ojo_Negro_Der"
     style="stroke-width:0.437067">
    <title
       id="title15">Ojo_Negro_Der</title>
  </ellipse>
  <ellipse
     cx="10.350326"
     cy="55.066341"
     rx="15.579913"
     ry="24.264048"
     transform="matrix(0.95125637,-0.30840124,0.34588124,0.9382783,0,0)"
     id="Ojo_Negro_izq"
     class="Ojo_Negro_izq"
     style="stroke-width:0.43724">
    <title
       id="title18">Ojo_Negro_izq</title>
  </ellipse>
  <ellipse
     style="fill:#ffffff;stroke-width:0.444385"
     cx="43.266262"
     cy="70.047592"
     rx="15.365368"
     ry="20.769531"
     transform="matrix(0.88595286,-0.46377529,0.22405752,0.97457592,0,0)"
     id="Ojo_Blanco_Der"
     class="Ojo_Blanco_Der">
    <title
       id="title21">Ojo_Blanco_Der</title>
  </ellipse>
  <ellipse
     style="fill:#ffffff;stroke-width:0.437235"
     cx="8.9114761"
     cy="58.062401"
     rx="13.8833"
     ry="21.491531"
     transform="matrix(0.91159532,-0.41108877,0.37519631,0.92694537,0,0)"
     id="Ojo_Blanco_Izq"
     class="Ojo_Blanco_Izq">
    <title
       id="title24">Ojo_Blanco_Izq</title>
  </ellipse>
  <ellipse
     cx="55.539143"
     cy="58.39846"
     rx="6.3424335"
     ry="6.6029115"
     id="Iris_Derecho"
     class="Iris_Derecho"
     style="stroke-width:0.437067">
    <title
       id="title27">Iris_Derecho</title>
  </ellipse>
  <ellipse
     cx="13.254849"
     cy="64.577034"
     rx="6.0412107"
     ry="6.686491"
     transform="matrix(0.97955521,-0.20117552,0.28443523,0.95869526,0,0)"
     id="Iris_Izquierdo"
     class="Iris_Izquierdo"
     style="stroke-width:0.437874">
    <title
       id="title30">Iris_Izquierdo</title>
  </ellipse>
  <path
     style="fill:#1f1e1e;stroke:#000000;stroke-width:0.437067"
     d="m 56.19967,98.176266 0.903634,-2.334653 2.01552,0.06332 7.436439,-3.596933 8.340063,-4.921677 5.629614,-3.659819 4.100765,-3.281257 3.40539,-3.659818 -0.694931,-1.577538 6.532799,-1.95609 0.277966,0.44186 -4.100314,1.703719 1.598566,2.460843 1.181615,3.47033 -0.138989,2.713621 -0.69539,2.523726 -1.111884,2.650332 -1.389861,1.892792 -1.737553,1.956089 -2.363213,2.27177 -4.100319,2.902703 -3.82279,1.451348 -2.988425,0.883306 c -0.741263,0.2736 -1.575181,0.50474 -2.50221,0.69423 -1.062344,0.21696 -2.151299,0.19614 -3.266392,-0.0633 -0.821529,-0.19115 -1.701778,-0.38022 -2.640733,-0.56804 -1.339398,-0.26778 -2.659997,-0.60428 -3.961788,-1.009495 -1.109131,-0.345242 -2.128359,-0.870805 -3.058143,-1.577538 q -0.985751,-0.749202 -2.849436,0.126191 z"
     id="Fondo_Boca"
     class="Fondo_Boca">
    <title
       id="title33">Fondo_Boca</title>
  </path>
  <path
     style="fill:#ef3233;stroke:#000000;stroke-width:0.437067"
     d="m 71.791762,99.949533 0.381188,-1.428025 1.715071,-1.816162 1.667827,-1.384716 1.81049,-1.038228 1.286647,-0.692145 1.143538,-0.562217 0.66695,-1.211474 1.04813,-1.167742 1.3816,-1.168157 1.620127,-0.951608 1.429765,-0.519313 1.429301,-0.518905 c 0,0 1.286191,-0.259869 1.3339,-0.259869 0.04768,0 0.810059,0.389383 0.810059,0.389383 l 0.04768,0.822084 -0.905011,1.340991 c 0,0 -1.238939,1.55754 -1.238939,1.600434 0,0.04291 -1.095838,1.298106 -1.095838,1.298106 l -1.143539,0.951587 -1.524709,1.211061 -2.573303,2.163075 c 0,0 -2.191669,1.384301 -2.239369,1.384301 -0.04778,0 -3.192554,1.081537 -3.192554,1.081537 l -2.7632,0.778349 z"
     id="Boca"
     class="Boca">
    <title
       id="title36">Boca</title>
  </path>
</svg>
