<svg enable-background="new 0 0 140 140" height="512" viewBox="0 0 140 140" width="512" xmlns="http://www.w3.org/2000/svg"><circle cx="70" cy="70" fill="#00abee" r="64"/><path d="m110.6920166 44.7725677h-.0100098l-14.3499756-14.3598651c-5.9799805-1.2800293-12.4500122.4099121-17.1000366 5.0499287-5.6199951 5.6300049-6.8899536 13.9500732-3.8199463 20.8099365l-10.9800415 9.7800292-16.4199791-16.4199218-9.1599731-5.6101074-3.5600586 3.5500488 5.6100464 9.1699219 16.0100098 16.0100098-18.5200196 16.5100097c-4.1000366 3.6501465-4.2800293 9.9799805-.4100342 13.8500977l30.8580894 30.8580322c.3873901.006958.770874.0292969 1.1599121.0292969 35.3461914 0 64-28.6538086 64-64 0-.6604004-.0299683-1.3135986-.0498047-1.9691162z" opacity=".1"/><path d="m105.6432037 61.8683052c-7.2887268 7.2887306-19.1119385 7.2887688-26.4062424-.0055351-7.2887344-7.2887344-7.2887039-19.1119461.0000305-26.4006805 4.6408463-4.6408424 11.1177444-6.3257389 17.096611-5.0494938l-9.3431931 9.3431911 1.8193512 12.5341835 12.5341797 1.8193474 9.348793-9.3487968c1.2763826 5.9787292-.4086836 12.466938-5.0495299 17.1077842z" fill="#d5d6db"/><path d="m51.8399048 102.7176666 23.0921478-25.9136124 12.4725113-13.9951706-9.1081161-9.1081161-13.9951706 12.4725113-25.9136162 23.0921478c-4.0921707 3.6442947-4.2769165 9.9758148-.4030457 13.8496857l.0056038.0056c3.8738747 3.8738785 10.2053528 3.6890945 13.8496857-.4030457zm-9.1081124-4.3497314c-1.1084137-1.1084137-1.1083794-2.911087.0000343-4.0194931 1.1140137-1.1140213 2.9109459-1.1083145 4.0193596.0000992 1.1140175 1.1140137 1.1196899 2.9109116.0056725 4.0249329-1.1084137 1.1084136-2.9110527 1.1084823-4.0250664-.005539z" fill="#d5d6db"/><path d="m48.2907677 99.5602341 23.2656212-26.1094284.0112076-.0112076 9.3095703-10.4403992-2.7710648-2.7710648-10.4403687 9.3096009-.0112.0112076-26.1094665 23.2655868c-.9909439.8790131-1.5618935 2.0992889-1.6011848 3.4261703-.0335541 1.3323517.4647217 2.5806808 1.3995934 3.5155563.9404755.9404755 2.1888046 1.4387436 3.521122 1.405159 1.3268813-.0392913 2.5471954-.6102065 3.4261703-1.6011809zm-5.5589753-1.1922989c-1.1084137-1.1084137-1.1083794-2.911087.0000343-4.0194931 1.1140137-1.1140213 2.9109459-1.1083145 4.0193596.0000992 1.1140175 1.1140137 1.1196899 2.9109116.0056725 4.0249329-1.1084137 1.1084136-2.9110527 1.1084823-4.0250664-.005539z" fill="#a8aab2"/><path d="m48.0097771 49.6357346-9.1617241-5.6100922-3.5516663 3.5516701 5.610054 9.1617584 7.0447731 4.3137894 23.3899575 23.4313774 4.3723831-4.3723831-23.3899536-23.4313813z" fill="#4d5c7d"/><path d="m65.165802 86.3836975 22.5004578 22.5004654c1.4878159 1.4878159 3.900116 1.4877701 5.3879242-.0000458l7.0592346-7.0592346c1.4878159-1.4878159 1.4878616-3.9001083.0000458-5.3879242l-22.5004578-22.5004654z" fill="#e56353"/><g fill="#d15241"><path d="m72.4297333 85.5728302c-.6692963.6692963-.6692047 1.7545624 0 2.4237671l16.0961761 16.0961761c.6692047.6692123 1.7544708.6693039 2.4237671 0 .6693039-.6692963.6692123-1.7545547 0-2.4237671l-16.0961685-16.0961761c-.6692123-.6692123-1.7544708-.6692963-2.4237747 0z"/><path d="m76.8021317 81.2004318c-.6692963.6692963-.6692047 1.7545624 0 2.4237671l16.0961761 16.0961761c.6692047.6692123 1.7544708.6693039 2.4237671 0 .6693039-.6692963.6692123-1.7545547 0-2.4237671l-16.0961685-16.0961761c-.6692124-.6692123-1.7544709-.6692962-2.4237747 0z"/><path d="m76.8949738 72.0320435-13.6336213 13.6336212c-.770771.7707672-.7708168 2.0203171-.0000916 2.7910461.7707291.7707214 2.0202713.7706757 2.7910461-.0000916l13.6336213-13.6336212c.7707672-.7707672.770813-2.0203171.0000839-2.7910461-.7707214-.7707214-2.0202712-.7706757-2.7910384.0000916z"/></g></svg>