<svg id="final_svg" xmlns="http://www.w3.org/2000/svg" xmlns:xlink="http://www.w3.org/1999/xlink" viewBox="661.5836181640625 364.4515075683594 394.0789794921875 141.75225830078125">
      <style type="text/css">.st0{fill:url(#SVGID_1_);}</style>
    <g id="color_index_g" transform="translate(661.5836470947268, 364.4526354980469) scale(0.45)" opacity="1">
              <linearGradient id="SVGID_1_" gradientUnits="userSpaceOnUse" x1="66.3604" y1="223.8733" x2="254.1106" y2="36.1595">
                      <stop offset="0" style="stop-color:#efdd68"></stop>
            <stop offset="1" style="stop-color:#ef2400"></stop>
                  </linearGradient>
        <path class="st0" d="M123.85,3.68L3.68,123.85C1.33,126.21,0,129.41,0,132.75v49.51c0,3.34,1.33,6.53,3.68,8.89l120.17,120.17		c4.91,4.91,12.88,4.91,17.79,0l120.17-120.17c2.36-2.36,3.68-5.56,3.68-8.89v-49.51c0-3.34-1.33-6.53-3.68-8.89L141.64,3.68		C136.73-1.23,128.76-1.23,123.85,3.68z M127.49,228.05l-95.28-95.26c-2.9-2.9-2.9-7.61,0-10.51L127.49,27c2.9-2.9,7.61-2.9,10.51,0		l95.26,95.28c2.9,2.9,2.9,7.61,0,10.51L138,228.05C135.1,230.95,130.39,230.96,127.49,228.05z M129.02,136.56H96.92		c-2.63,0-4.37-2.74-3.25-5.12l34.84-74.11c1.14-2.43,4.78-1.76,4.98,0.92l3.57,47.75c0.28,3.75,3.41,6.65,7.17,6.65h32.69		c2.71,0,4.45,2.89,3.17,5.29l-41.76,78.25c-1.32,2.47-5.07,1.42-4.92-1.38l2.8-50.67C136.42,140.02,133.14,136.56,129.02,136.56z"></path>
          </g>
    <g fill="#161616" id="text_group" transform="translate(809.1126296762314, 375.7904354980469)" opacity="1.0">
              <path d="M47.39 21.63L47.39 83.92L44.64 83.92L40.23 77.80Q38.61 79.26 36.80 80.52Q34.99 81.79 32.99 82.73Q30.99 83.67 28.89 84.21Q26.79 84.75 24.63 84.75L24.63 84.75Q19.93 84.75 15.79 82.98Q11.65 81.21 8.55 78.07Q5.45 74.93 3.66 70.62Q1.87 66.32 1.87 61.24L1.87 61.24Q1.87 56.21 3.66 51.88Q5.45 47.55 8.55 44.39Q11.65 41.23 15.79 39.44Q19.93 37.65 24.63 37.65L24.63 37.65Q26.13 37.65 27.73 37.90Q29.33 38.15 30.85 38.71Q32.37 39.27 33.70 40.19Q35.03 41.10 35.95 42.44L35.95 42.44L35.95 21.63L47.39 21.63ZM35.95 61.24L35.95 61.24Q35.95 58.91 35.05 56.73Q34.16 54.54 32.62 52.86Q31.08 51.17 29.02 50.15Q26.96 49.13 24.63 49.13L24.63 49.13Q22.30 49.13 20.24 49.97Q18.18 50.80 16.66 52.36Q15.14 53.92 14.27 56.17Q13.40 58.41 13.40 61.24L13.40 61.24Q13.40 63.70 14.27 65.90Q15.14 68.11 16.66 69.77Q18.18 71.43 20.24 72.39Q22.30 73.35 24.63 73.35L24.63 73.35Q26.96 73.35 29.02 72.33Q31.08 71.31 32.62 69.62Q34.16 67.94 35.05 65.76Q35.95 63.57 35.95 61.24ZM99.18 39.44L99.18 83.92L96.44 83.92L92.03 77.80Q90.41 79.26 88.60 80.52Q86.79 81.79 84.79 82.73Q82.79 83.67 80.69 84.21Q78.59 84.75 76.43 84.75L76.43 84.75Q71.73 84.75 67.59 83.17Q63.45 81.59 60.35 78.57Q57.25 75.55 55.46 71.18Q53.67 66.82 53.67 61.24L53.67 61.24Q53.67 56.04 55.46 51.69Q57.25 47.35 60.35 44.23Q63.45 41.10 67.59 39.38Q71.73 37.65 76.43 37.65L76.43 37.65Q78.59 37.65 80.71 38.19Q82.83 38.73 84.83 39.69Q86.83 40.65 88.64 41.94Q90.45 43.23 92.03 44.72L92.03 44.72L96.44 39.44L99.18 39.44ZM87.74 61.24L87.74 61.24Q87.74 58.91 86.85 56.73Q85.95 54.54 84.41 52.86Q82.88 51.17 80.82 50.15Q78.76 49.13 76.43 49.13L76.43 49.13Q74.10 49.13 72.04 49.92Q69.98 50.72 68.46 52.25Q66.94 53.79 66.07 56.06Q65.19 58.33 65.19 61.24L65.19 61.24Q65.19 64.15 66.07 66.42Q66.94 68.69 68.46 70.23Q69.98 71.77 72.04 72.56Q74.10 73.35 76.43 73.35L76.43 73.35Q78.76 73.35 80.82 72.33Q82.88 71.31 84.41 69.62Q85.95 67.94 86.85 65.76Q87.74 63.57 87.74 61.24ZM146.86 47.35L125.56 73.02Q126.23 73.22 126.89 73.29Q127.56 73.35 128.22 73.35L128.22 73.35Q129.89 73.35 131.43 72.89Q132.97 72.43 134.32 71.58Q135.67 70.73 136.73 69.50Q137.79 68.27 138.46 66.77L138.46 66.77L146.78 75.14Q145.20 77.38 143.14 79.17Q141.08 80.96 138.69 82.21Q136.29 83.46 133.65 84.10Q131.01 84.75 128.22 84.75L128.22 84.75Q123.52 84.75 119.38 83.00Q115.24 81.25 112.14 78.13Q109.04 75.01 107.26 70.71Q105.47 66.40 105.47 61.24L105.47 61.24Q105.47 55.96 107.26 51.59Q109.04 47.22 112.14 44.14Q115.24 41.06 119.38 39.36Q123.52 37.65 128.22 37.65L128.22 37.65Q131.01 37.65 133.67 38.32Q136.34 38.98 138.73 40.23Q141.12 41.48 143.20 43.29Q145.28 45.10 146.86 47.35L146.86 47.35ZM118.16 67.15L131.39 49.59Q130.59 49.30 129.83 49.22Q129.06 49.13 128.22 49.13L128.22 49.13Q125.89 49.13 123.83 49.99Q121.77 50.84 120.26 52.42Q118.74 54.00 117.86 56.23Q116.99 58.45 116.99 61.24L116.99 61.24Q116.99 61.87 117.05 62.66Q117.12 63.45 117.26 64.26Q117.41 65.07 117.61 65.82Q117.82 66.57 118.16 67.15L118.16 67.15ZM163.92 59.37L163.92 83.92L152.56 83.92L152.56 39.36L155.31 39.36L159.05 44.64Q161.80 42.14 165.29 40.79Q168.79 39.44 172.53 39.44L172.53 39.44L182.56 39.44L182.56 50.76L172.53 50.76Q170.74 50.76 169.16 51.42Q167.58 52.09 166.42 53.25Q165.25 54.42 164.59 56.00Q163.92 57.58 163.92 59.37L163.92 59.37ZM201.24 27.25L201.24 27.25Q201.24 28.83 200.64 30.20Q200.03 31.58 198.99 32.60Q197.95 33.62 196.56 34.22Q195.16 34.82 193.58 34.82L193.58 34.82Q192.00 34.82 190.61 34.22Q189.22 33.62 188.20 32.60Q187.18 31.58 186.57 30.20Q185.97 28.83 185.97 27.25L185.97 27.25Q185.97 25.71 186.57 24.32Q187.18 22.92 188.20 21.90Q189.22 20.89 190.61 20.28Q192.00 19.68 193.58 19.68L193.58 19.68Q195.16 19.68 196.56 20.28Q197.95 20.89 198.99 21.90Q200.03 22.92 200.64 24.32Q201.24 25.71 201.24 27.25ZM199.28 39.36L199.28 83.92L187.84 83.92L187.84 39.36L199.28 39.36ZM232.40 83.92L232.40 83.92L206.44 83.92L206.44 72.60L232.40 72.60Q233.56 72.60 234.40 71.77Q235.23 70.93 235.23 69.77L235.23 69.77Q235.23 68.56 234.40 68.19Q233.56 67.81 232.40 67.81L232.40 67.81L220.58 67.81Q217.63 67.81 215.05 66.69Q212.47 65.57 210.56 63.63Q208.64 61.70 207.54 59.12Q206.44 56.54 206.44 53.59L206.44 53.59Q206.44 50.63 207.54 48.05Q208.64 45.47 210.56 43.56Q212.47 41.65 215.05 40.54Q217.63 39.44 220.58 39.44L220.58 39.44L243.59 39.44L243.59 50.76L220.58 50.76Q219.42 50.76 218.59 51.59Q217.76 52.42 217.76 53.59L217.76 53.59Q217.76 54.79 218.59 55.65Q219.42 56.50 220.58 56.50L220.58 56.50L232.40 56.50Q235.31 56.50 237.89 57.48Q240.47 58.45 242.38 60.20Q244.30 61.95 245.42 64.40Q246.55 66.86 246.55 69.77L246.55 69.77Q246.55 72.72 245.42 75.28Q244.30 77.84 242.38 79.78Q240.47 81.71 237.89 82.81Q235.31 83.92 232.40 83.92Z"></path>
          </g>
  </svg>