<?xml version="1.0" encoding="UTF-8" standalone="no" ?>
<!DOCTYPE svg PUBLIC "-//W3C//DTD SVG 1.1//EN" "http://www.w3.org/Graphics/SVG/1.1/DTD/svg11.dtd">
<svg xmlns="http://www.w3.org/2000/svg" xmlns:xlink="http://www.w3.org/1999/xlink" version="1.1" width="474" height="250" viewBox="0 0 474 250" xml:space="preserve">
<g transform="matrix(1.03 0 0 1.03 299.66 135.28)" id="0AzdnioFlJ9E0RoyyKwGc"  >
<path style="stroke: none; stroke-width: 1; stroke-dasharray: none; stroke-linecap: butt; stroke-dashoffset: 0; stroke-linejoin: miter; stroke-miterlimit: 4; fill: rgb(144,144,144); fill-rule: nonzero; opacity: 1;" vector-effect="non-scaling-stroke"  transform=" translate(-308.62, -103.79)" d="M 318.77 86.63 C 312.4205496906397 83.28382077459221 304.82945030936025 83.28382077459221 298.47999999999996 86.63 C 295.55038499293704 88.27922701225053 293.1292270122505 90.70038499293706 291.47999999999996 93.63 C 289.7377063269225 96.71397651387055 288.85371198282195 100.2085166553929 288.91999999999996 103.75 C 288.8499504729065 107.31411435010327 289.73378256952833 110.83218039095328 291.47999999999996 113.93999999999998 C 293.1267502246105 116.87149332583427 295.5485066741657 119.2932497753895 298.47999999999996 120.94 C 304.82945030936025 124.28617922540778 312.4205496906397 124.28617922540778 318.77 120.94 C 321.69743870224954 119.2879062134799 324.1179062134799 116.86743870224959 325.77 113.94 C 329.1835059907247 107.58964687126524 329.1835059907247 99.95035312873473 325.77 93.6 C 324.1135692880273 90.68359877715291 321.69348852528316 88.27388978910628 318.77 86.63 Z" stroke-linecap="round" />
</g>
<g transform="matrix(1.03 0 0 1.03 353.67 135.23)" id="u7Bq5yNNfxBN7bqeVMSrD"  >
<path style="stroke: none; stroke-width: 1; stroke-dasharray: none; stroke-linecap: butt; stroke-dashoffset: 0; stroke-linejoin: miter; stroke-miterlimit: 4; fill: rgb(144,144,144); fill-rule: nonzero; opacity: 1;" vector-effect="non-scaling-stroke"  transform=" translate(-361.18, -103.74)" d="M 370.83 86.51 C 364.8243673336785 83.137642255696 357.4956326663215 83.137642255696 351.49 86.51000000000002 C 348.67736361589795 88.19119869690857 346.3804938592939 90.612597536702 344.85 93.51000000000002 C 341.6437484735741 99.94612997530831 341.6437484735741 107.5138700246917 344.85 113.95000000000002 C 346.37626123838453 116.85043760677118 348.6741094306938 119.2728679299888 351.49 120.95 C 357.5023428660373 124.3375363748486 364.84765713396274 124.33753637484858 370.86 120.94999999999999 C 373.66909773863824 119.2643866349156 375.96491095801855 116.84410161448456 377.5 113.95 C 380.7267059401364 107.5186981450465 380.7267059401364 99.94130185495351 377.5 93.51 C 375.9566984790653 90.61201203075808 373.6501436649348 88.19133981203038 370.83 86.51 Z" stroke-linecap="round" />
</g>
<g transform="matrix(1.03 0 0 1.03 410.11 135.25)" id="3DvI7-nH73XrOgLrO7nUg"  >
<path style="stroke: none; stroke-width: 1; stroke-dasharray: none; stroke-linecap: butt; stroke-dashoffset: 0; stroke-linejoin: miter; stroke-miterlimit: 4; fill: rgb(144,144,144); fill-rule: nonzero; opacity: 1;" vector-effect="non-scaling-stroke"  transform=" translate(-416.13, -103.76)" d="M 426.26 86.63 C 419.9105496906397 83.28382077459221 412.31945030936026 83.28382077459221 405.96999999999997 86.63 C 403.04038499293705 88.27922701225053 400.6192270122505 90.70038499293706 398.96999999999997 93.63 C 397.2277063269225 96.71397651387055 396.34371198282196 100.2085166553929 396.40999999999997 103.75 C 396.3580156406038 107.29997217868343 397.25195550132173 110.79979850597266 399 113.89 C 400.6467502246105 116.82149332583427 403.06850667416575 119.2432497753895 406 120.89 C 412.3494503093603 124.23617922540778 419.9405496906397 124.23617922540778 426.29 120.89 C 429.2174387022496 119.2379062134799 431.63790621347994 116.81743870224958 433.29 113.89 C 436.70350599072475 107.53964687126526 436.70350599072475 99.90035312873474 433.29 93.54999999999998 C 431.6181679915954 90.6480343681783 429.18796894742854 88.25586119810228 426.26 86.63 Z" stroke-linecap="round" />
</g>
<g transform="matrix(1.03 0 0 1.37 329.52 135.04)" id="yArptidJ7iiwrCk7vROe7"  >
<path style="stroke: none; stroke-width: 1; stroke-dasharray: none; stroke-linecap: butt; stroke-dashoffset: 0; stroke-linejoin: miter; stroke-miterlimit: 4; fill: rgb(144,144,144); fill-rule: nonzero; opacity: 1;" vector-effect="non-scaling-stroke"  transform=" translate(-335.42, -103.75)" d="M 335.41 101.4 C 335.35 102.17 335.32000000000005 102.95 335.32000000000005 103.75 C 335.32000000000005 104.55 335.32000000000005 105.32 335.41 106.09 C 335.47 105.32000000000001 335.51000000000005 104.55 335.51000000000005 103.75 C 335.51000000000005 102.95 335.47 102.17 335.41 101.4 Z" stroke-linecap="round" />
</g>
<g transform="matrix(1.03 0 0 1.03 236.5 131.59)" id="6jpZG8UG1JcCpxyGP-zdM"  >
<path style="stroke: none; stroke-width: 1; stroke-dasharray: none; stroke-linecap: butt; stroke-dashoffset: 0; stroke-linejoin: miter; stroke-miterlimit: 4; fill: rgb(144,144,144); fill-rule: nonzero; opacity: 1;" vector-effect="non-scaling-stroke"  transform=" translate(0, 0)" d="M -77.10591 -88.1008 C -129.44591 -75.86080000000001 -170.58591 -62.750800000000005 -199.04591 -49.150800000000004 L -178.1 -25.431540000000005 L -178.1 -37.844550000000005 L -145.67917 -37.844550000000005 L -116.37684999999999 -37.844550000000005 L -116.37684999999999 -27.302850000000007 L -140.82488999999998 -27.302850000000007 L -140.82488999999998 27.799209999999995 L -153.56606 27.799209999999995 L -153.56606 -27.302850000000007 L -178.09999 -27.302850000000007 L -199.0459 -49.15079000000001 C -272.3459 -3.690790000000007 -222.1359 55.799209999999995 42.89410000000001 95.29920999999999 C 356.8841 142.09920999999997 246.3741 -163.76079000000001 -77.10589999999999 -88.10079000000002 z M -57.36591 6.2992 C -57.36591 14.39253 -59.57258 20.25587 -63.98591 23.8892 C -68.39923999999999 27.52253 -75.54924 29.339199999999998 -85.43590999999999 29.339199999999998 C -95.33591 29.339199999999998 -102.48924 27.52253 -106.89590999999999 23.8892 C -109.37366999999999 21.77834 -112.19448999999999 16.07291 -112.67852999999998 6.967759999999998 C -113.16256999999997 -2.137380000000002 -113.50590999999999 -20.730800000000002 -113.50590999999999 -20.730800000000002 L -93.78590999999999 -20.730800000000002 L -93.78590999999999 1.3691999999999993 C -93.78590999999999 5.8191999999999995 -93.15590999999999 8.9492 -91.90590999999999 10.729199999999999 C -90.65590999999999 12.509199999999998 -88.48590999999999 13.409199999999998 -85.38591 13.409199999999998 C -82.28591 13.409199999999998 -80.17591 12.519199999999998 -78.94591 10.729199999999999 C -77.71591 8.9392 -77.09591 5.819199999999999 -77.09591 1.3691999999999993 L -77.09591 -20.730800000000002 L -57.36591 -20.730800000000002 z M 38.55409 27.7992 L -1.4459099999999978 27.7992 L -1.4459099999999978 -50.410799999999995 L 5.754090000000002 -50.410799999999995 L 5.754090000000002 21.4692 L 38.52409000000001 21.4692 z M 141.55409 29.1292 C 141.70964 33.86022 140.61263 38.54838 138.37409 42.7192 C 136.28575 46.37372 133.11255 49.28831 129.29408999999998 51.059200000000004 C 124.87771999999998 53.04017 120.07278999999998 54.003890000000006 115.23408999999998 53.879200000000004 C 109.10075999999998 53.879200000000004 103.91741999999998 52.6792 99.68408999999998 50.2792 C 95.48371999999998 47.91145 92.17754999999998 44.22934 90.27408999999999 39.7992 L 96.11408999999999 37.099199999999996 C 97.63969999999999 40.500009999999996 100.23469999999999 43.30920999999999 103.50408999999999 45.099199999999996 C 107.08827 47.125429999999994 111.14728 48.1609 115.26409 48.099199999999996 C 118.70443 48.15875 122.11019999999999 47.404959999999996 125.20409 45.89919999999999 C 128.0725 44.476729999999996 130.47376 42.26284999999999 132.12409 39.51919999999999 C 133.88132 36.48574999999999 134.76073 33.023529999999994 134.66409 29.51919999999999 L 134.66409 17.579199999999993 C 132.72477999999998 21.160509999999995 129.84457999999998 24.144449999999992 126.33408999999999 26.209199999999996 C 122.76738999999999 28.309789999999996 118.69305999999999 29.392359999999996 114.55408999999999 29.339199999999995 C 110.2408 29.398539999999993 105.99712999999998 28.248419999999996 102.30408999999999 26.019199999999994 C 98.64119 23.804489999999994 95.64274999999999 20.643689999999992 93.62409 16.869199999999992 C 91.79102999999999 13.475889999999993 90.72913 9.719969999999993 90.51409 5.869199999999992 C 90.27947999999999 9.788299999999992 89.11023999999999 13.594329999999992 87.10409 16.969199999999994 C 84.76858 20.818609999999993 81.43378 23.963339999999995 77.45409 26.069199999999995 C 68.85519 30.429209999999994 58.692989999999995 30.429209999999994 50.094089999999994 26.069199999999995 C 46.11673999999999 23.960079999999994 42.78272 20.816079999999996 40.444089999999996 16.969199999999994 C 35.711059999999996 8.641379999999995 35.711059999999996 -1.5629800000000067 40.444089999999996 -9.890800000000006 C 42.783199999999994 -13.732210000000006 46.117549999999994 -16.869610000000005 50.094089999999994 -18.970800000000004 C 58.68988999999999 -23.343780000000002 68.85829 -23.343780000000002 77.45409 -18.970800000000004 C 81.43267999999999 -16.872480000000003 84.76772 -13.734430000000003 87.10409 -9.890800000000004 C 89.13455 -6.527100000000004 90.32160999999999 -2.722330000000004 90.56409 1.1991999999999958 C 90.79382 -2.613540000000004 91.84443999999999 -6.331670000000004 93.64408999999999 -9.700800000000005 C 95.66841 -13.472600000000003 98.65660999999999 -16.640220000000006 102.30408999999999 -18.880800000000004 C 106.04254999999999 -21.123890000000003 110.33493999999999 -22.274070000000005 114.69408999999999 -22.200800000000005 C 118.80604 -22.275040000000004 122.86186 -21.238630000000004 126.43408999999998 -19.200800000000005 C 129.92215 -17.184350000000006 132.77375999999998 -14.228790000000004 134.66409 -10.670800000000005 L 134.66409 -20.730800000000006 L 141.58408999999997 -20.730800000000006 z M 194.55409 16.9492 C 192.21858 20.79861 188.88378 23.94334 184.90409 26.0492 C 176.30518999999998 30.409209999999998 166.14299 30.409209999999998 157.54408999999998 26.0492 C 153.56673999999998 23.94008 150.23271999999997 20.79608 147.89408999999998 16.949199999999998 C 143.16105999999996 8.621379999999998 143.16105999999996 -1.5829800000000027 147.89408999999998 -9.910800000000002 C 150.23319999999998 -13.752210000000002 153.56754999999998 -16.88961 157.54408999999998 -18.9908 C 166.13988999999998 -23.36378 176.30828999999997 -23.36378 184.90409 -18.9908 C 188.88268 -16.89248 192.21771999999999 -13.75443 194.55409 -9.9108 C 199.30119 -1.5867000000000004 199.30119 8.625100000000002 194.55409 16.949199999999998 z" stroke-linecap="round" />
</g>
</svg>