<svg enable-background="new 0 0 140 140" height="512" viewBox="0 0 140 140" width="512" xmlns="http://www.w3.org/2000/svg"><circle cx="70" cy="70" fill="#de594e" r="64"/><path d="m98.9666824 41.3398743c-.0400391-.0400391-.0900269-.0600586-.1400146-.0800781-.0300293-.0200195-.0499878-.0200195-.0700073-.0300293-.039978-.0198975-.0800171-.0299072-.1199951-.0299072-.0100098-.0100098-.0299683-.0100098-.039978-.0100098-.0200195-.0100098-.0400391-.0200195-.0599976-.0200195l-7.3400269-.8900146c-.5100098-.0599365-1 .3100586-1.0700073.8400879-.0299683.25.0400391.5.1900024.6899414l.210022.2099609 3.0700073 3.0800781c-4.1400146 3.5100098-8.3000488 6.5999756-12.4899902 9.2700195l-15.3400269-15.3400879-.0300293.0600586c-2.1799927-2.2199707-5.2299805-3.6000977-8.5999756-3.6000977-4.3400269 0-8.1500244 2.2800293-10.2700195 5.7200928l-5.6699829-5.6700439h-3.2000122v68.9699707l29.4248657 29.4250488c.8564453.0339355 1.7136841.0651855 2.5784912.0651855 33.3016968 0 60.6524124-25.4377441 63.7063675-57.9406738l-34.5897293-34.5894775c-.0499878-.0500489-.0899658-.0899659-.1499634-.1300049z" opacity=".1"/><path d="m60.9439926 73.7238541h9.5745697c.5601196 0 1.0141907.454071 1.0141907 1.0141907v28.8359451h-11.6029472v-28.8359452c0-.5601196.4540672-1.0141906 1.0141868-1.0141906z" fill="#d5d6db"/><path d="m101.6053467 56.5979271v46.9760628h-11.6029434v-46.9760628c0-.5601196.4540634-1.0141869 1.014183-1.0141869h9.5745773c.5601197 0 1.0141831.4540673 1.0141831 1.0141869z" fill="#44c4a1"/><path d="m45.907692 79.854866h9.5745735c.5601234 0 1.0141907.4540634 1.0141907 1.014183v22.7049408h-11.602951v-22.7049407c-.0000001-.5601197.4540671-1.0141831 1.0141868-1.0141831z" fill="#27a2db"/><path d="m75.9802933 64.5273361h9.5745697c.5601196 0 1.0141907.454071 1.0141907 1.0141907v38.0324631h-11.602951v-38.0324631c-.0000001-.5601196.4540709-1.0141907 1.0141906-1.0141907z" fill="#feda6f"/><path d="m99.3675919 42.2390938-.0076752.0842934-.8814392 7.2576065c-.0611877.4828186-.4750595.8429947-.9503021.8429947-.0382614 0-.0765228 0-.1148834-.0076714-.5287552-.0613251-.8966904-.5440979-.8354187-1.0652733l.5824585-4.8051491c-16.913887 15.0132866-34.0884018 23.0372658-52.4354057 24.524044h-.0767136c-.4980698 0-.9196129-.3755188-.9579697-.8736801-.0382614-.5288086.3525963-.9962845.8814468-1.0345917 18.0327606-1.4638062 34.9466438-9.4340897 51.6536827-24.3401184l-5.2649994-.6361046c-.5211792-.0689964-.896698-.5441437-.8353271-1.0652733.0689468-.5288048.5594406-.9043198 1.0728531-.8353271l7.3342743.8889771c.0230103 0 .0460281.0076714.0613708.0153427.0153427 0 .0305939 0 .0382614.0076714.0459366 0 .0842896.0152969.1226501.0306396.0230103.0076714.0460205.0153427.0689468.0306358.0536041.0230141.0996323.0459824.1456604.0843391.0536041.0383072.0995331.0766182.1455612.1225967.1915971.1992685.2912294.4828225.252968.774048z" fill="#dbd8dd"/><circle cx="57.138" cy="47.583" fill="#f7be56" r="12.093"/><circle cx="57.138" cy="47.584" fill="#fcd462" r="10.175"/><path d="m57.6830215 53.555294v.5733223c0 .2962265-.2388954.5446854-.5447426.5446854-.305851 0-.5447464-.2484589-.5447464-.5446854v-.563755c-1.3472786-.2293282-2.4175186-1.2709351-2.6755447-2.6087646-.0668373-.3344269.2007523-.6306534.5350647-.6306534.2675896 0 .4873505.191124.5447426.4490929.2388954 1.1467018 1.38554 1.968483 2.6565323 1.6722565.7930832-.1815605 1.4429283-.8313446 1.6148682-1.6244316.3249779-1.4524956-.8026543-2.7425003-2.2170029-2.6851692-.9650269.0286369-1.9301682-.3153572-2.4747963-1.1085014-1.6722565-2.4462738-.2103157-5.045414 2.0161362-5.4181023v-.5733795c0-.2962265.2388954-.5446281.5447464-.5446281.3058472 0 .5447426.2484016.5447426.5446281v.5638161c1.3472786.2293282 2.4175186 1.2709312 2.6755447 2.6087036.0668373.3344879-.2007523.6402779-.5350647.6402779-.2675896 0-.4873505-.2006912-.5447426-.4587173-.2388954-1.1467018-1.38554-1.968483-2.646965-1.6818237-.8026505.1815643-1.4524956.8314056-1.6244354 1.6340561-.3249779 1.4524956.8026543 2.7425003 2.2170029 2.6947365.9650269-.0382042 1.9301682.3057899 2.4747963 1.0989342 1.6722564 2.4462735.2103156 5.0454136-2.0161363 5.4181019z" fill="#f7be56"/><path d="m106.969986 101.5739899v2.935234h-68.9738655v-68.9738655h3.1957283v66.0386315z" fill="#3a556a"/></svg>