<svg enable-background="new 0 0 140 140" height="512" viewBox="0 0 140 140" width="512" xmlns="http://www.w3.org/2000/svg"><circle cx="70" cy="70" fill="#4abba4" r="64"/><path d="m63.1048088 24.5440655h-.1900024c-10.1300049.1699219-15.9700317 6.1999512-15.9700317 14.3300762 0 .5998535.0400391 1.2199707.1000366 1.8398438.2399902 2.3200684.5899658 4.5700684.8899536 6.3000488-.0199585.0100098-.039978 0-.0599976 0-.9899902.1999512-1.5099487 1.8100586-1.1599731 3.6101074.2299805 1.1799316.7700195 2.1298828 1.3900146 2.6098633l2.9799805 2.9699707c1.3800049 2.630127 3.1199951 5.0300293 5.1199951 6.8000488v3.0300331l-2.5700073 2v-.0200195l-3.7600098 1.8400879c-3.6699829 1.5300293-8.3699951 3.8200684-12.1099854 6.7199707-.8599854.6699219-1.4899902 1.5800781-1.7799683 2.6298828-.4900513 1.7600098-1.2400513 5.0900879-1.8200073 10.5400391-.9299927 8.8601074-.460022 15.2399902-.460022 15.2399902l28.5304565 28.5305176c2.5455284.3081055 5.1314049.4851074 7.7599449.4853516h.0096436c29.8677368-.0021973 54.9528809-20.465332 62.0103226-48.135498l-56.4303664-56.4304219c-2.7299805-2.959961-6.9699707-4.7998047-12.4799767-4.8898926z" opacity=".1"/><path d="m56.201859 59.226265h13.765844v16.182224h-13.765844z" fill="#d6b24e"/><path d="m92.0299377 89.7344513c-.5733795-5.447319-1.3229828-8.7807083-1.815773-10.5416718-.2926865-1.0460739-.9195099-1.9589615-1.7783203-2.6240768-7.22995-5.5994492-18.026535-8.9215851-18.026535-8.9215851l-7.3105469 7.7615662v.0044174l-7.3084373-7.7592468s-10.7966919 3.3220215-18.0265388 8.9215775c-.8588066.665123-1.4856339 1.5779037-1.7783203 2.6240845-.4927902 1.7607498-1.2423935 5.0943451-1.815876 10.5415649-.9331894 8.8660278-.4664917 15.2432785-.4664917 15.2432785l29.3956642-.0066299h29.3977737c0-.0000001.4666976-6.37735-.4665986-15.2432786z" fill="#293b44"/><path d="m72.5602722 68.3826218c-1.3339615-.4843521-2.1507568-.734726-2.1507568-.734726l-7.3101273 7.7624893v.0026093l-7.3079758-7.7597351s-.8167915.2503662-2.150753.7347183c-1.0096893.3611984-2.3149414.8537216-3.7843323 1.4735031l.8828278 10.9918976 1.5456505 2.6031876.4067421 3.3353043c3.4560013 13.3724823 10.4093056 18.1842117 10.4093056 18.1842117l.0006905.0007324c.0463943-.0322723 6.963459-4.8627701 10.4078941-18.1903l.4067383-3.3353577 1.5456009-2.6031876.8828278-10.9918518c-1.469391-.6197814-2.7746431-1.112297-3.7843324-1.4734954z" fill="#dbd8dd"/><path d="m64.58815 75.4084854h-3.1859894l-1.5929985 2.8058624 1.5929985 4.2835923h3.1859894l1.5930023-4.2835923z" fill="#dd584d"/><path d="m69.9990845 66.0289841-6.9003182 9.3797378 4.8266487 5.7759934 5.5811463-12.4254837z" fill="#ededed"/><path d="m56.2018585 66.0343628 6.9003182 9.3797378-4.8266487 5.7759934-5.5811501-12.4254837z" fill="#ededed"/><path d="m65.6932449 102.5815506-2.5917015 2.3952637-2.7978554-3.3181305 1.063057-19.539856h3.2568207z" fill="#dd584d"/><path d="m50.9276047 84.0958633-1.2026367 2.5530319c3.4560013 13.3724289 13.375885 18.3271866 13.375885 18.3271866-8.619442-12.7896194-9.3945465-33.5712891-9.4601822-36.5880814-.0082169-.2421494-.0082169-.3694153-.0082169-.3694153l-3.7761154 1.8429108-1.4817657 12.4325333z" fill="#344d5b"/><path d="m75.2733383 84.0904846 1.2026367 2.5530319c-3.4560013 13.3724289-13.3765869 18.3348007-13.3765869 18.3348007 8.6194382-12.7896271 9.3952484-33.5789032 9.4608841-36.5956955.0082169-.242157.0082169-.3694153.0082169-.3694153l3.7761154 1.8429108 1.4817657 12.4325333z" fill="#344d5b"/><path d="m78.5481415 47.0173798c-.9902954-.1917801-2.0759583 1.1132393-2.4248352 2.9147339-.3488922 1.8015823.1710968 3.4175529 1.1613922 3.609333.9903412.1917877 2.0759583-1.1132393 2.4248505-2.9148254.3488769-1.8014908-.1710663-3.4174538-1.1614075-3.6092415z" fill="#feda6f"/><path d="m47.875946 47.0173798c.9902954-.1917801 2.0759621 1.1132393 2.4248352 2.9147339.348896 1.8015823-.1710968 3.4175529-1.1613922 3.609333-.9903412.1917877-2.0759621-1.1132393-2.4248543-2.9148254-.3488769-1.8014908.1710702-3.4174538 1.1614113-3.6092415z" fill="#feda6f"/><path d="m77.7441254 44.0094185c0-6.1531181-3.4349823-9.0974731-8.5602798-10.6319351v.7403488l-6.2645683-5.2300625c-7.8134689.4965019-15.2366791 7.1035557-15.2366791 15.0781651 0 1.7207222.2835045 3.6497421.8130608 5.63517 2.0422745 7.8291855 7.8478394 16.4333878 14.7122192 16.4333878 6.9401779 0 12.8212509-8.8692017 14.7878723-16.7924004.4728545-1.8532181-.2516251-3.6059647-.2516251-5.2326737z" fill="#fcd462"/><path d="m63.1021156 24.54883v-.0091076c-.0312881.0005875-.0600815.0041122-.0913696.0046997-.0312881-.0005875-.0600777-.0041122-.0913658-.0046997v.0091076c-10.884594.1703968-16.8109055 7.1208591-15.8737183 16.1648617.5114861 4.9359512 1.499939 9.565773 1.499939 9.565773h.9473228s.5526199-5.2937851 1.4210587-10.9586258c.8058624-5.2567711 10.5955009-3.8786049 12.0053978-3.6523857v.0302582s.0477409-.0082245.0913658-.0155716c.0436287.0073471.0913696.0155716.0913696.0155716v-.0302582c1.409893-.2262192 11.1995354-1.6043854 12.0053978 3.6523857.8684387 5.6648407 1.4210587 10.9586258 1.4210587 10.9586258h.9471741s.9886017-4.6298218 1.5000839-9.565773c.9371872-9.0440025-4.9892731-15.9944649-15.8737145-16.1648617z" fill="#344d5b"/><path d="m109.1608124 98.868309c-.1884232.2082825-.3869019.4166794-.5852509.615036-7.2614288 7.2516174-19.0664291 7.2516174-26.327858 0-.1984711-.1983566-.3968201-.4067535-.5852432-.615036-6.6662445-7.3011475-6.4778214-18.6595535.5852432-25.712822 7.2614288-7.2614212 19.0664291-7.2614212 26.327858 0 7.0630722 7.0532685 7.2514954 18.4116746.5852509 25.712822z" fill="#f7be56"/><path d="m106.1613541 96.1298981c-.147316.1628418-.3024902.3257828-.4575729.4808655-5.6773071 5.669632-14.9069901 5.669632-20.5842972 0-.1551743-.1550827-.310257-.3180237-.4575729-.4808655-5.2119675-5.7083588-5.0646515-14.5888748.4575729-20.1034317 5.6773071-5.6773071 14.9069901-5.6773071 20.5842972 0 5.5222244 5.5145569 5.6695403 14.3950729.4575729 20.1034317z" fill="#fcd462"/><path d="m94.834053 97.217514v-2.1659164c-1.0829544-.1363678-1.9633636-.3790359-2.6412125-.7279892s-1.2634506-.9124908-1.7567978-1.6906128c-.4933472-.7781296-.7801285-1.7287216-.8603516-2.8517914l2.177948-.4091187c.1684647 1.1631775.465271 2.0175095.8904343 2.5630035.6096649.7701035 1.3396606 1.1992722 2.1899796 1.2875137v-6.8948287c-.8904266-.1684647-1.8009186-.5134048-2.7314606-1.0348282-.6898804-.3850555-1.2213364-.9185104-1.5943527-1.6003723s-.5595245-1.4559784-.5595245-2.3223419c0-1.5402069.5454865-2.7876129 1.636467-3.742218.7299957-.6417542 1.8129501-1.0348282 3.2488708-1.1792221v-1.0348282h1.2754898v1.0348282c1.2594376.1203232 2.2581635.4893341 2.9961777 1.1070251.9465866.7861404 1.5161438 1.8650894 1.7086716 3.2368393l-2.2381134.3369217c-.1283493-.8503265-.3950806-1.5021057-.8001862-1.9553452s-.9606247-.7520523-1.6665497-.8964462v6.2450562c1.0909729.2727432 1.8129501.4853287 2.1659088.6377411.6738434.296814 1.2233429.6577988 1.6485062 1.082962.4251633.4251556.7520523.9305344.9806824 1.5161362.2286224.5856018.3429337 1.2193298.3429337 1.9011917 0 1.5000992-.4773026 2.7515182-1.4319153 3.7542572-.9546051 1.002739-2.1899796 1.5402069-3.7061157 1.6124039v2.1899796h-1.2754899zm0-18.9637985c-.8423004.1283569-1.5061111.465271-1.9914398 1.0107651-.485321.5454865-.7279816 1.1912537-.7279816 1.937294 0 .7380142.2065582 1.3556976.6196899 1.8530579.4131241.4973602 1.1130371.8944397 2.0997314 1.1912537v-5.9923707zm1.2754898 14.9688873c.8423004-.1042862 1.5382004-.4692841 2.0876999-1.094986.5494995-.6257095.8242493-1.399826.8242493-2.3223495 0-.7861481-.1945267-1.4178696-.5835953-1.8951721-.389061-.4773026-1.165184-.9044724-2.3283539-1.2815018z" fill="#f7be56"/></svg>