<svg id="Layer_1" enable-background="new 0 0 140 140" height="512" viewBox="0 0 140 140" width="512" xmlns="http://www.w3.org/2000/svg" xmlns:x="http://ns.adobe.com/Extensibility/1.0/" xmlns:i="http://ns.adobe.com/AdobeIllustrator/10.0/" xmlns:graph="http://ns.adobe.com/Graphs/1.0/"><path d="m134 70c0 2.5595703-.1499634 5.0898438-.4400024 7.5698242-3.5199585 29.8398438-27.5499878 53.3798828-57.5999756 56.1499023-1.960022.1899415-3.9500122.2802735-5.960022.2802735-35.3399658 0-64-28.6503906-64-64 0-35.340332 28.6600342-64 64-64 35.3500366 0 64 28.659668 64 64z" fill="#344d5b"/><path d="m133.5599976 77.5698242c-3.5199585 29.8398438-27.5499878 53.3798828-57.5999756 56.1499023l-43.1900025-43.1899413v-9.8500977l-4.7200317-4.7197266 6.0500488-32.0102539c4 .7602539 7.8499756-1.8701172 8.6099854-5.8701172l63.3200073 11.9604492z" opacity=".1"/><path d="m106.0300217 50.0390472-63.3200074-11.9609375c-.7555542 4-4.6119995 6.6313477-8.6122437 5.8754883l-6.0465698 32.0102539c4.0002441.7553711 6.6312256 4.6118164 5.8756104 8.6123047l63.3200073 11.9609375c.7556152-4.0004883 4.6118164-6.6313477 8.6121826-5.8754883l6.0465088-32.0102539c-4.0002441-.7558593-6.6311035-4.6123047-5.8754882-8.6123047z" fill="#f7c74d"/><path d="m104.5799789 50.5820351h-64.4397316c0 4.0707703-3.3010559 7.3720245-7.3720284 7.3720245v32.5761757c4.0709724 0 7.3720284 3.3008575 7.3720284 7.3720322h64.4397278c0-4.0711746 3.3009491-7.3720322 7.3720245-7.3720322v-32.5761757c-4.0710716 0-7.3720207-3.3012543-7.3720207-7.3720245z" fill="#feda6f"/><path d="m42.971 61.745h58.778v24.994h-58.778z" fill="#f7c74d"/><path d="m54.9730186 78.3355255v-7.2206497h-2.6972771v-.9661102h6.4890976v.9661102h-2.7084427v7.2206497z" fill="#feda6f"/><path d="m60.0604248 78.3355255v-8.1867599h1.0833778v8.1867599z" fill="#feda6f"/><path d="m68.8949814 75.4651337 1.083374.2736435c-.2270966.8897781-.6356888 1.5682907-1.2257767 2.0355148-.5900879.4672318-1.311409.7008438-2.1639633.7008438-.8823395 0-1.5999374-.1796265-2.1527939-.5388947-.5528603-.3592606-.9735527-.8795471-1.2620811-1.5608444s-.4327927-1.4128571-.4327927-2.1946793c0-.8525543.1628799-1.5962143.488636-2.2309723.3257561-.6347656.7892685-1.1168823 1.3905182-1.4463654.6012573-.329483 1.2630157-.4942245 1.9852676-.4942245.819046 0 1.5077896.2084885 2.0662308.6254578s.9474945 1.003334 1.1671448 1.7590942l-1.0666275.251297c-.1898651-.5956726-.4653625-1.0293961-.8264923-1.3011703-.3611221-.2717743-.8153229-.4076614-1.3625946-.4076614-.6291809 0-1.1550446.1507797-1.5775986.4523392s-.7194595.7064285-.8907166 1.2146072c-.171257.5081863-.2568855 1.0321884-.2568855 1.5720139 0 .6961975.1014519 1.3039627.3043556 1.8233185.2028961.5193481.5184174.9074631.9465561 1.1643524.4281387.2568817.8916473.3853226 1.3905182.3853226.606842 0 1.1206055-.1749802 1.5413055-.5249329.4206925-.3499604.7054978-.8693085.854416-1.5580597z" fill="#feda6f"/><path d="m71.2683563 78.3355255v-8.1867599h1.0833817v4.0598755l4.0654526-4.0598755h1.4687042l-3.4344177 3.3171463 3.5851974 4.8696136h-1.4296112l-2.9150696-4.1436386-1.3402557 1.3067551v2.8368835z" fill="#feda6f"/><path d="m78.9636917 78.3355255v-8.1867599h5.919487v.9661102h-4.836113v2.5074005h4.5289688v.9605255h-4.5289688v2.7866211h5.0259781v.9661026z" fill="#feda6f"/><path d="m88.6526566 78.3355255v-7.2206497h-2.6972733v-.9661102h6.4890976v.9661102h-2.7084427v7.2206497z" fill="#feda6f"/><g fill="#f7c74d"><path d="m60.9731407 55.10569-1.6078033-.2336121-.7190247-1.456871-.7190246 1.456871-1.6077424.2336121 1.163414 1.1339302-.2747001 1.6014061 1.4380531-.7560387 1.4380531.7560387-.2746391-1.6014061z"/><path d="m67.8300247 55.10569-1.6078033-.2336121-.7190247-1.456871-.7190246 1.456871-1.6077424.2336121 1.1634141 1.1339302-.2746964 1.6014061 1.4380493-.7560387 1.4380493.7560387-.2746353-1.6014061z"/><path d="m74.6869125 55.10569-1.6078033-.2336121-.7190323-1.456871-.7190247 1.456871-1.6077346.2336121 1.163414 1.1339302-.274704 1.6014061 1.4380493-.7560387 1.438057.7560387-.2746354-1.6014061z"/><path d="m81.5437927 55.10569-1.6078033-.2336121-.7190247-1.456871-.7190246 1.456871-1.6077423.2336121 1.163414 1.1339302-.2746964 1.6014061 1.4380493-.7560387 1.4380493.7560387-.2746353-1.6014061z"/><path d="m88.4006805 55.10569-1.6078033-.2336121-.7190323-1.456871-.7190246 1.456871-1.6077347.2336121 1.163414 1.1339302-.274704 1.6014061 1.4380493-.7560387 1.438057.7560387-.274643-1.6014061z"/><path d="m60.9731407 92.3337555-1.6078033-.2336121-.7190247-1.456871-.7190246 1.456871-1.6077424.2336121 1.163414 1.133934-.2747001 1.6014023 1.4380531-.7560425 1.4380531.7560425-.2746391-1.6014023z"/><path d="m67.8300247 92.3337555-1.6078033-.2336121-.7190247-1.456871-.7190246 1.456871-1.6077424.2336121 1.1634141 1.133934-.2746964 1.6014023 1.4380493-.7560425 1.4380493.7560425-.2746353-1.6014023z"/><path d="m74.6869125 92.3337555-1.6078033-.2336121-.7190323-1.456871-.7190247 1.456871-1.6077346.2336121 1.163414 1.133934-.274704 1.6014023 1.4380493-.7560425 1.438057.7560425-.2746354-1.6014023z"/><path d="m81.5437927 92.3337555-1.6078033-.2336121-.7190247-1.456871-.7190246 1.456871-1.6077423.2336121 1.163414 1.133934-.2746964 1.6014023 1.4380493-.7560425 1.4380493.7560425-.2746353-1.6014023z"/><path d="m88.4006805 92.3337555-1.6078033-.2336121-.7190323-1.456871-.7190246 1.456871-1.6077347.2336121 1.163414 1.133934-.274704 1.6014023 1.4380493-.7560425 1.438057.7560425-.274643-1.6014023z"/></g></svg>