<svg enable-background="new 0 0 140 140" height="512" viewBox="0 0 140 140" width="512" xmlns="http://www.w3.org/2000/svg"><circle cx="70" cy="70" fill="#344d5b" r="64"/><path d="m100.7899246 37.0201874c-1.9832764-2.7570801-5.2128906-4.5595703-8.87323-4.5595703-6.0300293 0-10.9200439 4.8901367-10.9200439 10.9199219h-43.8399658l24.75 35.920166v26.6599121c-6.8600464.2202148-12.0700073 1.2900391-12.0700073 2.5700684 0 .1030273.0418091.2043457.1065674.3041992l-.0093994-.0007324.0585938.0583496c.0585327.0756836.1304932.1501465.2243042.2236328l24.7508545 24.6733398c32.9482422-2.5322266 58.9107132-29.9946289 59.026741-63.5646973l-33.2043533-33.2045898z" opacity=".1"/><ellipse cx="91.921" cy="43.378" fill="#feda6f" rx="10.922" ry="10.922" transform="matrix(.987 -.16 .16 .987 -5.761 15.284)"/><ellipse cx="91.921" cy="43.378" fill="#fff" rx="10.017" ry="10.017" transform="matrix(.987 -.16 .16 .987 -5.761 15.284)"/><g fill="#feda6f"><path d="m84.0305176 42.8141899h6.5288239l-4.6172562-4.6172523c-.5563507-.5563126-1.4891129-.4545746-1.9084015.2110672-.5533829.8786125-.9657898 1.8554764-1.2016983 2.8995895-.1740418.7702255.408844 1.5065956 1.1985321 1.5065956z"/><path d="m84.0305176 43.9418411c-.7896881 0-1.3725739.7363663-1.1985321 1.5065956.2359085 1.0439529.6482773 2.020977 1.2016602 2.8995857.4192886.665802 1.3520508.7673798 1.9084015.211071l4.6172943-4.6172523z"/><path d="m89.8499069 34.2896309c-1.0440292.2359085-2.0209732.6483955-2.8996277 1.2017021-.6657562.419445-.7674179 1.352169-.2110672 1.9084778l4.6172943 4.6172523v-6.5287361c0-.7898483-.7362899-1.3727417-1.5065994-1.1986961z"/><path d="m86.9502792 51.264698c.8786545.5533028 1.8555984.9657898 2.8996277 1.2017021.7703094.1740417 1.5065994-.409008 1.5065994-1.1985359v-6.5288963l-4.6172943 4.6172485c-.5563507.5563126-.454689 1.489193.2110672 1.9084816z"/><path d="m92.4841537 44.7389679v6.5288963c0 .7895279.7363281 1.3725777 1.5065994 1.1985359 1.0440292-.2359123 2.0209732-.6483994 2.8996201-1.2017021.6657639-.4192886.7674255-1.352169.2110748-1.9084816z"/><path d="m96.8903732 35.491333c-.8786469-.5533066-1.8555908-.9657936-2.8996201-1.2017021-.7702713-.1740456-1.5065994.4088478-1.5065994 1.1986961v6.5287361l4.6172943-4.6172523c.5563508-.5563088.4546891-1.4890328-.2110748-1.9084778z"/><path d="m99.8101349 43.9418411h-6.5288544l4.6190338 4.6137695c.5562668.5556793 1.4879608.4537811 1.907608-.2110672.5543747-.8782959.9656677-1.8546867 1.2009125-2.89674.1738434-.770069-.4092865-1.5059623-1.1986999-1.5059623z"/><path d="m99.8100967 42.8141899c.7894516 0 1.3725815-.7358932 1.1987381-1.5059624-.2352829-1.042057-.6465378-2.0184479-1.2009125-2.89674-.4196472-.6648521-1.3513412-.7665901-1.9075699-.2109108l-4.619072 4.6136131h6.5288163z"/></g><path d="m91.9210205 43.378727h-54.7638473l24.7451362 35.92667v29.7851029h5.2735176v-29.7851029z" fill="#ededed"/><ellipse cx="64.539" cy="108.531" fill="#ededed" rx="14.702" ry="2.617"/><path d="m46.7509804 52.7872849 17.7878456 25.826004 17.7882156-25.826004z" fill="#de594e"/><path d="m47.384964 48.3817978 14.5121994 21.0677261h3.4746551l-14.5121955-21.0677261z" fill="#fff" opacity=".25"/></svg>