<svg enable-background="new 0 0 140 140" height="512" viewBox="0 0 140 140" width="512" xmlns="http://www.w3.org/2000/svg"><circle cx="70" cy="70" fill="#4da0dc" r="64"/><path d="m93.0407486 39.7612839-12.2199707-12.2202149c-.3499756-.5498047-.789978-.9897461-1.289978-1.2797852-.6700439-.4001465-1.4400024-.5200195-2.1800537-.3300781l-2.7799683-2.7800293c-.5-.4899902-1.1199951-.7900391-1.8200073-.7900391 0 0-5.1699829-1.6599121-10.0299683 1.8500977-1.5900269 1.1499023-2.7400513 2.7399902-3.4100342 4.5200195h-.25v.7199707c-.3900146 1.3100586-.5299683 2.6899414-.3800049 4.0800781l.3099976 2.869873c-.1799927-.1398926-.3599854-.2199707-.5499878-.1899414-.6900024.079834-1.0999756 1.4199219-.9199829 2.9799805.1900024 1.5700684.9099731 2.7700195 1.5999756 2.6899414.0200195-.0100098.0300293-.0200195.039978-.0200195.0400391.3300781.1100464.6401367.1700439.9602051l-3.0599976-3.0600586h-15.0100097v18.8798828l-3.7600098-3.7600098-1.0999756 1.1201172 45.0099487 45.0100098c-.0199585.1999512-.0299683.3898926-.0299683.5898438v1.9101562l-28.5900267-28.5900878c-.1199951-.130127-.25-.25-.3899536-.3400879l-3.0400391-3.0297852c-.0299683-.0302734-.0499878-.0600586-.0799561-.0900879-.960022-.8701172-2.9200439-1.4699707-5.1600342-1.4699707-1.0599976 0-2.1799927.1298828-3.289978.4399414-3.9700317 1.0898438-5.7200317 3.5898438-6.4000244 7.8000488-.3699951 2.2600098 0 3.8098145.4199829 4.7700195-.289978.369873-.4099731 1.0500488-.2599487 1.8000488.1300049.6499023.4199829 1.1899414.7599487 1.4697266l1.75 1.75c.8400269 1.5800781 1.9100342 3.0102539 3.1300049 4.0400391l-1.2999878 1.8701172h-2.0100098c-4.2399902 0-7.6699848 3.4299316-7.6699848 7.6699219v2.5300293l28.7245502 28.724617c3.8963623.7409668 7.9125366 1.1442871 12.0246582 1.1442871 33.6373291 0 61.1934738-25.955574 63.7814865-58.9282303l-35.3106612-35.3105468z" opacity=".1"/><path d="m81.5033493 36.5397148c-.6957932-.0833549-1.4118347 1.1182251-1.5993881 2.6837959-.1875534 1.565567.2243958 2.9022827.9201965 2.9856377.6957932.0833549 1.4119415-1.1182137 1.5994949-2.6837807.1875535-1.5655708-.2245101-2.9022979-.9203033-2.9856529z" fill="#feda6f"/><path d="m58.444355 36.2079659c.6957932-.0833549 1.4118309 1.1182251 1.5993843 2.6837959.1875534 1.565567-.2243958 2.9022789-.9201927 2.9856377-.695797.0833549-1.4119415-1.1182137-1.5994949-2.6837845-.1875534-1.5655671.2245063-2.9022942.9203033-2.9856491z" fill="#feda6f"/><path d="m76.0782242 54.7944107v.0344276c-.057312 4.2649231-6.213974 9.8662148-6.213974 9.8662148s-6.1452637-5.6012917-6.2025719-9.8662148v-.0344276l2.1554146-4.7693138h8.0942459z" fill="#f7be56"/><path d="m59.055809 31.0611725v9.1646538c0 6.7839088 4.8400803 12.2832947 10.8106079 12.2832947s10.8106079-5.4993858 10.8106079-12.2832947v-11.4923916z" fill="#fcd462"/><path d="m81.845459 33.0711098c-.2914352 4.1164627-1.1684341 6.6950226-1.1684341 6.6950226-4.4318771-2.7109756-6.0799332-5.9018593-6.6444321-10.2308769-3.6145706 4.7597237-10.3679504 7.2415733-14.9767838 7.472702l-.3731346-3.4754715c-.3865471-3.6004333 1.1065102-7.1982689 4.0416374-9.3190117 4.8584976-3.5104523 10.022049-1.8475437 10.022049-1.8475437 2.0137329 0 3.4376678 2.4588089 2.805748 4.8334751l-.0168686.0524597s.0252457-.0419426.0842361-.1155643c1.8115234-2.364151 4.8110428-1.3029003 5.6704712 1.4394989.2443237.7670135.7543182 1.6871604.5555115 4.4953098z" fill="#3a556a"/><path d="m88.838707 61.8683281v4.6138496c0 1.0987015-.8906708 1.9893799-1.9893723 1.9893799h-33.9587631c-1.0987053 0-1.9893761-.8906784-1.9893761-1.9893799v-4.6138496c0-3.8878021 3.1516838-7.0394897 7.0394897-7.0394897h5.720993c.0573082 4.2649231 6.2025719 7.7044067 6.2025719 7.7044067s6.156662-3.4394836 6.213974-7.7044067h5.720993c3.8878022-.0000001 7.0394899 3.1516876 7.0394899 7.0394897z" fill="#2f4859"/><path d="m83.4623032 41.3360023v-1.5698738h15.0049591v18.8777924l3.7598343-3.7598839 1.1067886 1.1145516-5.6515579 5.6516075-5.6515656-5.6516075 1.1067887-1.1145516 3.7598342 3.7598839v-17.3079186z" fill="#ededed"/><path d="m56.2705307 41.3360023v-1.5698738h-15.0049591v18.8777924l-3.7598343-3.7598839-1.1067886 1.1145516 5.6515579 5.6516075 5.6515617-5.6516075-1.1067886-1.1145516-3.7598343 3.7598839v-17.3079186z" fill="#ededed"/><path d="m101.0684662 93.9262772-1.4983521-2.8366928h-6.5325165l-1.9812622 2.8397293-1.3609543 4.5030212 8.8112946 1.3166275s2.6839066-1.0634308 3.0383835-1.3672638c.3544769-.3038406-.476593-4.4554214-.476593-4.4554214z" fill="#f2c144"/><path d="m110.7517853 104.1296005v-2.5274124c0-4.2392883-3.4366226-7.6759109-7.6759109-7.6759109h-2.0074081c-2.4253311 3.4879227-7.5846176 3.4895248-10.0121307.0030365l-.0021362-.0030365h-2.0008545c-4.2392883 0-7.6759109 3.4366226-7.6759109 7.6759109v2.526825z" fill="#de594e"/><path d="m104.9930344 82.7282028c-.5684891-.1100922-1.1917343.6390686-1.3920135 1.6732483-.2002869 1.0342255.0982208 1.9618988.6667175 2.071991.5685196.1100998 1.1917343-.6390686 1.3920212-1.6733017.2002792-1.0341721-.0982056-1.9618378-.6667252-2.0719376z" fill="#feda6f"/><path d="m87.3852005 82.7282028c.5684891-.1100922 1.1917343.6390686 1.3920135 1.6732483.2002869 1.0342255-.0982208 1.9618988-.6667175 2.071991-.5685196.1100998-1.1917343-.6390686-1.3920212-1.6733017-.2002792-1.0341721.098198-1.9618378.6667252-2.0719376z" fill="#feda6f"/><path d="m104.5314713 81.0014954c0 .9337158.4158936 1.9399033.1445007 3.003746-1.1289749 4.5485153-4.5051804 9.639946-8.4892349 9.639946-3.9406509 0-7.2733917-4.9393005-8.4457626-9.4337463-.3039932-1.1397781-.4667969-2.2470932-.4667969-3.2350006 0-4.754715 4.2066574-5.4253693 8.9071655-5.6858978.1302567-.0108643-.075531-1.0005951.0547333-1.0005951l-.0271606.6019211c.1953964 0 .5679855-1.0165253.763382-1.005661.162796.0108719.2765579 1.0588531.4393539 1.0805817.0977325 0-.3945236-.6390762-.2968597-.6174698 4.2771834.6621855 7.4166793 2.1904677 7.4166793 6.6521758z" fill="#fcd462"/><path d="m105.5480118 76.3524399c-.4878616-2.9272385-3.4414215-2.0269241-3.4414215-2.0269241l-.0037155.0073318c-.001976-.0018234-.0039291-.0035324-.0059357-.0053482l.0096512-.0019836s.6024628-.6043243-.2183533-2.2508087c-.8208313-1.646431-4.9590836-2.7408447-8.9263382-1.646431-3.9672852 1.0944595-5.7198029 3.5921097-6.4037933 7.7988205-.572319 3.5197449.6379395 5.3338013 1.0495071 5.8340454l.5470734 1.7274628h.4795227l.6377029-3.1613464c2.3307724-1.6945648 5.6902771-1.8052826 9.1728516-4.516655.5478745 2.1630478 2.001442 4.1816254 4.7937622 5.6493073l.4092178 2.0286942h.4795151l.446846-1.4109955c.0014648.0005951.0027771.001236.0042496.0018234.851242-2.4083787 1.45755-5.099701.9696579-8.0269929z" fill="#344d5b"/><path d="m48.9392471 93.9262772-1.4983559-2.8366928h-6.5325127l-1.9812622 2.8397293-1.3609543 4.5030212 8.8112984 1.3166275s2.6838989-1.0634308 3.0383797-1.3672638c.354477-.3038406-.476593-4.4554214-.476593-4.4554214z" fill="#f2c144"/><path d="m58.62257 104.1296005v-2.5274124c0-4.2392883-3.4366226-7.6759109-7.6759109-7.6759109h-2.007412c-2.4253349 3.4879227-7.5846176 3.4895248-10.0121307.0030365l-.0021324-.0030365h-2.0008583c-4.2392883 0-7.6759129 3.4366226-7.6759129 7.6759109v2.526825z" fill="#de594e"/><path d="m52.8638191 82.7282028c-.5684967-.1100922-1.1917381.6390686-1.3920174 1.6732483-.2002869 1.0342255.0982208 1.9618988.6667137 2.071991.5685234.1100998 1.1917381-.6390686 1.3920288-1.6733017.2002755-1.0341721-.0982055-1.9618378-.6667251-2.0719376z" fill="#feda6f"/><path d="m35.2559776 82.7282028c.5684967-.1100922 1.1917381.6390686 1.3920174 1.6732483.2002869 1.0342255-.0982208 1.9618988-.6667175 2.071991-.5685196.1100998-1.1917343-.6390686-1.392025-1.6733017-.2002754-1.0341721.0982055-1.9618378.6667251-2.0719376z" fill="#feda6f"/><path d="m52.402256 81.0014954c0 .9337158.4158936 1.9399033.1444969 3.003746-1.1289749 4.5485153-4.5051765 9.639946-8.4892311 9.639946-3.9406548 0-7.2733917-4.9393005-8.4457703-9.4337463-.3039932-1.1397781-.4667892-2.2470932-.4667892-3.2350006 0-4.754715 4.2066498-5.4253693 8.9071579-5.6858978.1302643-.0108643-.0755234-1.0005951.0547409-1.0005951l-.0271606.6019211c.1953964 0 .5679855-1.0165253.7633781-1.005661.1627998.0108719.2765617 1.0588531.4393578 1.0805817.0977325 0-.3945274-.6390762-.2968636-.6174698 4.2771835.6621855 7.4166832 2.1904677 7.4166832 6.6521758z" fill="#fcd462"/><path d="m53.4187927 76.3524399c-.4878654-2.9272385-3.4414177-2.0269241-3.4414177-2.0269241l-.0037155.0073318c-.0019798-.0018234-.003933-.0035324-.0059395-.0053482l.009655-.0019836s.6024551-.6043243-.2183533-2.2508087c-.8208351-1.646431-4.9590836-2.7408447-8.9263382-1.646431-3.9672852 1.0944595-5.7198029 3.5921097-6.4037971 7.7988205-.572319 3.5197449.6379433 5.3338013 1.049511 5.8340454l.5470695 1.7274628h.4795227l1.0611725-5.7301025c2.3307724-1.6945648 7.4502335-1.2678452 10.9328079-3.9792175.5478745 2.1630478 3.0195503 9.7093201 3.0195503 9.7093201h.4795227l.4468384-1.4109955c.0014725.0005951.0027809.001236.0042534.0018234.8512421-2.4083787 1.4575501-5.099701.9696579-8.0269929z" fill="#344d5b"/></svg>