<svg enable-background="new 0 0 140 140" height="512" viewBox="0 0 140 140" width="512" xmlns="http://www.w3.org/2000/svg"><circle cx="70" cy="70" fill="#344d5b" r="64"/><path d="m106.1107559 46.026947-16.4699707-4.0300293-8.5599976-2.0899658-11.080017-2.7099609-36.1099854 8.829956.2000122.0500488v48.0699463l39.7296143 39.7296143c32.3067627-1.9035645 58.1621628-27.7636719 60.0574875-60.0725098l-27.7671432-27.7670898v-.0100098z" opacity=".1"/><path d="m106.1107559 46.0369568v48.1099853l-36.0299682 8.6600342-35.9899903-8.6600342v-48.0699463l-.2000122-.0500488 36.1099854-8.829956 11.0800171 2.7099609 8.5599975 2.0899658 16.4699707 4.0300293z" fill="#feda6f"/><path d="m70.081604 102.8051605-35.9889374-8.6594696v-48.1122017l35.9889374 8.6594734z" fill="#fed35b"/><path d="m70.081604 102.8051605 36.029747-8.6594696v-48.1122017l-36.029747 8.6594734z" fill="#f2c144"/><path d="m89.636528 42.0016518-33.278595 9.4049797v11.2748031l-4.4928321-3.1597404-4.492836 3.1597404v-13.4414444h.0079841l33.7019196-9.3327827z" fill="#dbd8dd"/><path d="m56.3579483 51.4065514 33.2785721-9.4049569-8.5543213-2.0944023-33.7019501 9.3328209h-.0079765z" fill="#ededed"/></svg>