<?xml version="1.0"?>
<svg xmlns="http://www.w3.org/2000/svg" xmlns:xlink="http://www.w3.org/1999/xlink" xmlns:svgjs="http://svgjs.com/svgjs" version="1.1" width="512" height="512" x="0" y="0" viewBox="0 0 140 140" style="enable-background:new 0 0 512 512" xml:space="preserve" class=""><g><circle xmlns="http://www.w3.org/2000/svg" cx="70" cy="70" fill="#4da0dc" r="64" data-original="#4da0dc" class=""/><path xmlns="http://www.w3.org/2000/svg" d="m34.8859482 83.8710403c-7.6399517-7.6499023-7.6399517-20.0898476 0-27.7397499l4.5800171 4.5795898 1.7999878 1.800293 4.9299927 4.9301796v-30.3300819c0-2.590332 2.0900269-4.6801758 4.6800537-4.6801758h38.25c1.3899536 0 2.6199951.6201172 3.4799805 1.5800781l.0100098-.0102539 41.1599808 41.1601601c-2.5 31.2299805-27.3900223 56.1201096-58.6300125 58.6098557l-27.4799805-27.4799728v-.0097656c-.9000244-.8500977-1.4700317-2.0498047-1.4700317-3.3901367v-7.7099609z" opacity=".1" fill="#000000" data-original="#000000"/><path xmlns="http://www.w3.org/2000/svg" d="m89.123085 32.4287796h-38.2462845c-2.5868263 0-4.6838303 2.0971184-4.6838303 4.6838303v65.7747803c0 2.5867081 2.0970039 4.6838303 4.6838303 4.6838303h38.2462845c2.586937 0 4.6839447-2.0971222 4.6839447-4.6838303v-65.7747803c0-2.5867119-2.0970077-4.6838303-4.6839447-4.6838303z" fill="#344d5b" data-original="#344d5b" class=""/><path xmlns="http://www.w3.org/2000/svg" d="m50.111523 41.247395h39.776955v55.704525h-39.776955z" fill="#feda6f" data-original="#feda6f" class=""/><path xmlns="http://www.w3.org/2000/svg" d="m74.6727066 35.9171295h-9.3454132c-.5734711 0-1.0383453.4648705-1.0383453 1.0383415s.4648743 1.0383415 1.0383453 1.0383415h9.3454132c.5734711 0 1.0383453-.4648705 1.0383453-1.0383415s-.4648742-1.0383415-1.0383453-1.0383415z" fill="#293b44" data-original="#293b44"/><g xmlns="http://www.w3.org/2000/svg" fill="#ededed"><path d="m105.1126328 83.866478-1.8029556-1.8029556c6.6515274-6.6515274 6.6515274-17.4742661 0-24.1270409l1.8029556-1.8029594c7.6451492 7.6463928 7.6451492 20.0878066 0 27.7329559z" fill="#ededed" data-original="#ededed"/><path d="m100.53302 79.2881088-1.8029633-1.8029633c4.1276321-4.1276321 4.1276321-10.842659.0012436-14.9690475l1.8029633-1.8029594c5.121254 5.1212501 5.1200104 13.4537163-.0012436 18.5749702z" fill="#ededed" data-original="#ededed"/><path d="m34.8873634 83.866478 1.8029594-1.8029556c-6.6515255-6.6515274-6.6515255-17.4742661 0-24.1270409l-1.8029594-1.8029594c-7.6451454 7.6463928-7.6451454 20.0878066 0 27.7329559z" fill="#ededed" data-original="#ededed"/><path d="m39.46698 79.2881088 1.8029633-1.8029633c-4.1276321-4.1276321-4.1276321-10.842659-.0012474-14.9690475l-1.8029594-1.8029594c-5.1212503 5.1212501-5.1200067 13.4537163.0012435 18.5749702z" fill="#ededed" data-original="#ededed"/></g><path xmlns="http://www.w3.org/2000/svg" d="m72.6980591 99.9532166h-5.3960571c-.5132446 0-.9293213.4160156-.9293213.9291992v2.0385742c0 .5131836.4160767.9291992.9293213.9291992h5.3960571c.5132446 0 .9292603-.4160156.9292603-.9291992v-2.0385742c-.0000001-.5131836-.4160157-.9291992-.9292603-.9291992z" fill="#293b44" data-original="#293b44"/><g xmlns="http://www.w3.org/2000/svg" fill="#de594e"><path d="m57.9579849 74.7443466 4.9504585-12.8905449h1.8377342l5.2758026 12.8905449h-1.9432526l-1.5036011-3.9040985h-5.39011l-1.4156761 3.9040985zm3.7194367-5.2933883h4.3701248l-1.3453293-3.5699615c-.4103394-1.0844727-.7151642-1.9754944-.9144745-2.6730728-.164135.8265457-.3956833 1.6472244-.6946449 2.4620438z" fill="#feda6f" data-original="#de594e" class=""/><path d="m71.3848953 74.7443466v-12.8905449h4.4404678c1.0024033 0 1.767395.0615501 2.2949753.1846542.7386093.1699982 1.3687744.4777527 1.8904953.9232635.6799927.5744781 1.1885223 1.3086891 1.525589 2.2026482.337059.8939514.5055923 1.9154053.5055923 3.0643616 0 .9789505-.1143036 1.8465271-.342926 2.6027298-.2286148.7561951-.5217209 1.3819656-.879303 1.8773041s-.7488708.8851624-1.1738586 1.1694717c-.4249954.2843018-.9379272.499733-1.5387802.646286-.600853.1465454-1.2911072.2198257-2.0707474.2198257h-4.6515045zm1.7058487-1.5211944h2.7522049c.8499908 0 1.5167923-.0791321 2.000412-.2374115.4836121-.1582718.8690414-.3810272 1.1562805-.6682663.4044724-.40448.7195587-.9481812.9452438-1.6311035s.3385315-1.5109329.3385315-2.484024c0-1.348259-.2212906-2.3843689-.6638718-3.1083221-.4425812-.7239609-.980423-1.2090378-1.6135178-1.4552422-.4572372-.1758614-1.1929169-.2637901-2.2070389-.2637901h-2.7082442z" fill="#feda6f" data-original="#de594e" class=""/></g></g></svg>
