<svg enable-background="new 0 0 140 140" height="512" viewBox="0 0 140 140" width="512" xmlns="http://www.w3.org/2000/svg"><circle cx="70" cy="70" fill="#de594e" r="64"/><path d="m58.9407158 29.5319347c-5.4700317 5.4599628-5.6200562 14.2700214-.4500122 19.9199238.1499634.1699219.2999878.3300781.4500122.4799805.0999756.1000977.2099609.1801758.3099976.2800293l15.659977 15.6501465-9.9799805-4.25c-1.0100136-.4902344-2.1300087-.75-3.2700233-.7402344l-15.1199951-15.119873-22.9500104 22.9499511 13.7999859 13.8000488 7.1300049 7.119873-1.5499878 1.5500488c-1.3400269 1.3400879-1.3400269 3.5100098 0 4.8500977.1300049.130127.2700195.2299805.4199829.3498535l4.1799927 4.1801758c.0800171.1098633.1600342.2199707.2600098.3198242.1000366.1000977.210022.1801758.3200073.2602539l4.2700195 4.2700195c.0800171.1098633.1599731.2197266.2600098.3198242.0999756.1000977.2099609.1699219.3200073.2600098l4.2699585 4.2700195c.0800171.1101074.1600342.2199707.2600098.3200684.0999756.0998535.210022.1799316.3200073.2600098l4.2299805 4.2299805c.0900269.119873.1799927.25.2999878.369873.1200562.1201172.25.2099609.3800049.3100586l17.4397621 17.4396973c26.2739258-4.2097168 47.2091064-24.4020996 52.5019531-50.2978516l-53.3516847-53.3518085c-5.6300048-5.6298828-14.7800292-5.6298828-20.4099769 0z" opacity=".1"/><path d="m79.8040161 49.456646c-.1460419.1614342-.2998734.3229599-.4536133.476696-5.6280899 5.620491-14.7777634 5.620491-20.4058609 0-.1538315-.1537361-.3075676-.3152618-.4536057-.476696-5.16679-5.6588783-5.020752-14.46241.4536057-19.9291649 5.6280975-5.6280937 14.777771-5.6280937 20.4058609 0 5.4743576 5.4667549 5.6203995 14.2702865.4536133 19.9291649z" fill="#f7be56"/><path d="m77.4792328 47.334198c-.1141815.1262131-.2344513.2525024-.3546524.3726997-4.4002914 4.394352-11.5539169 4.394352-15.954216 0-.1202698-.1201973-.2404671-.2464867-.3546486-.3726997-4.0396271-4.424366-3.9254456-11.3073616.3546486-15.5815163 4.4002991-4.4002953 11.5539246-4.4002953 15.954216 0 4.2800979 4.2741547 4.3942795 11.1571503.3546524 15.5815163z" fill="#fcd462"/><path d="m68.6998138 48.1771736v-1.67873c-.8393707-.1056976-1.5217438-.2937775-2.0471191-.5642395-.525383-.270462-.9792633-.7072449-1.3616409-1.3103447s-.6046524-1.3398743-.6668243-2.2103271l1.6880569-.3170967c.1305618.9015427.360611 1.5637093.6901398 1.9864998.4725342.5968819 1.0383301.9295197 1.6973877.9979134v-5.3439598c-.6901474-.1305695-1.3958359-.3979225-2.1170654-.802063-.5347061-.298439-.9466171-.7119064-1.235733-1.2403946s-.4336777-1.128479-.4336777-1.7999725c0-1.1937637.4227982-2.1605873 1.2683792-2.9004745.5657959-.4974022 1.405159-.8020592 2.5180969-.9139748v-.8020592h.9885864v.8020592c.9761505.0932617 1.7502289.3792686 2.3222427.858017.7336655.6093178 1.1751099 1.4455757 1.3243332 2.50877l-1.7346878.2611389c-.0994797-.6590576-.3062134-1.1642342-.6202011-1.515522-.3139877-.3512917-.744545-.5828934-1.291687-.694809v4.8403397c.8455811.2113953 1.405159.3761597 1.6787262.4942932.5222778.2300491.9481735.5098381 1.2777023.8393669s.5828934.7212334.7600937 1.1751099c.1772003.4538803.2658005.9450645.2658005 1.4735527 0 1.1626778-.3699417 2.1326103-1.1098328 2.9098015-.7398834.7771912-1.6973801 1.1937637-2.8724899 1.2497215v1.6973839h-.9885865zm0-14.6982231c-.6528397.0994835-1.1673431.3606186-1.5435028.7834091s-.5642395.9233017-.5642395 1.5015335c0 .57201.1601028 1.0507584.4803009 1.436245.3202057.3854866.8626862.6932526 1.6274414.9233017zm.9885865 11.6018982c.6528397-.0808296 1.1922073-.3637276 1.6181107-.8486938.4258957-.4849663.6388474-1.0849571.6388474-1.7999725 0-.6093178-.1507721-1.0989456-.4523239-1.4688873-.3015518-.3699455-.9030991-.7010269-1.8046341-.9932518v5.1108054z" fill="#f7be56"/><path d="m94.1577377 90.213974-2.5019073-2.5019073-24.6435471-24.6435471c-1.5279236-1.5279236-3.6375771-2.3274879-5.794384-2.1960907l-7.0459175.4292488c-.0000038.0000038-.0000076.0000038-.0000076.0000038l-15.0898133 17.5081558c-.0000038.0000076-.0000038.0000153-.0000038.0000153l2.6517029 6.6312637c.3833237.9585953.9574089 1.8293228 1.6874237 2.5593414l23.9730034 23.9732056 2.5019073 2.501915 3.1724014 3.1722488c1.3399124 1.340065 3.512352 1.340065 4.8522568 0h.0000534c1.3398514-1.339798 1.3399582-3.5121155.0001221-4.8521957-.0000153-.0000153-.0000153-.0000153 0 0 1.3400192 1.3398972 3.5123367 1.3398361 4.8521347.0000381h.0000534c1.3398514-1.340004 1.3399582-3.5121155.0001144-4.8521881-.0000076-.0000153-.0000076-.0000153 0 0 1.3400269 1.3398895 3.5123444 1.3396301 4.8521423-.0001678h.0000534c1.3398514-1.3398056 1.3399582-3.5121155.0001144-4.8521957-.0000076-.0000153-.0000076-.0000153 0 0 1.3400269 1.3398972 3.5123444 1.3398361 4.8521423-.0001678h.0000534c1.3398514-1.339798 1.3399048-3.5121155.0001144-4.8521957-.0000153-.0000076-.0000153-.0000076 0 0 1.3399734 1.3398972 3.5122833 1.3398438 4.8521347.0000458 0 0 .0000076-.0000076.0000153-.0000076 2.9429629-3.393532-3.1723631-8.0248186-3.1723631-8.0248186z" fill="#fed35b"/><g fill="#f2c144"><path d="m51.9323311 87.061058-.0000381-.0000381c-1.3398933-1.3398895-3.5123367-1.3399277-4.8521957-.0000687l-4.1063499 4.1063538c-1.339859 1.3398514-1.3398209 3.5122986.0000725 4.8521957l.0000343.0000305c1.3398972 1.3398972 3.5123405 1.3399353 4.8521957.0000763l4.1063538-4.1063538c1.3398589-1.3398589 1.3398207-3.5122985-.0000726-4.8521957z"/><path d="m58.3527107 90.3452911-.0000381-.0000381c-1.3398933-1.3398895-3.5123367-1.3399277-4.8521957-.0000687l-5.674427 5.6744232c-1.3398552 1.339859-1.339817 3.5122986.0000763 4.8521957l.0000343.0000381c1.3398933 1.3398895 3.5123405 1.3399277 4.8521957.0000687l5.674427-5.6744232c1.339859-1.3398589 1.3398209-3.5122985-.0000725-4.8521957z"/><path d="m65.0077286 93.3948822-.0000381-.0000305c-1.3398933-1.3398972-3.5123367-1.3399353-4.8521957-.0000763l-7.4771385 7.4771347c-1.3398552 1.339859-1.3398209 3.5123062.0000763 4.8521957l.0000343.0000381c1.3398933 1.3398972 3.5123405 1.3399353 4.8521957.0000763l7.4771423-7.4771423c1.3398513-1.3398513 1.3398208-3.5122985-.0000763-4.8521957z"/><path d="m68.0573196 100.0499039-.0000305-.0000381c-1.3398972-1.3398972-3.5123444-1.3399277-4.8521996-.0000763l-5.674427 5.6744308c-1.3398552 1.339859-1.3398209 3.5122986.0000725 4.8521957l.0000381.0000381c1.3398933 1.3398895 3.5123405 1.3399277 4.8521957.0000687l5.674427-5.6744232c1.3398591-1.339859 1.339821-3.5123062-.0000762-4.8521957z"/><path d="m70.9737701 106.8380661-.0000381-.0000381c-1.3398895-1.3398895-3.5123367-1.3399277-4.8521957-.0000687l-3.7385674 3.7385635c-1.3398552 1.339859-1.3398209 3.5123062.0000725 4.8521957l.0000381.0000381c1.3398933 1.3398972 3.5123367 1.3399353 4.8521957.0000763l3.7385712-3.7385712c1.3398514-1.3398589 1.3398209-3.5122984-.0000763-4.8521956z"/><path d="m81.3312836 63.0902977-17.7038155 5.9339104-4.7844124 13.3601761h1.3194733c3.9858017 0 7.5915146-2.365387 9.1789322-6.0214615l8.8353119-2.1299133 15.9809646 15.9809646 1.6983719-1.6440048c1.6691132-1.615593 2.663681-3.8040085 2.783287-6.1237564l.0926361-1.7967072z"/></g><g fill="#344d5b"><path d="m80.164352 55.619423h32.454845v19.515654h-32.454845z" transform="matrix(.707 .707 -.707 .707 74.461 -49.011)"/><path d="m25.741453 54.367348h32.454845v19.515654h-32.454845z" transform="matrix(-.707 .707 -.707 -.707 116.989 79.792)"/></g></svg>