<svg enable-background="new 0 0 140 140" height="512" viewBox="0 0 140 140" width="512" xmlns="http://www.w3.org/2000/svg"><circle cx="70" cy="70" fill="#344e5c" r="64"/><path d="m133.0599976 59.1298828c.6099853 3.5400391.9400024 7.1601563.9400024 10.8701172 0 35.3500977-28.6500244 64-64 64-2.2399902 0-4.4500122-.1201172-6.6300049-.3400879l-36.6300049-36.6298828v-57.6999512h86.5200195z" opacity=".1"/><path d="m26.739969 39.328972h86.520065v57.700436h-86.520065z" fill="#b0b1b5"/><path d="m101.26017 45.3286743h-62.5200195c0 3.3137207-2.6862793 6-6 6v33.7011719c3.3137207 0 6 2.6862793 6 6h62.5200195c0-3.3137207 2.6862793-6 6-6v-33.7011719c-3.3137207 0-6-2.6862793-6-6z" fill="#ececec"/><path d="m50.525436 51.335724h38.949451v2.175947h-38.949451z" fill="#4388b9"/><g fill="#48b19a"><path d="m39.289841 59.228668h61.420643v2.175947h-61.420643z"/><path d="m39.289841 67.121613h61.420643v2.175947h-61.420643z"/><path d="m39.289841 75.014557h27.47839v2.175947h-27.47839z"/><path d="m39.289841 82.907501h27.47839v2.175947h-27.47839z"/></g><path d="m95.5707474 113.2089767-6.0958939-4.0258941-6.0958252 4.0258941v-17.3422927h12.1917191z" fill="#509fd7"/><path d="m104.3308945 88.5697861c0 1.5120087-1.8801346 2.7083817-2.3231583 4.0726929-.4591141 1.4138794.3428116 3.4837418-.5137024 4.6606064-.8650436 1.1885757-3.0871277 1.0611801-4.2757263 1.9262009-1.176857.8564758-1.737648 3.013916-3.1515045 3.4730072-1.3642578.4429779-3.0799789-.958313-4.5919189-.958313-1.512001 0-3.2277985 1.401268-4.5921097.9582443-1.4138794-.4591141-1.9746552-2.6165771-3.1515198-3.4730911-1.1885757-.8650436-3.4106674-.7376938-4.2756882-1.9262924-.8564758-1.176857-.0544968-3.2466736-.5135803-4.6605377-.4429855-1.3642578-2.3231049-2.5605774-2.3231049-4.0725174 0-1.512001 1.8801346-2.708374 2.3231583-4.0726929.4591141-1.4138794-.3428116-3.4837341.5137024-4.6605988.8650436-1.1885757 3.0871277-1.0611877 4.2757263-1.9262009 1.176857-.8564835 1.737648-3.0139236 3.1515045-3.4730072 1.3642578-.4429855 3.0799789.9583054 4.5919113.9583054 1.5120087 0 3.2278061-1.401268 4.5921173-.9582443 1.4138794.4591141 1.9746552 2.6165771 3.1515198 3.4730988 1.1885757.8650436 3.4106674.7376938 4.2756882 1.9262848.8564758 1.176857.0544968 3.2466812.5135803 4.6605377.4429855 1.3642653 2.3231049 2.5605849 2.3231049 4.0725173z" fill="#cd5148"/><path d="m89.4748611 99.442131c-5.9951172 0-10.8720703-4.8769531-10.8720703-10.8720703s4.8769531-10.8720703 10.8720703-10.8720703 10.8720703 4.8769531 10.8720703 10.8720703-4.8769531 10.8720703-10.8720703 10.8720703zm0-19.7441406c-4.8920898 0-8.8720703 3.9804688-8.8720703 8.8720703s3.9799805 8.8720703 8.8720703 8.8720703 8.8720703-3.9804688 8.8720703-8.8720703-3.9799804-8.8720703-8.8720703-8.8720703z" fill="#ffd25a"/><path d="m89.4748611 82.772522 1.8837281 3.816864 4.2121582.6120605-3.0479431 2.971016.7195205 4.1951294-3.7674637-1.9806748-3.7674713 1.9806748.7195282-4.1951294-3.0479507-2.971016 4.2121582-.6120605z" fill="#e6e7e8"/></svg>