<svg enable-background="new 0 0 140 140" height="512" viewBox="0 0 140 140" width="512" xmlns="http://www.w3.org/2000/svg"><circle cx="70" cy="70" fill="#de594e" r="64"/><path d="m108.5566483 38.5961609-.0100098.0100098c-.6099854-.8200684-1.5799561-1.3598633-2.6799927-1.3598633h-71.7299843c-1.8599854 0-3.3599854 1.5097656-3.3599854 3.3598633v51.5300293c0 .7199707.2299805 1.380127.6099854 1.9199219v.0100098l.0200195.0200195c.2099609.3000488.4799805.5700684.789978.7800293l39.0943031 39.1010742c34.7481691-.6901856 62.7090379-29.0539551 62.7090379-63.9672852 0-2.1162109-.1089478-4.206543-.3096313-6.2700195z" opacity=".1"/><path d="m58.982266 93.980774h23.644142v9.566286h-23.644142z" fill="#dbd8dd"/><path d="m105.865509 37.2495804h-71.7310257c-1.8558655 0-3.3603783 1.5047073-3.3603783 3.3605118v47.821106l38.9065819 4.3141861 39.5452042-4.3141861v-47.821106c0-1.8558045-1.5045166-3.3605118-3.3603821-3.3605118z" fill="#344d5b"/><path d="m30.7741051 88.0626144v4.0779572c0 1.8558044 1.5045128 3.3602524 3.3603783 3.3602524h71.7310257c1.8558655 0 3.3603821-1.5044479 3.3603821-3.3602524v-4.0779572z" fill="#ededed"/><path d="m35.867268 42.474007h68.265457v40.881664h-68.265457z" fill="#4abba4"/><path d="m70.334053 89.6996841c-.8954315 0-1.621376.7260056-1.621376 1.6214371s.7259445 1.6214447 1.621376 1.6214447c.8955002 0 1.6214371-.7260132 1.6214371-1.6214447s-.7259369-1.6214371-1.6214371-1.6214371z" fill="#344d5b"/><path d="m87.0102539 102.5168304h-34.0205078c-1.1894455 0-2.1536827.9641724-2.1536827 2.153801v2.5110855h38.327877v-2.5110855c0-1.1896286-.9642334-2.153801-2.1536865-2.153801z" fill="#344d5b"/><path d="m53.753632 52.595635h32.492725v14.885293h-32.492725z" fill="#ededed"/><g fill="#344d5b"><path d="m58.3264885 64.1968765v-8.4614868h3.1744995c.6464462 0 1.1649475.0856171 1.5555077.2568474s.6964645.4348106.9177208.7907372c.2212486.3559303.3318748.7282143.3318748 1.116848 0 .361702-.098114.70224-.2943573 1.0216141s-.4925308.577179-.8888626.7734222c.5117683.1500664.9052124.4059525 1.180336.7676544.2751236.3616982.4126892.7888145.4126892 1.2813416 0 .3963318-.0836945.7647667-.2510757 1.1053047s-.3742065.6031532-.620472.7878532-.5550575.3241844-.9263763.4184608c-.3713226.0942688-.8263321.1414032-1.365036.1414032zm1.1197319-4.906044h1.82967c.496376 0 .8523026-.0327072 1.0677872-.0981216.2847404-.0846519.4992599-.2251015.6435547-.4213448.1442986-.1962395.2164459-.4425049.2164459-.7387924 0-.2808952-.0673409-.5281219-.2020149-.7416763-.1346741-.2135582-.3270683-.3597794-.5771828-.4386597-.2501106-.0788803-.6791496-.1183243-1.287117-.1183243h-1.691143v2.5569191zm0 3.9075203h2.1067162c.361702 0 .6156616-.0134659.761879-.0404015.2578087-.0461731.4732895-.1231308.6464462-.2308731.1731529-.1077385.3155251-.2645416.4271126-.4704018.1115875-.205864.1673851-.44347.1673851-.712822 0-.3155251-.0808067-.5896873-.2424164-.8224831-.1616135-.2327957-.3857498-.3963318-.6724205-.4906044-.2866669-.0942726-.6993523-.1414108-1.2380524-.1414108h-1.9566498z"/><path d="m71.8094635 55.7353897h1.1197281v4.8887329c0 .8503799-.0961914 1.5256844-.2885895 2.0259094-.1923904.5002251-.5396652.9071388-1.0418091 1.2207375-.5021515.3136024-1.1611023.4704018-1.9768524.4704018-.7926636 0-1.4410324-.1365967-1.9450989-.4097977-.5040741-.2731972-.8638535-.6685677-1.0793304-1.1861076-.2154846-.51754-.3232269-1.2245865-.3232269-2.1211433v-4.8887329h1.1197357v4.8829613c0 .7349434.0682983 1.276535.204895 1.6247673.1366043.3482323.3713226.6166229.7041626.8051682.3328476.1885452.7397614.2828178 1.2207413.2828178.8234482 0 1.4102478-.1866188 1.7604065-.559864s.525238-1.0908737.525238-2.1528893z"/><path d="m77.1772537 64.1968765v-3.5842972l-3.2610779-4.8771896h1.3621521l1.6680527 2.5511436c.3078308.4771385.5944977.954277.8600006 1.4314117.2539597-.4425049.5617905-.9408073.9234924-1.4948997l1.6391983-2.4876556h1.3044281l-3.3765106 4.8771896v3.5842972z"/><path d="m89.6315842 70.3739548-4.988884 2.7187729 5.1753921 5.1753921-1.7860183 1.7860108-5.1714173-5.1714173-2.7187728 4.9809418-4.707161-14.2008286z"/></g></svg>