<svg enable-background="new 0 0 140 140" height="512" viewBox="0 0 140 140" width="512" xmlns="http://www.w3.org/2000/svg"><circle cx="70" cy="70" fill="#4abba4" r="64"/><path d="m76.2348099 27.9424324-.0599976-.0498047c-.6100464-.5700684-1.4000244-.9799805-2.460022-1.1201172 0 0-1.7000122-2.2800293-4.3499756-3.0800781-2.6400146-.7998047-3.8700562-.7397461-3.8700562-.7397461s-2.5799522-.670166-4.2099571 0c-1.6300049.6699219-5.6400146-.130127-7.2000122 2.079834s-3.0499878 4.7700195-3.7999878 7.920166c-.75 3.1499023-.3400269 4.4199219.2700195 6.7299805.1499634.5598145.3299561 1.2099609.5099487 1.8999023-.1300049-.0200195-.2599487-.0300293-.3899536 0-1.1800537.2399902-1.7700195 2.2299805-1.3200073 4.4499512.2999878 1.4799805.9799805 2.6599121 1.75 3.2399902l1.1699829 1.1801758c.2399902 1.2597656.539978 2.4799805.9000244 3.3598633.539978 1.3701172 1.5599976 2.9499512 3.1399536 4.3000488v1.7800293l-2.8599854 2.2199707v-.0100098l-4.1900024 2.0400352c-4.0800171 1.7099609-9.3099976 4.2597656-13.4799805 7.4899902-.960022.7399902-1.6600342 1.75-1.9799805 2.9199219-.5500488 1.9599609-1.3900146 5.6699219-2.0300293 11.7399902-1.039978 9.8701172-.5200195 16.9699707-.5200195 16.9699707l30.145752 30.145752c2.8145103.3781738 5.6813927.5917969 8.5994835.5917969 30.4707642 0 55.949646-21.3012695 62.4039383-49.8200684l-56.1491774-56.2175254c-.0100098-.0097656-.0199585-.0097656-.0199585-.0200195z" opacity=".1"/><path d="m56.311531 52.30978h15.328379v18.019037h-15.328379z" fill="#d6b24e"/><path d="m96.2063904 86.2808914c-.6384659-6.0656357-1.4731522-9.7773895-2.0218811-11.7382355-.3259125-1.1648102-1.0238876-2.1813126-1.9801712-2.921936-8.0506134-6.2350311-20.0727005-9.9342499-20.0727005-9.9342499l-8.1403465 8.6425629v.004921l-8.1380043-8.6399879s-12.0222054 3.6991081-20.0726967 9.9342537c-.9562912.7406158-1.6542664 1.7570038-1.980175 2.921936-.5487251 1.9606094-1.3834152 5.6725998-2.0219936 11.738121-1.039114 9.8723984-.5194397 16.9735107-.5194397 16.9735107l32.7323074-.0073776h32.7346535c.0000018 0 .519678-7.1012344-.5195523-16.9735184z" fill="#293b44"/><path d="m74.5267563 62.505455c-1.4853821-.5393295-2.3948822-.818119-2.3948822-.818119l-8.1398888 8.6435966v.0028992l-8.1374893-8.6405258s-.9095039.2787895-2.3948822.818119c-1.1242943.402195-2.5777054.9506226-4.2138824 1.6407509l.983036 12.2395706 1.7210922 2.898674.4529076 3.7138901c3.8482895 14.890358 11.590847 20.2482605 11.590847 20.2482605l.0007706.0008087c.0516586-.0359268 7.7538681-5.4147263 11.5892715-20.255043l.4529114-3.7139435 1.7210388-2.8986664.9830322-12.2395172c-1.636177-.6901321-3.0895843-1.2385597-4.2138824-1.6407547z" fill="#dbd8dd"/><path d="m65.6497345 70.3288193h-3.5476265l-1.7738152 3.0908737 1.7738152 4.8032837h3.5476265l1.773819-4.8032837z" fill="#de594e"/><path d="m71.6748505 59.8846588-7.6835595 10.4444122 5.374508 6.4316178 6.2146606-13.8358689z" fill="#ededed"/><path d="m56.3115311 59.8906517 7.6835594 10.4444084-5.3745117 6.4316254-6.2146569-13.8358765z" fill="#ededed"/><path d="m66.8802643 100.5862427-2.8858795 2.6671371-3.1154328-3.6947632 1.1837235-21.7577819h3.6264953z" fill="#de594e"/><path d="m50.4386063 80.0022736-1.3391457 2.8428268c3.8482857 14.8903046 14.8941536 20.4074707 14.8941536 20.4074707-9.5978165-14.2413483-10.4608994-37.3819046-10.5339851-40.741127-.0091515-.2696342-.0091515-.4113464-.0091515-.4113464l-4.2047348 2.0521011-1.6499596 13.8437271z" fill="#344d5b"/><path d="m77.5477753 79.9962845 1.3391495 2.8428268c-3.8482895 14.8903046-14.8949394 20.415947-14.8949394 20.415947 9.5978126-14.2413483 10.4616813-37.3903809 10.5347709-40.7496033.0091476-.2696381.0091476-.4113464.0091476-.4113464l4.2047348 2.0521011 1.6499557 13.8437271z" fill="#344d5b"/><g fill="#feda6f"><ellipse cx="76.455" cy="45.605" rx="4.104" ry="2.167" transform="matrix(.197 -.98 .98 .197 16.657 111.556)"/><ellipse cx="51.482" cy="45.605" rx="2.167" ry="4.104" transform="matrix(.98 -.197 .197 .98 -7.988 11.058)"/><path d="m74.5209045 31.7980976-1.7911835-2.1351204-9.0276451-2.6688995-9.0276794 2.6688995-1.7911797 2.1351204-1.9345284 8.4070492.5015755 4.4037285s.5731163 6.3386765 1.7195435 9.2077522c.9262009 2.3181496 3.1620255 5.2459755 7.2742653 6.6370125 2.0991936.710041 4.4167824.710041 6.5159721 0 4.1122742-1.391037 6.3480682-4.3188629 7.2742996-6.6370125 1.1463623-2.8690758 1.7194748-9.2077522 1.7194748-9.2077522l.5015793-4.4037285z"/></g><path d="m52.523571 47.6639442.1853943.6858635h.9552574c-.2186165-1.1904411-.6506996-5.0799713 1.7120476-10.1274071 0 0-.7471466-2.0757675.5435333-4.8885384 1.2906837-2.8123474 5.3659058-1.9418087 7.947052-1.5399246 2.5811501.401886 7.8111687-.4686527 7.8111687-.4686527s2.9208603.9732265 2.377327 5.4417095c0 0 1.4265594 3.3972168 1.3586197 7.080101-.0306473 1.6692352-.201683 3.2514191-.3787155 4.5027122h.739212c.7606506-2.4658203 1.7709885-6.2315331 1.8129959-8.9551353.068161-4.3865013.92453-4.4175224.4489365-7.1626778-.4755936-2.7455788-1.3996887-5.058672-4.320549-5.4601345 0 0-1.6981125-2.2769241-4.3469925-3.0806923-2.649086-.8033466-3.8718262-.7361546-3.8718262-.7361546s-2.5811462-.6727657-4.2113228-.0016899c-1.6301765.6710739-5.6376724-.1326942-7.1999054 2.0774593-1.562233 2.2097321-3.0524597 4.7723579-3.7996063 7.9198208s-.3397064 4.4207306.2717705 6.7301941c.6112594 2.3098833 1.6938362 6.1085283 1.9656028 7.9831468z" fill="#293b44"/><path d="m102.6750946 68.2090073h-19.8946838c-.8488464 0-1.5369568.6880493-1.5369568 1.5368958v32.0212173c0 .8487396.6881104 1.5369034 1.5369568 1.5369034h24.553627c.8488159 0 1.5369263-.6881638 1.5369263-1.5369034v-27.3622666z" fill="#e1e6e9"/><path d="m102.6750946 68.2090073v4.6438675c0 .8572464.6948395 1.5519791 1.5519485 1.5519791h4.6439209z" fill="#d5d6db"/><g fill="#dbd8dd"><path d="m85.25869 80.504128h19.597042v1.233597h-19.597042z"/><path d="m85.25869 84.646263h19.597042v1.233597h-19.597042z"/><path d="m85.25869 88.788399h19.597042v1.233597h-19.597042z"/><path d="m85.25869 92.930534h19.597042v1.233597h-19.597042z"/><path d="m85.25869 97.07267h19.597042v1.233597h-19.597042z"/></g><path d="m94.5429764 78.6678619v-.7102356c-.3551178-.0447159-.6438141-.1242905-.8660965-.2387161-.2222748-.1144257-.414299-.2992172-.5760727-.5543747-.1617813-.2551651-.2558212-.5668716-.2821198-.9351425l.71418-.1341553c.0552368.3814163.152565.6615677.2919846.8404388.199913.252533.4392929.3932648.7181244.4221954v-2.26091c-.2919846-.0552444-.5905457-.1683502-.8956833-.3393326-.2262268-.1262665-.4004974-.3011932-.5228119-.5247879-.1223221-.2235947-.1834793-.4774323-.1834793-.761528 0-.5050583.1788712-.9141006.5366211-1.2271271.2393723-.2104416.5944901-.3393326 1.0653534-.3866806v-.3393402h.418251v.3393402c.4129868.0394516.7404785.1604614.9824905.3630066.3103943.2577896.4971619.6115875.5602951 1.061409l-.7339096.1104736c-.0420914-.2788315-.1295547-.4925537-.2623901-.6411819-.132843-.1486206-.3150024-.2466049-.5464859-.2939529v2.0478363c.3577423.0894394.5944901.1591492.710228.2091293.2209625.0973282.4011536.2156982.5405731.3551178.1394119.1394119.2466049.3051376.321579.4971619.0749664.1920242.1124496.3998337.1124496.6234283 0 .4919052-.156517.9022598-.4695435 1.2310715s-.7181244.5050583-1.2152863.5287323v.7181244zm0-6.2184982c-.276207.0420914-.4938736.1525726-.6530228.3314438-.1591415.1788712-.2387161.3906326-.2387161.6352692 0 .2420044.0677338.4445496.2032013.6076431.1354752.1630859.3649826.2932968.6885376.390625zm.418251 4.9085083c.2761993-.0341949.5043945-.1538849.6845856-.3590622s.2702789-.4590225.2702789-.761528c0-.2577896-.0637894-.4649429-.1913681-.6214523-.1275787-.156517-.3820801-.2965927-.7634964-.4202271z" fill="#4abba4"/></svg>