<svg enable-background="new 0 0 140 140" height="512" viewBox="0 0 140 140" width="512" xmlns="http://www.w3.org/2000/svg"><circle cx="70" cy="70" fill="#dbd8dd" r="64"/><path d="m58.2288055 24.9983711v12.2399902h-.5100098c-1.3299561 0-2.4199829 1.0800781-2.4199829 2.4199219v7.3798828h.0800172c-7.5800171 4.8300781-12.6100464 13.3100586-12.6100464 22.9602089 0 6.869873 2.5599976 13.1398926 6.7600098 17.9199219h-.0199585l.1399536.1398926c.710022.8000488 1.460022 1.5500488 2.2600098 2.2700195l3.3900146 3.380127v6.6398926c0 .6501465.2600098 1.2402344.6900024 1.6801758l.0100098.0097656c.0100098.0102539.0199585.0200195.0299683.0302734l2.2000122 2.1999512v10.7299805l18.6412354 18.6413498c9.3353271-1.0007324 18.5944824-4.0749512 27.0874023-9.3913498 17.2991943-10.8286133 27.6202393-28.572998 29.6595459-47.4020996l-51.8482667-51.8479043z" opacity=".1"/><path d="m58.227291 24.999985h23.545422v14.955434h-23.545422z" fill="#293b44"/><path d="m84.6983185 53.3293915v-13.676033c0-1.3365021-1.0834427-2.4199524-2.4199448-2.4199524h-24.5567436c-1.3365021 0-2.4199524 1.0834503-2.4199524 2.4199524v13.676033z" fill="#feda6f"/><path d="m58.227291 100.49025h23.545422v14.509739h-23.545422z" fill="#293b44"/><path d="m84.6983185 88.7586899v11.5879211c0 1.3365021-1.0834427 2.4199524-2.4199448 2.4199524h-24.5567436c-1.3365021 0-2.4199524-1.0834503-2.4199524-2.4199524v-11.5879211z" fill="#feda6f"/><circle cx="70" cy="70" fill="#feda6f" r="27.228"/><circle cx="70" cy="70" fill="#fff" r="24.765"/><g fill="#344d5b"><path d="m70 47.0371246c-.494751 0-.895813.4008789-.895813.895752v2.208252c0 .494873.401062.8959961.895813.8959961s.895813-.401123.895813-.8959961v-2.208252c0-.4948731-.401062-.895752-.895813-.895752z"/><path d="m70 88.9629669c-.494751 0-.895813.4008789-.895813.895752v2.208252c0 .494873.401062.8959961.895813.8959961s.895813-.401123.895813-.8959961v-2.208252c0-.4948731-.401062-.895752-.895813-.895752z"/><path d="m92.9629211 70.0000458c0-.494751-.4008789-.895813-.895752-.895813h-2.208252c-.494873 0-.8959961.401062-.8959961.895813s.401123.895813.8959961.895813h2.208252c.4948731 0 .895752-.401062.895752-.895813z"/><path d="m51.0370789 70.0000458c0-.494751-.4008789-.895813-.895752-.895813h-2.208252c-.494873 0-.8959961.401062-.8959961.895813s.401123.895813.8959961.895813h2.208252c.4948731 0 .895752-.401062.895752-.895813z"/></g><path d="m80.3800049 69.1000824v1.7998047h-11.2800293v-17.3999024h1.8000488v15.6000977z" fill="#293b44"/><path d="m62.591255 67.183708h.392293v20.178238h-.392293z" fill="#de594e" transform="matrix(.707 .707 -.707 .707 73.03 -21.765)"/><circle cx="70" cy="70" fill="#3a556a" r="2.61"/><circle cx="70" cy="70" fill="#64798a" r="1.701"/></svg>